<svg width="139" height="139" viewBox="0 0 139 139" fill="none" xmlns="http://www.w3.org/2000/svg">
<path d="M25.3174 0C11.3359 0.000132976 0.00197415 11.3339 0.00195312 25.3154V105.814C0.00195312 123.905 14.6671 138.571 32.7578 138.571H50.6338V138.568H94.1572L94.1572 76.2793C94.1572 58.1886 79.492 43.5237 61.4014 43.5234H50.6338V25.3154C50.6338 11.3338 39.299 0 25.3174 0ZM94.1592 138.569H112.812C127.039 138.569 138.573 127.036 138.573 112.81C138.573 98.5827 127.039 87.0498 112.812 87.0498H94.1592V138.569Z" fill="url(#paint0_linear_1199_454)"/>
<path d="M71.9742 54.6287C63.6656 52.1391 54.3881 56.5546 48.3514 64.9623C46.2516 55.1413 39.805 47.57 31.4239 46.3575C20.0836 44.7172 9.49638 55.3396 7.77693 70.0841C6.05751 84.8285 13.857 98.1109 25.197 99.7518C31.8786 100.718 38.2985 97.4277 42.7974 91.5453C44.5295 98.4294 48.8809 103.805 55.1303 105.678C66.1064 108.966 78.7751 100.205 83.4265 86.1085C88.0779 72.0116 82.9503 57.9178 71.9742 54.6287Z" fill="white"/>
<ellipse cx="7.47583" cy="10.0899" rx="7.47583" ry="10.0899" transform="matrix(-0.976461 -0.215693 -0.215693 0.976461 46.2627 62.168)" fill="#141414"/>
<ellipse cx="69.5803" cy="76.7842" rx="7.47583" ry="10.621" transform="rotate(12.4562 69.5803 76.7842)" fill="#141414"/>
<path d="M34.192 108.809C31.083 113.25 34.192 123.021 44.4072 117.247" stroke="#AD081C" stroke-width="2.80769" stroke-linecap="round"/>
<defs>
<linearGradient id="paint0_linear_1199_454" x1="69.2856" y1="0" x2="69.2856" y2="138.571" gradientUnits="userSpaceOnUse">
<stop stop-color="#FF094B"/>
<stop offset="1" stop-color="#F65D42"/>
</linearGradient>
</defs>
</svg>
