<svg width="296" height="296" viewBox="0 0 296 296" fill="none" xmlns="http://www.w3.org/2000/svg">
<path d="M241.354 0C271.15 0.000224716 295.304 24.154 295.304 53.9492V225.496C295.304 264.048 264.05 295.302 225.498 295.302H187.404V295.293H94.6504L94.6504 162.552C94.6504 123.999 125.904 92.7461 164.456 92.7461H187.404V53.9492C187.404 24.1539 211.559 0 241.354 0ZM94.6484 295.295H54.8965C24.5784 295.295 0 270.717 0 240.398C0.000181445 210.08 24.5785 185.503 54.8965 185.503H94.6484L94.6484 295.295Z" fill="url(#paint0_radial_1303_242)"/>
<path d="M141.895 116.426C159.601 111.121 179.372 120.532 192.237 138.45C196.711 117.52 210.448 101.384 228.309 98.8004C252.476 95.3043 275.037 117.942 278.701 149.364C282.365 180.785 265.745 209.091 241.578 212.587C227.34 214.647 213.661 207.633 204.074 195.098C200.383 209.769 191.108 221.224 177.791 225.214C154.4 232.223 127.403 213.553 117.491 183.512C107.578 153.471 118.505 123.436 141.895 116.426Z" fill="white"/>
<ellipse cx="216.866" cy="150.044" rx="15.9313" ry="21.502" transform="rotate(-12.4562 216.866 150.044)" fill="#141414"/>
<ellipse cx="15.9313" cy="22.6337" rx="15.9313" ry="22.6337" transform="matrix(-0.976461 0.215693 0.215693 0.976461 157.66 138.1)" fill="#141414"/>
<path d="M222.429 231.873C229.055 241.338 222.429 262.16 200.66 249.856" stroke="#AD081C" stroke-width="5.98331" stroke-linecap="round"/>
<defs>
<radialGradient id="paint0_radial_1303_242" cx="0" cy="0" r="1" gradientTransform="matrix(-127.299 125.973 -125.974 -127.298 200.478 182.288)" gradientUnits="userSpaceOnUse">
<stop stop-color="#FFBEC0"/>
<stop offset="0.84048" stop-color="#F65D42"/>
<stop offset="1" stop-color="#FF094B"/>
</radialGradient>
</defs>
</svg>
