<svg width="216" height="224" viewBox="0 0 216 224" fill="none" xmlns="http://www.w3.org/2000/svg">
<path d="M72.6759 3.46851C53.3777 3.95736 38.1292 19.998 38.6178 39.2962C39.1058 58.5695 55.1056 73.8023 74.3703 73.3552L44.3995 74.1141C20.8555 74.7105 2.25288 94.2805 2.84905 117.824C3.44527 141.368 23.0144 159.971 46.5584 159.375L47.8734 159.342C30.5432 159.824 16.8627 174.242 17.3018 191.584C17.7418 208.952 32.1786 222.675 49.547 222.235L183.728 218.838C201.096 218.398 214.82 203.962 214.38 186.594C213.94 169.225 199.504 155.501 182.135 155.941L158.454 156.541C181.961 155.903 200.522 136.352 199.927 112.834C199.33 89.2901 179.761 70.6866 156.217 71.2828L149.997 71.4403C169.26 70.9121 184.468 54.8889 183.98 35.6154C183.492 16.3171 167.451 1.06867 148.153 1.55733L72.6759 3.46851Z" fill="url(#paint0_linear_1027_55)"/>
<path d="M64.3612 39.3474C77.3354 35.0992 92.1087 41.6781 101.942 54.6665C104.855 39.1296 114.696 26.9588 127.835 24.7168C145.614 21.6836 162.696 37.9774 165.989 61.1096C169.282 84.2416 157.54 105.452 139.761 108.486C129.287 110.273 119.055 105.351 111.742 96.2751C109.29 107.176 102.658 115.808 92.8989 119.003C75.7589 124.615 55.4763 111.334 47.5956 89.3383C39.7149 67.3419 47.2211 44.96 64.3612 39.3474Z" fill="white"/>
<ellipse cx="134.676" cy="88.1095" rx="11.7671" ry="15.8817" transform="rotate(-13.9067 134.676 88.1095)" fill="#141414"/>
<ellipse cx="11.7671" cy="16.7176" rx="11.7671" ry="16.7176" transform="matrix(-0.970688 0.240341 0.240341 0.970688 95.3 79.1582)" fill="#141414"/>
<circle cx="121.226" cy="129.511" r="7.632" transform="rotate(-1.4505 121.226 129.511)" fill="white" stroke="#DC2C00" stroke-width="4.31031"/>
<defs>
<linearGradient id="paint0_linear_1027_55" x1="110.349" y1="220.696" x2="104.828" y2="2.65438" gradientUnits="userSpaceOnUse">
<stop stop-color="#FFAE00"/>
<stop offset="1" stop-color="#FF6200"/>
</linearGradient>
</defs>
</svg>
