<svg width="123" height="140" viewBox="0 0 123 140" fill="none" xmlns="http://www.w3.org/2000/svg">
<path d="M93.9766 0C109.773 0 122.579 12.8053 122.579 28.6016V86.2959C122.579 102.092 109.773 114.897 93.9766 114.897H93.7314C91.8912 128.918 79.8974 139.741 65.375 139.741H28.6016C12.8055 139.741 0.000190734 126.936 0 111.14V53.4453C0.000104223 37.6492 12.8054 24.8438 28.6016 24.8438H28.8467C30.6868 10.8235 42.6808 8.68384e-05 57.2031 0H93.9766Z" fill="url(#paint0_linear_1158_436)"/>
<path d="M22.0326 36.369C29.677 34.0784 38.2127 38.1425 43.7662 45.8787C45.6973 36.8422 51.6284 29.8748 59.3397 28.7592C69.7724 27.2502 79.5123 37.0231 81.0941 50.5876C82.676 64.1522 75.5006 76.3719 65.0678 77.8812C58.9205 78.7704 53.0142 75.7424 48.8753 70.3298C47.2822 76.664 43.2789 81.6102 37.5291 83.3332C27.4313 86.359 15.7763 78.2988 11.4971 65.33C7.21797 52.3613 11.9348 39.3949 22.0326 36.369Z" fill="white"/>
<ellipse cx="68.1749" cy="57.9457" rx="6.87756" ry="9.28245" transform="rotate(-12.4562 68.1749 57.9457)" fill="#141414"/>
<ellipse cx="6.87756" cy="9.771" rx="6.87756" ry="9.771" transform="matrix(-0.976461 0.215693 0.215693 0.976461 45.3008 52.1309)" fill="#141414"/>
<path d="M56.3863 84.9883C52.3001 93.5688 45.1203 93.4736 45.8032 88.2519" stroke="#0029C0" stroke-width="2.45158" stroke-linecap="round"/>
<defs>
<linearGradient id="paint0_linear_1158_436" x1="109.095" y1="6.129" x2="13.8914" y2="136.472" gradientUnits="userSpaceOnUse">
<stop stop-color="#437DF9"/>
<stop offset="1" stop-color="#5852FF"/>
</linearGradient>
</defs>
</svg>
