<svg width="405" height="453" viewBox="0 0 405 453" fill="none" xmlns="http://www.w3.org/2000/svg">
<path fill-rule="evenodd" clip-rule="evenodd" d="M203.157 7.03963C203.157 8.94563 204.191 10.7023 205.859 11.6309L393.213 115.896C394.822 116.791 396.782 116.783 398.383 115.876L403.022 113.247C403.232 113.128 403.5 113.201 403.62 113.412C403.74 113.622 403.666 113.889 403.455 114.009L398.549 116.789C396.923 117.71 395.909 119.422 395.883 121.287L392.92 331.627C392.893 333.541 393.911 335.319 395.577 336.267L404.779 341.505C404.989 341.624 405.062 341.892 404.942 342.102C404.822 342.312 404.554 342.385 404.344 342.265L395.351 337.147C393.732 336.225 391.744 336.225 390.125 337.148L205.812 442.223C204.17 443.159 203.157 444.901 203.157 446.787V452.562C203.157 452.804 202.96 453 202.717 453C202.475 453 202.278 452.804 202.278 452.562V447.289C202.278 445.402 201.265 443.66 199.623 442.724L14.6942 337.299C13.0782 336.378 11.0949 336.376 9.47663 337.293L1.09078 342.046C0.879994 342.165 0.612043 342.092 0.492225 341.882C0.372356 341.671 0.446145 341.404 0.657018 341.284L9.02618 336.541C10.6745 335.606 11.6927 333.861 11.6927 331.97V121.838C11.6927 119.95 10.678 118.207 9.03417 117.271L0.221496 112.256C0.0109693 112.136 -0.0623545 111.869 0.0577169 111.659C0.177806 111.449 0.445866 111.376 0.656425 111.496L9.52799 116.544C11.1475 117.466 13.1347 117.465 14.7535 116.542L199.623 11.152C201.265 10.216 202.278 8.47399 202.278 6.58738V0.438105C202.278 0.196146 202.475 0 202.717 0C202.96 0 203.157 0.196146 203.157 0.438104V7.03963ZM21.5505 330.45C18 332.462 17.9935 337.565 21.5389 339.586L194.394 438.128C197.907 440.131 202.278 437.6 202.278 433.563V404.242C202.278 402.292 201.197 400.502 199.468 399.592L46.5383 319.079C44.948 318.242 43.0395 318.271 41.476 319.158L21.5505 330.45ZM205.905 399.571C204.211 400.492 203.157 402.263 203.157 404.188V433.062C203.157 437.098 207.528 439.629 211.041 437.626L383.306 339.42C386.847 337.401 386.846 332.306 383.303 330.289L361.463 317.859C359.876 316.956 357.934 316.937 356.33 317.809L205.905 399.571ZM53.8014 312.172C50.182 314.223 50.2634 319.454 53.9449 321.393L194.549 395.417C198.059 397.265 202.278 394.726 202.278 390.768V366.445C202.278 364.55 201.256 362.802 199.602 361.869L85.1866 297.325C83.5739 296.415 81.6008 296.417 79.9899 297.33L53.8014 312.172ZM205.832 361.869C204.179 362.802 203.157 364.55 203.157 366.445V390.615C203.157 394.605 207.436 397.141 210.947 395.232L349.176 320.1C352.8 318.13 352.851 312.957 349.266 310.917L325.426 297.349C323.814 296.431 321.837 296.428 320.221 297.339L205.832 361.869ZM92.096 290.469C88.5362 292.486 88.5412 297.606 92.105 299.616L194.415 357.332C197.928 359.314 202.278 356.782 202.278 352.756V331.403C202.278 329.505 201.253 327.755 199.595 326.823L116.016 279.844C114.405 278.939 112.435 278.942 110.827 279.854L92.096 290.469ZM205.84 326.823C204.182 327.755 203.157 329.505 203.157 331.403V352.756C203.157 356.782 207.507 359.314 211.02 357.332L313.33 299.617C316.89 297.609 316.9 292.496 313.347 290.474L294.656 279.836C293.047 278.92 291.073 278.914 289.458 279.822L205.84 326.823ZM13.0976 325.2C13.0976 329.231 17.4573 331.763 20.9702 329.772L41.1192 318.352C42.7638 317.42 43.7816 315.68 43.7859 313.793L44.1811 140.341C44.1854 138.449 43.1701 136.7 41.5227 135.763L20.9785 124.07C17.4655 122.071 13.0976 124.601 13.0976 128.636V325.2ZM362.156 137.415C360.508 138.349 359.489 140.095 359.489 141.986V312.675C359.489 314.562 360.504 316.305 362.148 317.241L383.726 329.523C387.211 331.506 391.55 329.032 391.607 325.03L394.38 128.259C394.437 124.195 390.049 121.606 386.507 123.614L362.156 137.415ZM122.944 272.986C119.381 275.005 119.39 280.131 122.96 282.138L194.422 322.306C197.935 324.281 202.278 321.749 202.278 317.726V303.61C202.278 301.713 201.254 299.963 199.598 299.031L140.681 265.869C139.069 264.961 137.098 264.964 135.489 265.876L122.944 272.986ZM205.837 298.536C204.181 299.469 203.157 301.218 203.157 303.115V317.726C203.157 321.749 207.5 324.281 211.013 322.306L282.541 282.1C286.107 280.096 286.12 274.977 282.565 272.954L269.61 265.58C267.999 264.664 266.024 264.659 264.409 265.568L205.837 298.536ZM45.2054 306.991C45.1961 311.027 49.5603 313.568 53.0779 311.574L79.2945 296.716C80.9394 295.784 81.9572 294.044 81.9612 292.157L82.2406 162.002C82.2447 160.11 81.2294 158.362 79.5822 157.424L53.4515 142.552C49.9431 140.555 45.5798 143.077 45.5706 147.106L45.2054 306.991ZM326.147 157.823C324.498 158.757 323.48 160.502 323.48 162.394V292.179C323.48 294.067 324.495 295.81 326.139 296.746L350.204 310.442C353.717 312.442 358.085 309.911 358.085 305.876V148.755C358.085 144.724 353.725 142.193 350.212 144.184L326.147 157.823ZM147.601 259.012C144.039 261.03 144.047 266.154 147.615 268.162L194.419 294.506C197.932 296.483 202.278 293.951 202.278 289.927V270.178C202.278 268.282 201.255 266.533 199.601 265.6L170.299 249.086C168.686 248.178 166.714 248.18 165.104 249.092L147.601 259.012ZM205.834 265.373C204.18 266.305 203.157 268.054 203.157 269.95V289.432C203.157 293.456 207.503 295.988 211.016 294.011L257.501 267.846C261.065 265.84 261.077 260.723 257.522 258.7L240.293 248.895C238.682 247.978 236.706 247.974 235.09 248.884L205.834 265.373ZM295.297 175.306C293.647 176.242 292.629 177.99 292.631 179.883L292.736 274.687C292.738 276.573 293.753 278.313 295.395 279.248L314.194 289.947C317.707 291.947 322.075 289.416 322.075 285.381V169.163C322.075 165.132 317.716 162.601 314.203 164.592L295.297 175.306ZM83.3807 285.356C83.372 289.392 87.7358 291.932 91.2532 289.939L110.097 279.26C111.71 278.345 112.722 276.652 112.762 274.802L114.806 180.64C114.848 178.712 113.828 176.916 112.149 175.96L91.5111 164.214C88.0024 162.217 83.6388 164.739 83.6302 168.769L83.3807 285.356ZM114.322 267.719C114.233 271.799 118.636 274.42 122.193 272.404L134.695 265.319C136.304 264.407 137.316 262.72 137.36 260.874L138.955 194.397C139.002 192.465 137.981 190.663 136.298 189.705L123.95 182.677C120.481 180.703 116.157 183.146 116.071 187.13L114.322 267.719ZM269.937 189.678C268.289 190.613 267.271 192.358 267.271 194.25V260.187C267.271 262.075 268.285 263.818 269.929 264.754L283.442 272.445C286.957 274.446 291.327 271.91 291.323 267.873L291.232 186.637C291.228 182.609 286.871 180.082 283.36 182.071L269.937 189.678ZM177.212 242.23C173.651 244.248 173.657 249.369 177.223 251.378L194.417 261.069C197.93 263.049 202.278 260.517 202.278 256.492V237.057C202.278 233.026 197.919 230.495 194.406 232.485L177.212 242.23ZM203.157 256.263C203.157 260.288 207.505 262.82 211.018 260.841L228.192 251.162C231.753 249.154 231.764 244.04 228.211 242.018L211.037 232.243C207.524 230.244 203.157 232.775 203.157 236.81V256.263ZM138.936 253.757C138.838 257.843 143.245 260.473 146.807 258.454L164.481 248.438C166.129 247.504 167.147 245.758 167.147 243.867V210.316C167.147 208.428 166.133 206.685 164.489 205.75L148.085 196.414C144.621 194.442 140.302 196.876 140.206 200.854L138.936 253.757ZM240.55 206.333C238.902 207.267 237.884 209.013 237.884 210.904V243.462C237.884 245.35 238.898 247.093 240.542 248.028L257.985 257.955C261.498 259.955 265.866 257.424 265.866 253.389V201.019C265.866 196.988 261.506 194.457 257.993 196.448L240.55 206.333ZM168.552 237.098C168.552 241.129 172.912 243.66 176.425 241.669L194.017 231.698C197.569 229.685 197.574 224.58 194.026 222.561L176.433 212.548C172.92 210.548 168.552 213.079 168.552 217.114V237.098ZM211.888 222.577C208.336 224.59 208.331 229.695 211.88 231.715L228.598 241.23C232.111 243.229 236.479 240.698 236.479 236.663V217.674C236.479 213.643 232.119 211.112 228.606 213.103L211.888 222.577ZM203.157 217.486C203.157 221.517 207.516 224.048 211.029 222.057L227.836 212.532C231.396 210.514 231.39 205.393 227.825 203.383L211.018 193.911C207.505 191.931 203.157 194.463 203.157 198.488V217.486ZM177.339 202.827C173.72 204.8 173.672 209.968 177.254 212.007L194.397 221.764C197.91 223.763 202.278 221.233 202.278 217.198V198.097C202.278 194.105 197.994 191.57 194.482 193.484L177.339 202.827ZM203.157 184.802C203.157 186.697 204.18 188.446 205.834 189.379L234.749 205.676C236.362 206.584 238.334 206.582 239.944 205.669L257.012 195.996C260.611 193.957 260.556 188.765 256.916 186.801L210.933 161.99C207.422 160.096 203.157 162.632 203.157 166.615V184.802ZM149.216 186.828C145.602 188.805 145.559 193.968 149.138 196.005L165.067 205.071C166.655 205.975 168.6 205.993 170.204 205.118L199.535 189.133C201.226 188.211 202.278 186.442 202.278 184.519V166.682C202.278 162.686 197.987 160.151 194.475 162.072L149.216 186.828ZM124.482 172.866C120.959 174.896 120.973 179.974 124.507 181.985L136.962 189.075C138.553 189.98 140.501 189.997 142.107 189.118L199.542 157.701C201.229 156.779 202.278 155.011 202.278 153.092V137.152C202.278 133.104 197.886 130.575 194.373 132.599L124.482 172.866ZM203.157 153.068C203.157 154.998 204.217 156.774 205.919 157.692L264.148 189.109C265.746 189.972 267.677 189.952 269.257 189.056L282.255 181.69C285.817 179.671 285.81 174.548 282.242 172.54L211.015 132.453C207.503 130.476 203.157 133.008 203.157 137.032V153.068ZM92.0287 154.318C88.4449 156.312 88.4199 161.447 91.9843 163.476L112.492 175.147C114.119 176.073 116.116 176.068 117.738 175.133L199.644 127.944C201.274 127.005 202.278 125.27 202.278 123.392V101.926C202.278 97.9133 197.954 95.3798 194.442 97.3342L92.0287 154.318ZM203.157 123.35C203.157 125.247 204.181 126.997 205.837 127.929L289.176 174.833C290.788 175.74 292.759 175.737 294.369 174.825L313.155 164.178C316.715 162.16 316.709 157.041 313.146 155.03L211.02 97.4185C207.507 95.4368 203.157 97.9687 203.157 101.995V123.35ZM203.157 88.3062C203.157 90.2013 204.179 91.9497 205.832 92.8825L320.063 157.323C321.676 158.233 323.649 158.231 325.26 157.318L349.545 143.554C353.1 141.539 353.101 136.429 349.547 134.413L211.031 55.834C207.518 53.8411 203.157 56.3724 203.157 60.4041V88.3062ZM54.5763 132.986C50.981 134.973 50.9487 140.119 54.5187 142.151L79.8633 156.577C81.4659 157.489 83.43 157.498 85.0414 156.602L199.575 92.8735C201.244 91.945 202.278 90.1882 202.278 88.2821V60.2725C202.278 56.2667 197.967 53.7326 194.455 55.6738L54.5763 132.986ZM203.157 46.6965C203.157 48.587 204.174 50.332 205.821 51.2665L356.425 136.702C358.04 137.618 360.018 137.618 361.633 136.703L386.236 122.76C389.807 120.736 389.787 115.594 386.2 113.597L210.993 16.0926C207.481 14.1378 203.157 16.6712 203.157 20.6838V46.6965ZM21.5714 114.27C18.0298 116.289 18.0315 121.385 21.5746 123.401L42.3762 135.241C43.9742 136.151 45.932 136.163 47.5413 135.273L199.562 51.2491C201.238 50.3227 202.278 48.5619 202.278 46.6504V20.3113C202.278 16.2746 197.907 13.744 194.394 15.7467L21.5714 114.27Z" fill="#FAF1FF" fill-opacity="0.08"/>
</svg>
