<svg width="544" height="544" viewBox="0 0 544 544" fill="none" xmlns="http://www.w3.org/2000/svg">
<circle cx="271.686" cy="271.686" r="271.686" transform="matrix(-1 8.74228e-08 8.74228e-08 1 543.372 0)" fill="url(#paint0_radial_1294_221)"/>
<path d="M265.564 56.5369C235.606 64.5911 215.685 95.47 213.128 132.398C188.264 106.474 154.41 95.5697 126.632 107.646C89.0413 123.989 76.8139 176.229 99.3209 224.326C121.828 272.423 170.547 298.164 208.138 281.822C230.278 272.196 243.619 250.117 246.247 223.767C264.467 241.447 287.819 249.609 310.352 243.551C349.936 232.909 372 182.417 359.632 130.775C347.264 79.1323 305.148 45.8948 265.564 56.5369Z" fill="white"/>
<ellipse cx="26.7431" cy="36.0944" rx="26.7431" ry="36.0944" transform="matrix(-0.943959 0.330064 0.330064 0.943959 217.173 161.512)" fill="black"/>
<ellipse cx="305.403" cy="165.432" rx="26.7431" ry="37.9941" transform="rotate(-19.2727 305.403 165.432)" fill="black"/>
<path d="M287.577 289.158C298.169 299.221 316.176 320.934 303.465 327.29C290.755 333.645 279.103 308.754 274.866 295.513" stroke="#6D0DAE" stroke-width="5" stroke-linecap="round"/>
<defs>
<radialGradient id="paint0_radial_1294_221" cx="0" cy="0" r="1" gradientUnits="userSpaceOnUse" gradientTransform="translate(287.614 191.591) rotate(107.579) scale(394.791)">
<stop stop-color="#C09FFF"/>
<stop offset="0.575565" stop-color="#8E5DE7"/>
<stop offset="1" stop-color="#5D1BCF"/>
</radialGradient>
</defs>
</svg>
