<svg width="87" height="87" viewBox="0 0 87 87" fill="none" xmlns="http://www.w3.org/2000/svg">
<circle cx="43.3681" cy="43.3681" r="43.3681" fill="url(#paint0_radial_1270_1616)"/>
<path d="M44.3424 9.02328C49.1258 10.3093 52.3036 15.2409 52.7102 21.1379C56.6794 16.9972 62.0838 15.2538 66.5192 17.1821C72.5195 19.7909 74.4715 28.1291 70.879 35.8065C67.2863 43.484 59.5093 47.5937 53.5089 44.9851C49.9732 43.4479 47.8441 39.921 47.4258 35.7125C44.5171 38.5363 40.7909 39.8428 37.193 38.8756C30.8744 37.1768 27.3528 29.1164 29.3271 20.8729C31.3014 12.6297 38.0238 7.32455 44.3424 9.02328Z" fill="white"/>
<ellipse cx="54.1944" cy="32.629" rx="4.26888" ry="5.76159" transform="rotate(19.2727 54.1944 32.629)" fill="#141414"/>
<ellipse cx="4.26888" cy="6.06483" rx="4.26888" ry="6.06483" transform="matrix(-0.943959 -0.330064 -0.330064 0.943959 44.0156 22.0918)" fill="#141414"/>
<path d="M40.8277 46.1582C39.137 47.7644 36.2627 51.2305 38.2916 52.245C40.3205 53.2594 42.1804 49.2861 42.8567 47.1727" stroke="#6D0DAE" stroke-width="2.58712" stroke-linecap="round"/>
<defs>
<radialGradient id="paint0_radial_1270_1616" cx="0" cy="0" r="1" gradientUnits="userSpaceOnUse" gradientTransform="translate(44.3825 42.7341) rotate(60.0903) scale(43.7412)">
<stop stop-color="#D779FF"/>
<stop offset="1" stop-color="#8E28E1"/>
</radialGradient>
</defs>
</svg>
