<svg width="150" height="150" viewBox="0 0 150 150" fill="none" xmlns="http://www.w3.org/2000/svg">
<rect width="150" height="150" rx="75" fill="url(#paint0_linear_1281_108)"/>
<path fill-rule="evenodd" clip-rule="evenodd" d="M97.9799 45.062C98.8294 44.7045 99.7592 44.5811 100.672 44.7049C101.586 44.8286 102.449 45.1949 103.173 45.7656C103.897 46.3363 104.454 47.0905 104.787 47.9498C105.121 48.809 105.218 49.7419 105.068 50.6514L97.2718 97.9411C96.5155 102.503 91.5106 105.119 87.3271 102.846C83.8277 100.945 78.6302 98.0167 73.9552 94.9607C71.6177 93.431 64.4574 88.5326 65.3374 85.047C66.0937 82.0667 78.1249 70.8673 84.9999 64.2089C87.6984 61.5929 86.4677 60.0839 83.2812 62.4901C75.3681 68.4645 62.6631 77.5498 58.4624 80.1073C54.7568 82.3623 52.8249 82.7473 50.5149 82.3623C46.3006 81.6611 42.3921 80.5748 39.2021 79.2514C34.8915 77.4639 35.1012 71.5376 39.1987 69.812L97.9799 45.062Z" fill="white"/>
<defs>
<linearGradient id="paint0_linear_1281_108" x1="75" y1="0" x2="75" y2="150" gradientUnits="userSpaceOnUse">
<stop stop-color="#7AD2FF"/>
<stop offset="1" stop-color="#0086CA"/>
</linearGradient>
</defs>
</svg>
