<svg width="70" height="70" viewBox="0 0 70 70" fill="none" xmlns="http://www.w3.org/2000/svg">
<rect width="70" height="70" rx="35" fill="#141414"/>
<path fill-rule="evenodd" clip-rule="evenodd" d="M45.7263 22.2734C46.1227 22.1065 46.5566 22.049 46.9828 22.1067C47.409 22.1645 47.812 22.3354 48.1497 22.6017C48.4874 22.8681 48.7476 23.22 48.9032 23.621C49.0587 24.022 49.1039 24.4574 49.0341 24.8818L45.3958 46.9503C45.0429 49.079 42.7073 50.2998 40.755 49.2394C39.122 48.3523 36.6965 46.9856 34.5148 45.5595C33.424 44.8456 30.0825 42.5597 30.4931 40.9331C30.8461 39.5422 36.4606 34.3159 39.669 31.2086C40.9282 29.9878 40.354 29.2836 38.8669 30.4065C35.1741 33.1946 29.2451 37.4344 27.2848 38.6279C25.5555 39.6802 24.654 39.8599 23.576 39.6802C21.6093 39.353 19.7853 38.846 18.2967 38.2284C16.285 37.3943 16.3829 34.6287 18.2951 33.8234L45.7263 22.2734Z" fill="white"/>
</svg>
