<svg width="70" height="70" viewBox="0 0 70 70" fill="none" xmlns="http://www.w3.org/2000/svg">
<rect width="70" height="70" rx="35" fill="#141414"/>
<path d="M52.436 47.6803H48.1097C46.4736 47.6803 45.9807 46.3551 43.0478 43.4203C40.4846 40.9501 39.4021 40.6429 38.7537 40.6429C37.857 40.6429 37.6124 40.8894 37.6124 42.1236V46.0138C37.6124 47.066 37.2712 47.6822 34.5222 47.6822C31.8554 47.503 29.2692 46.6928 26.9768 45.3184C24.6843 43.9439 22.7512 42.0445 21.3367 39.7765C17.9792 35.5955 15.6424 30.6895 14.5117 25.4478C14.5117 24.7995 14.7582 24.2117 15.9943 24.2117H20.3168C21.4277 24.2117 21.8277 24.7066 22.2638 25.8497C24.3625 32.0264 27.9437 37.3992 29.3978 37.3992C29.9552 37.3992 30.1978 37.1527 30.1978 35.7631V29.4006C30.0139 26.4981 28.4726 26.2536 28.4726 25.2033C28.4921 24.9262 28.6189 24.6676 28.826 24.4825C29.0331 24.2973 29.3042 24.2002 29.5817 24.2117H36.3764C37.3053 24.2117 37.6124 24.6743 37.6124 25.7853V34.3734C37.6124 35.3005 38.0106 35.6076 38.2912 35.6076C38.8485 35.6076 39.277 35.3005 40.2988 34.2805C42.4883 31.6086 44.2777 28.6327 45.611 25.4459C45.7468 25.0629 46.0045 24.735 46.3445 24.5124C46.6845 24.2898 47.0882 24.1849 47.4935 24.2136H51.8179C53.1147 24.2136 53.3896 24.862 53.1147 25.7872C51.5414 29.3102 49.5953 32.6546 47.3096 35.7631C46.8433 36.474 46.6575 36.8437 47.3096 37.6779C47.7381 38.3262 49.2548 39.5926 50.2728 40.7965C51.7554 42.2752 52.9858 43.9853 53.9166 45.8584C54.2882 47.0641 53.6702 47.6803 52.436 47.6803Z" fill="white"/>
</svg>
