<svg width="44" height="44" viewBox="0 0 44 44" fill="none" xmlns="http://www.w3.org/2000/svg">
<path d="M0 8C0 3.58172 3.58172 0 8 0H36C40.4183 0 44 3.58172 44 8V36C44 40.4183 40.4183 44 36 44H8C3.58172 44 0 40.4183 0 36V8Z" fill="#F5F5F5"/>
<g clip-path="url(#clip0_426_3533)">
<g clip-path="url(#clip1_426_3533)">
<path fill-rule="evenodd" clip-rule="evenodd" d="M31.4378 23.982C30.7688 23.593 29.6718 23.334 28.8338 22.985H28.7738C29.0103 21.5898 28.9386 20.1596 28.5638 18.795C28.0758 17.268 27.0378 16.42 25.3918 16.869C25.0938 16.9458 24.8259 17.1107 24.6231 17.342C24.4203 17.5734 24.2919 17.8606 24.2548 18.166C24.2288 19.146 24.3468 20.123 24.6038 21.069C24.8068 22.029 24.8068 23.022 24.6038 23.982C24.4884 24.4166 24.2844 24.8226 24.0046 25.1745C23.7248 25.5265 23.3752 25.8167 22.9778 26.027C22.4918 26.2712 21.9293 26.3143 21.4118 26.147C20.8228 25.9935 20.2832 25.6912 19.8448 25.269C19.4187 24.9404 18.8992 24.7555 18.3613 24.7411C17.8234 24.7268 17.2948 24.8836 16.8518 25.189C16.6815 25.2997 16.5367 25.4452 16.4268 25.616C16.3169 25.7868 16.2445 25.979 16.2144 26.1798C16.1843 26.3806 16.197 26.5855 16.2519 26.7811C16.3068 26.9766 16.4025 27.1582 16.5328 27.314C17.0577 28.1703 17.7336 28.9242 18.5278 29.539C19.3256 30.0878 20.1702 30.5653 21.0518 30.966C21.4078 31.145 21.7058 31.422 21.9098 31.764C22.1298 32.388 22.2598 33.039 22.2998 33.699C22.3146 33.789 22.363 33.87 22.4352 33.9257C22.5074 33.9814 22.598 34.0076 22.6888 33.999C22.778 33.984 22.858 33.935 22.9119 33.8623C22.9658 33.7895 22.9894 33.6988 22.9778 33.609C22.9563 32.8695 22.8283 32.137 22.5978 31.434C22.3474 30.9534 21.9674 30.5526 21.5008 30.277C20.6651 29.8759 19.8701 29.395 19.1268 28.841C18.4523 28.2795 17.8817 27.6039 17.4408 26.845C17.3926 26.7786 17.3619 26.7011 17.3515 26.6197C17.341 26.5383 17.3512 26.4555 17.3811 26.3791C17.4109 26.3027 17.4595 26.2349 17.5224 26.1821C17.5852 26.1294 17.6603 26.0932 17.7408 26.077C17.9369 25.9805 18.1547 25.9362 18.373 25.9484C18.5913 25.9607 18.8027 26.0291 18.9868 26.147C19.5637 26.732 20.2819 27.1581 21.0718 27.384C21.4939 27.5151 21.9377 27.5614 22.3778 27.5202C22.8178 27.479 23.2454 27.3512 23.6358 27.144C24.5111 26.6677 25.2107 25.9232 25.6318 25.02C26.1244 23.6844 26.2042 22.2315 25.8608 20.85C25.6575 20.126 25.5111 19.391 25.4218 18.645C25.4218 18.345 25.4218 18.066 25.7318 17.976C27.0378 17.567 27.6168 18.685 27.8458 20.111C28.1203 22.2266 27.7956 24.3768 26.9088 26.317C26.8575 26.4046 26.8423 26.5088 26.8666 26.6074C26.8909 26.706 26.9526 26.7913 27.0388 26.845C27.1279 26.8969 27.2337 26.9123 27.3339 26.8881C27.4341 26.8639 27.5212 26.8019 27.5768 26.715C28.1031 25.7861 28.4673 24.7743 28.6538 23.723C29.1738 24.022 29.7318 24.291 30.2308 24.571L29.8208 25.199C29.7308 25.347 29.6511 25.5004 29.5818 25.659C29.5018 25.818 29.4418 25.977 29.3718 26.137C29.2128 26.537 29.0928 26.925 28.9238 27.294C28.8877 27.3354 28.8608 27.384 28.8447 27.4365C28.8287 27.4891 28.824 27.5444 28.8308 27.5989C28.8377 27.6534 28.856 27.7059 28.8845 27.7528C28.913 27.7998 28.9511 27.8401 28.9964 27.8713C29.0416 27.9025 29.0929 27.9238 29.1469 27.9338C29.2009 27.9438 29.2564 27.9422 29.3098 27.9293C29.3632 27.9163 29.4132 27.8922 29.4567 27.8586C29.5001 27.8249 29.5359 27.7825 29.5618 27.734C29.8831 27.4234 30.1791 27.0907 30.4498 26.736C30.6768 26.4234 30.8521 26.0763 30.9688 25.708C31.0188 25.508 31.0188 25.319 31.0488 25.119C31.3036 25.3364 31.4928 25.6207 31.5949 25.9397C31.697 26.2588 31.708 26.6 31.6268 26.925C31.4006 27.7664 31.0654 28.5745 30.6298 29.329C29.8303 30.5783 29.3158 31.9884 29.1228 33.459C29.12 33.5634 29.1583 33.6648 29.2293 33.7414C29.3003 33.818 29.3985 33.8638 29.5028 33.869C29.6042 33.8712 29.7025 33.8338 29.7768 33.7648C29.8511 33.6957 29.8956 33.6004 29.9008 33.499C30.0008 32.352 30.8988 31.145 31.6568 29.909C32.2482 29.0602 32.6871 28.1147 32.9538 27.115C33.0862 26.4985 33.009 25.8555 32.7344 25.2879C32.4597 24.7203 32.0034 24.2607 31.4378 23.982Z" fill="#232323"/>
<path fill-rule="evenodd" clip-rule="evenodd" d="M21.7399 13.816C21.9786 13.7327 22.2216 13.666 22.4689 13.616C22.6689 13.616 22.8679 13.616 23.0579 13.546C23.2526 13.5207 23.4452 13.4844 23.6359 13.437L24.7839 13.197L24.5039 13.617L23.6359 14.924C23.6032 14.9665 23.5796 15.0152 23.5666 15.0672C23.5536 15.1192 23.5514 15.1733 23.5602 15.2261C23.569 15.279 23.5886 15.3295 23.6178 15.3744C23.647 15.4193 23.6851 15.4578 23.7298 15.4873C23.7745 15.5169 23.8249 15.5369 23.8776 15.5461C23.9304 15.5554 23.9845 15.5536 24.0366 15.541C24.0887 15.5284 24.1376 15.5052 24.1803 15.4729C24.2231 15.4406 24.2586 15.3998 24.2849 15.353L25.9709 13.696C26.2149 13.424 26.4199 13.118 26.5789 12.789C26.6312 12.6729 26.6582 12.5469 26.6582 12.4195C26.6582 12.2921 26.6312 12.1662 26.5789 12.05C26.4245 11.7822 26.2177 11.5482 25.9709 11.362C25.6802 11.1667 25.3809 10.987 25.0729 10.823L23.9749 10.095C23.9101 10.0344 23.8246 10.0007 23.7359 10.0007C23.6472 10.0007 23.5617 10.0344 23.4969 10.095C23.4337 10.1587 23.3982 10.2448 23.3982 10.3345C23.3982 10.4243 23.4337 10.5104 23.4969 10.574L24.3939 11.572L24.9929 12.2C24.6627 12.1459 24.3293 12.1125 23.9949 12.1C23.7745 12.0971 23.5543 12.1138 23.3369 12.15C23.1142 12.1854 22.8982 12.2454 22.6889 12.33C22.2024 12.5477 21.7596 12.852 21.3819 13.228C21.3424 13.2513 21.3081 13.2822 21.2809 13.3191C21.2538 13.3559 21.2344 13.3979 21.2239 13.4425C21.2134 13.487 21.212 13.5332 21.2199 13.5784C21.2277 13.6235 21.2446 13.6665 21.2696 13.7049C21.2945 13.7433 21.3269 13.7762 21.365 13.8017C21.403 13.8272 21.4458 13.8448 21.4908 13.8533C21.5357 13.8618 21.582 13.8611 21.6267 13.8513C21.6714 13.8414 21.7137 13.8227 21.7509 13.796L21.7399 13.816ZM14.7569 17.707C15.3248 17.4605 15.9166 17.2731 16.5229 17.148H16.6529L16.7129 17.358C16.9129 17.936 17.1419 18.485 17.3609 19.054C17.3658 19.1098 17.3826 19.1639 17.4103 19.2125C17.4379 19.2612 17.4758 19.3033 17.5212 19.336C17.5666 19.3687 17.6186 19.3912 17.6735 19.402C17.7284 19.4128 17.785 19.4116 17.8394 19.3985C17.8939 19.3854 17.9448 19.3607 17.9888 19.3261C18.0328 19.2915 18.0689 19.2478 18.0944 19.198C18.12 19.1483 18.1345 19.0935 18.137 19.0376C18.1395 18.9817 18.1299 18.9259 18.1089 18.874C18.0399 18.226 17.9899 17.627 17.8999 17V16.71C18.5599 16.49 19.1979 16.231 19.8159 15.982C19.8659 15.9692 19.9129 15.9467 19.9541 15.9156C19.9953 15.8845 20.0299 15.8456 20.0559 15.801C20.082 15.7565 20.0989 15.7072 20.1058 15.656C20.1126 15.6049 20.1093 15.5529 20.0959 15.503C20.0657 15.4051 19.9991 15.3225 19.9098 15.2723C19.8205 15.222 19.7153 15.208 19.6159 15.233C18.9879 15.323 18.3299 15.363 17.6209 15.493H17.5409C17.3319 14.905 17.0629 14.376 16.8129 13.807C16.8036 13.7632 16.7854 13.7216 16.7595 13.685C16.7336 13.6484 16.7005 13.6174 16.6622 13.594C16.6239 13.5706 16.5813 13.5553 16.5369 13.5489C16.4924 13.5426 16.4472 13.5453 16.4039 13.557C16.3561 13.567 16.3109 13.5871 16.2716 13.6161C16.2323 13.645 16.1996 13.6821 16.1759 13.7248C16.1522 13.7675 16.1379 13.8148 16.1341 13.8635C16.1303 13.9122 16.1371 13.9612 16.1539 14.007C16.2139 14.615 16.2339 15.214 16.3339 15.822C15.5998 16.1441 14.9306 16.5971 14.3589 17.159C14.3205 17.1844 14.2877 17.2172 14.2623 17.2556C14.237 17.294 14.2197 17.3371 14.2116 17.3823C14.2034 17.4276 14.2044 17.474 14.2147 17.5188C14.225 17.5636 14.2443 17.6059 14.2713 17.6431C14.2984 17.6802 14.3327 17.7115 14.3723 17.735C14.4118 17.7585 14.4556 17.7738 14.5012 17.7799C14.5468 17.7859 14.5931 17.7827 14.6374 17.7704C14.6817 17.758 14.723 17.7368 14.7589 17.708M16.2939 23.443C16.2802 23.394 16.2567 23.3482 16.225 23.3084C16.1932 23.2686 16.1537 23.2356 16.109 23.2114C16.0642 23.1871 16.015 23.1721 15.9643 23.1673C15.9136 23.1624 15.8625 23.1678 15.8139 23.183C15.3959 23.263 14.9969 23.293 14.5979 23.383C14.4003 23.4316 14.2068 23.4951 14.0189 23.573L13.9089 23.623C13.9129 23.5831 13.9129 23.5429 13.9089 23.503C14.0589 23.134 14.2489 22.785 14.3989 22.426C14.6096 21.848 14.8686 21.2927 15.1759 20.76C15.2068 20.7275 15.2309 20.6891 15.2469 20.6471C15.2628 20.6051 15.2702 20.5604 15.2687 20.5156C15.2673 20.4707 15.2569 20.4266 15.2382 20.3857C15.2195 20.3449 15.1929 20.3082 15.16 20.2777C15.127 20.2473 15.0883 20.2237 15.0461 20.2083C15.0039 20.1929 14.9591 20.186 14.9143 20.1881C14.8694 20.1902 14.8254 20.2012 14.7849 20.2204C14.7443 20.2396 14.7079 20.2667 14.6779 20.3C14.2024 20.6481 13.7817 21.0654 13.4299 21.538C13.2878 21.7496 13.1643 21.9731 13.0609 22.206C12.9688 22.4439 12.892 22.6874 12.8309 22.935V23.055C12.7519 22.945 12.6919 22.825 12.6119 22.705C12.2929 22.226 11.9439 21.767 11.6149 21.308C11.594 21.2685 11.5654 21.2336 11.5306 21.2055C11.4959 21.1774 11.4558 21.1566 11.4128 21.1444C11.3697 21.1323 11.3247 21.129 11.2804 21.1348C11.2361 21.1405 11.1934 21.1553 11.1549 21.178C11.0765 21.2242 11.0192 21.2992 10.9951 21.3869C10.9711 21.4746 10.9821 21.5683 11.0259 21.648L12.0739 24.241C12.1692 24.501 12.2822 24.754 12.4129 25C12.477 25.1066 12.5676 25.1948 12.6759 25.256C12.7842 25.3171 12.9065 25.3492 13.0309 25.349C13.2669 25.337 13.4959 25.269 13.6999 25.149C13.9999 24.979 14.2979 24.7 14.5179 24.551C14.6846 24.4464 14.8576 24.353 15.0369 24.271C15.3659 24.151 15.6849 24.051 16.0339 23.922C16.1312 23.892 16.2129 23.825 16.2615 23.7355C16.31 23.646 16.3217 23.541 16.2939 23.443Z" fill="#8F58FA"/>
</g>
</g>
<defs>
<clipPath id="clip0_426_3533">
<rect width="24" height="24" fill="white" transform="translate(10 10)"/>
</clipPath>
<clipPath id="clip1_426_3533">
<rect width="24" height="24" fill="white" transform="translate(10 10)"/>
</clipPath>
</defs>
</svg>
