<svg width="15" height="14" viewBox="0 0 15 14" fill="none" xmlns="http://www.w3.org/2000/svg">
<path fill-rule="evenodd" clip-rule="evenodd" d="M0.233118 0.233174C0.544017 -0.0777246 1.0482 -0.0777246 1.35909 0.233174L7.16574 6.03884L12.9489 0.256611C13.2599 -0.0539964 13.7641 -0.0541902 14.0749 0.256611C14.3857 0.567416 14.3855 1.07168 14.0749 1.38259L8.29171 7.16481L13.7439 12.617C14.0546 12.9277 14.0544 13.432 13.7439 13.7429C13.433 14.0538 12.9288 14.0538 12.6179 13.7429L7.16574 8.29079L1.69015 13.7674C1.37926 14.0782 0.875074 14.0782 0.564173 13.7674C0.253275 13.4565 0.253275 12.9523 0.564173 12.6414L6.03976 7.16481L0.233118 1.35915C-0.077743 1.04829 -0.0776692 0.544081 0.233118 0.233174Z" fill="#232323"/>
</svg>
