<svg width="15" height="14" viewBox="0 0 15 14" fill="none" xmlns="http://www.w3.org/2000/svg">
<path d="M0.233106 0.233174C0.544004 -0.0777245 1.04818 -0.0777245 1.35908 0.233174L7.16475 6.03884L12.9479 0.256611C13.2588 -0.0542201 13.763 -0.0540864 14.0739 0.256611C14.3848 0.56751 14.3848 1.07169 14.0739 1.38259L8.29072 7.16481L13.7429 12.617C14.0538 12.9279 14.0538 13.432 13.7429 13.7429C13.432 14.0538 12.9278 14.0538 12.6169 13.7429L7.16475 8.29079L1.69014 13.7674C1.37934 14.0782 0.875082 14.078 0.564161 13.7674C0.253263 13.4565 0.253263 12.9523 0.564161 12.6414L6.03975 7.16481L0.233106 1.35817C-0.0777125 1.0473 -0.0776917 0.544061 0.233106 0.233174Z" fill="white"/>
</svg>
