<svg width="44" height="52" viewBox="0 0 44 52" fill="none" xmlns="http://www.w3.org/2000/svg">
<g filter="url(#filter0_ii_354_2991)">
<path d="M1.91609 11.9676L19.4843 1.24482C20.7404 0.478125 22.3161 0.463109 23.5867 1.20572L42.0185 11.9789C43.2457 12.6962 44 14.0108 44 15.4323V35.5929C44 37.0144 43.2457 38.329 42.0185 39.0463L23.5867 49.8195C22.3161 50.5621 20.7404 50.5471 19.4843 49.7804L1.91609 39.0576C0.725996 38.3312 0 37.0376 0 35.6433V15.3819C0 13.9876 0.725998 12.694 1.91609 11.9676Z" fill="#8F58FA"/>
</g>
<path d="M37.5559 24.3246C37.6223 26.2817 36.9097 27.0138 35.5958 27.5897C35.3922 27.6789 35.1795 27.7473 34.9897 27.7868C34.8633 27.8131 34.7412 27.7399 34.6893 27.6217L34.3536 26.8555C34.264 26.6512 34.421 26.3894 34.6337 26.3224C34.7732 26.2784 34.9253 26.2203 35.0791 26.1529C35.5939 25.9273 35.8696 25.4512 35.8506 24.7813L35.82 23.7658C35.8174 23.6817 35.7797 23.6025 35.716 23.5476L30.1038 18.7098C29.9366 18.5657 29.9771 18.2964 30.1793 18.2078L31.2493 17.7389C31.3553 17.6924 31.4786 17.7111 31.5661 17.7869L35.7272 21.3909C35.7371 21.3994 35.7511 21.4016 35.7631 21.3963C35.7758 21.3907 35.7838 21.378 35.7834 21.3642L35.6281 16.0247C35.6245 15.9025 35.6955 15.7903 35.8075 15.7412L36.8938 15.2651C37.0888 15.1797 37.3083 15.3188 37.3142 15.5316L37.5559 24.3246Z" fill="#FAF1FF"/>
<path d="M26.7137 16.567C26.6472 16.4153 26.7163 16.2383 26.868 16.1718L27.9847 15.6824C28.1364 15.6159 28.3133 15.685 28.3799 15.8368L32.5084 25.2572C32.5749 25.409 32.5058 25.5859 32.354 25.6524L31.2374 26.1418C31.0856 26.2083 30.9087 26.1392 30.8422 25.9874L26.7137 16.567Z" fill="#FAF1FF"/>
<path d="M27.0615 19.5733C27.2132 19.5068 27.3902 19.5759 27.4567 19.7276L30.3029 26.2221C30.3694 26.3738 30.3003 26.5508 30.1485 26.6173L29.0319 27.1066C28.8802 27.1731 28.7032 27.104 28.6367 26.9523L25.7905 20.4578C25.724 20.3061 25.7931 20.1292 25.9449 20.0627L27.0615 19.5733ZM25.6252 19.4438C25.4734 19.5103 25.2965 19.4412 25.23 19.2894L24.8831 18.4979C24.8166 18.3462 24.8857 18.1692 25.0375 18.1027L26.2354 17.5777C26.3871 17.5112 26.5641 17.5803 26.6306 17.7321L26.9775 18.5236C27.044 18.6754 26.9749 18.8523 26.8231 18.9188L25.6252 19.4438Z" fill="#FAF1FF"/>
<path d="M22.1303 21.5409C23.8184 20.8011 25.203 21.1157 25.908 22.384C25.9885 22.5288 25.9179 22.7068 25.7662 22.7733L24.6496 23.2627C24.4978 23.3292 24.3243 23.2567 24.2284 23.1216C23.8905 22.6456 23.3252 22.5351 22.6612 22.8261C21.9568 23.1348 21.6853 23.6575 21.9347 24.2264C22.5283 25.581 26.2579 22.8162 27.3858 25.39C27.9973 26.7852 27.2758 28.0865 25.447 28.8879C23.5853 29.7038 22.0756 29.3639 21.3205 27.9879C21.2408 27.8427 21.3112 27.6646 21.463 27.5981L22.5796 27.1088C22.7314 27.0422 22.9053 27.1141 22.998 27.2514C23.3892 27.8308 24.0727 27.9562 24.883 27.601C25.6687 27.2567 25.9749 26.7027 25.7197 26.1202C25.1022 24.7114 21.438 27.6252 20.2566 24.9295C19.6629 23.5749 20.3557 22.3186 22.1303 21.5409Z" fill="#FAF1FF"/>
<path d="M18.1628 32.0802C16.6185 32.757 15.2989 32.3987 14.7527 31.1525C14.2481 30.0011 15.029 28.8353 16.634 27.7443C17.6075 27.0916 18.1373 26.5688 17.882 25.9863C17.6148 25.3767 16.9864 25.2323 16.2007 25.5766C15.429 25.9148 15.0669 26.4465 15.1808 27.0387C15.2121 27.2014 15.1481 27.3782 14.9963 27.4447L13.8797 27.9341C13.7279 28.0006 13.5491 27.9318 13.4983 27.7741C13.0624 26.4198 13.8164 25.1844 15.5911 24.4066C17.4875 23.5755 18.9664 23.9286 19.5957 25.3645L21.6362 30.0205C21.7027 30.1722 21.6336 30.3492 21.4818 30.4157L20.3065 30.9308C20.1237 31.0109 19.9151 30.8935 19.8887 30.6956L19.8256 30.2216C19.8235 30.2061 19.8072 30.1969 19.7928 30.2032C19.7854 30.2064 19.7801 30.2133 19.7789 30.2214C19.6692 30.973 19.0517 31.6906 18.1628 32.0802ZM16.3595 30.2868C16.6088 30.8558 17.2221 31.0391 17.8994 30.7423C18.956 30.2792 19.3246 29.278 18.8378 28.1672L18.7634 27.9975C18.6574 27.7557 18.2733 27.7416 18.0927 27.9343C17.898 28.142 17.6408 28.3558 17.3052 28.6128C16.4791 29.2332 16.128 29.7585 16.3595 30.2868Z" fill="#FAF1FF"/>
<path d="M14.0059 30.9947C14.1788 30.919 14.3788 31.0201 14.4014 31.2074C14.5839 32.7177 13.7337 34.0206 12.0756 34.7473C9.92177 35.6912 8.02935 34.8735 7.00824 32.5436C5.99308 30.2272 6.6863 28.3086 8.85368 27.3587C10.9398 26.4445 12.7483 27.2182 13.7219 29.4398L13.8152 29.6527C13.8818 29.8044 13.8126 29.9814 13.6609 30.0479L9.24244 31.9843C9.08422 32.0536 9.0163 32.2429 9.10517 32.3911C9.7709 33.5007 10.6837 33.904 11.6497 33.4807C12.3732 33.1636 12.7586 32.5579 12.7046 31.8159C12.6945 31.6763 12.7641 31.5389 12.8923 31.4827L14.0059 30.9947ZM8.45851 30.7329C8.49393 30.9106 8.68732 31.0003 8.85324 30.9276L11.4487 29.7901C11.6056 29.7213 11.6745 29.5341 11.5848 29.3881C11.0373 28.4964 10.2453 28.186 9.36849 28.5703C8.57093 28.9198 8.25169 29.6957 8.45851 30.7329Z" fill="#FAF1FF"/>
<defs>
<filter id="filter0_ii_354_2991" x="-1" y="-0.34082" width="46" height="51.707" filterUnits="userSpaceOnUse" color-interpolation-filters="sRGB">
<feFlood flood-opacity="0" result="BackgroundImageFix"/>
<feBlend mode="normal" in="SourceGraphic" in2="BackgroundImageFix" result="shape"/>
<feColorMatrix in="SourceAlpha" type="matrix" values="0 0 0 0 0 0 0 0 0 0 0 0 0 0 0 0 0 0 127 0" result="hardAlpha"/>
<feOffset dx="1" dy="1"/>
<feGaussianBlur stdDeviation="2"/>
<feComposite in2="hardAlpha" operator="arithmetic" k2="-1" k3="1"/>
<feColorMatrix type="matrix" values="0 0 0 0 0.980392 0 0 0 0 0.945098 0 0 0 0 1 0 0 0 0.6 0"/>
<feBlend mode="normal" in2="shape" result="effect1_innerShadow_354_2991"/>
<feColorMatrix in="SourceAlpha" type="matrix" values="0 0 0 0 0 0 0 0 0 0 0 0 0 0 0 0 0 0 127 0" result="hardAlpha"/>
<feOffset dx="-1" dy="-1"/>
<feGaussianBlur stdDeviation="2"/>
<feComposite in2="hardAlpha" operator="arithmetic" k2="-1" k3="1"/>
<feColorMatrix type="matrix" values="0 0 0 0 0.980392 0 0 0 0 0.945098 0 0 0 0 1 0 0 0 0.6 0"/>
<feBlend mode="normal" in2="effect1_innerShadow_354_2991" result="effect2_innerShadow_354_2991"/>
</filter>
</defs>
</svg>
