<svg width="150" height="150" viewBox="0 0 150 150" fill="none" xmlns="http://www.w3.org/2000/svg">
<rect width="150" height="150" rx="75" fill="url(#paint0_linear_1281_120)"/>
<path d="M112.36 102.171H103.089C99.5834 102.171 98.5272 99.3309 92.2425 93.0422C86.75 87.7487 84.4303 87.0906 83.0409 87.0906C81.1194 87.0906 80.5953 87.6187 80.5953 90.2634V98.5997C80.5953 100.854 79.8641 102.175 73.9734 102.175C68.2587 101.791 62.7169 100.055 57.8046 97.1094C52.8922 94.1641 48.7499 90.0939 45.7188 85.2341C38.5241 76.2747 33.5167 65.7618 31.0938 54.5297C31.0938 53.1403 31.6219 51.8809 34.2706 51.8809H43.5331C45.9137 51.8809 46.7709 52.9412 47.7053 55.3909C52.2025 68.6266 59.8766 80.1397 62.9925 80.1397C64.1869 80.1397 64.7069 79.6116 64.7069 76.6337V63C64.3128 56.7803 61.01 56.2562 61.01 54.0056C61.0518 53.4118 61.3234 52.8577 61.7671 52.461C62.2109 52.0643 62.7918 51.8562 63.3866 51.8809H77.9466C79.9372 51.8809 80.5953 52.8722 80.5953 55.2528V73.6559C80.5953 75.6425 81.4484 76.3006 82.0497 76.3006C83.2441 76.3006 84.1622 75.6425 86.3519 73.4569C91.0436 67.7314 94.8781 61.3543 97.735 54.5256C98.0261 53.7048 98.5782 53.0021 99.3068 52.5252C100.035 52.0482 100.9 51.8234 101.769 51.885H111.036C113.814 51.885 114.403 53.2744 113.814 55.2569C110.443 62.8062 106.273 69.9727 101.375 76.6337C100.376 78.1572 99.9775 78.9494 101.375 80.7369C102.293 82.1262 105.543 84.84 107.725 87.4197C110.902 90.5884 113.538 94.2528 115.533 98.2665C116.329 100.85 115.005 102.171 112.36 102.171Z" fill="white"/>
<defs>
<linearGradient id="paint0_linear_1281_120" x1="75" y1="25.5" x2="75" y2="167" gradientUnits="userSpaceOnUse">
<stop stop-color="#1CA9FF"/>
<stop offset="1" stop-color="#0077FF"/>
</linearGradient>
</defs>
</svg>
