<svg width="1076" height="1718" viewBox="0 0 1076 1718" fill="none" xmlns="http://www.w3.org/2000/svg">
<path fill-rule="evenodd" clip-rule="evenodd" d="M-75.5639 115.655C-67.9091 124.795 -55.9644 129.161 -44.2308 127.106L824.1 -24.9269C835.829 -26.9806 845.566 -35.1376 849.642 -46.3262L885.878 -145.779C886.115 -146.428 886.832 -146.762 887.481 -146.525C888.13 -146.288 888.464 -145.57 888.228 -144.921L852.085 -45.7242C848.009 -34.5358 850.211 -22.0154 857.863 -12.8785L1424.43 663.629C1432.09 672.772 1444.04 677.137 1455.78 675.077L1571.47 654.772C1572.15 654.653 1572.8 655.107 1572.92 655.787C1573.04 656.468 1572.59 657.116 1571.91 657.236L1457.16 677.374C1445.44 679.431 1435.71 687.582 1431.63 698.761L1129.12 1528.14C1125.04 1539.33 1127.24 1551.85 1134.89 1560.99L1224.48 1667.97C1224.93 1668.5 1224.86 1669.29 1224.33 1669.73C1223.8 1670.17 1223.01 1670.1 1222.57 1669.57L1133.59 1563.34C1125.94 1554.2 1113.99 1549.83 1102.26 1551.89L232.242 1704.21C220.513 1706.27 210.776 1714.43 206.699 1725.61L162.32 1847.42C162.084 1848.07 161.366 1848.4 160.718 1848.16C160.069 1847.93 159.735 1847.21 159.971 1846.56L204.184 1725.21C208.261 1714.02 206.058 1701.5 198.406 1692.36L-369.02 1014.83C-376.677 1005.69 -388.629 1001.32 -400.366 1003.38L-508.071 1022.29C-508.751 1022.41 -509.399 1021.95 -509.519 1021.27C-509.64 1020.59 -509.186 1019.94 -508.506 1019.82L-400.639 1000.89C-388.919 998.835 -379.191 990.684 -375.114 979.506L-72.3241 149.378C-68.2422 138.187 -70.4435 125.662 -78.0982 116.522L-140.052 42.546C-140.496 42.0163 -140.426 41.2276 -139.897 40.7845C-139.368 40.3413 -138.579 40.4115 -138.136 40.9412L-75.5639 115.655ZM234.454 1649.44C225.669 1673.55 246.288 1698.16 271.566 1693.73L1061.74 1555.39C1087.01 1550.96 1097.99 1520.83 1081.5 1501.14L998.795 1402.38C991.141 1393.24 979.197 1388.88 967.464 1390.93L304.092 1507.02C292.361 1509.07 282.624 1517.23 278.547 1528.42L234.454 1649.44ZM994.008 1366.82C989.928 1378.01 992.129 1390.53 999.783 1399.67L1082.8 1498.8C1099.29 1518.48 1130.88 1512.96 1139.67 1488.86L1414.39 735.701C1423.19 711.582 1402.56 686.958 1377.27 691.396L1249.88 713.754C1238.16 715.811 1228.43 723.963 1224.35 735.143L994.008 1366.82ZM305.983 1453.12C297.198 1477.23 317.814 1501.84 343.091 1497.42L927.533 1395.14C952.807 1390.72 963.789 1360.58 947.3 1340.89L878.695 1258.98C871.035 1249.83 859.077 1245.47 847.336 1247.53L367.88 1331.87C356.161 1333.93 346.437 1342.09 342.364 1353.27L305.983 1453.12ZM874.23 1223.75C870.136 1234.95 872.334 1247.49 879.995 1256.64L948.289 1338.18C964.777 1357.87 996.371 1352.35 1005.16 1328.24L1208.03 771.917C1216.82 747.798 1196.19 723.176 1170.91 727.614L1066.66 745.91C1054.95 747.965 1045.23 756.104 1041.15 767.271L874.23 1223.75ZM369.531 1278.7C360.742 1302.83 381.383 1327.44 406.669 1322.99L808.018 1252.39C833.275 1247.95 844.236 1217.83 827.756 1198.15L771.216 1130.64C763.552 1121.49 751.587 1117.13 739.841 1119.2L425.125 1174.72C413.413 1176.78 403.695 1184.94 399.624 1196.11L369.531 1278.7ZM766.448 1095.04C762.347 1106.24 764.543 1118.78 772.208 1127.93L829.055 1195.81C845.535 1215.49 877.11 1209.99 885.918 1185.9L1025.57 803.964C1034.4 779.841 1013.76 755.194 988.463 759.634L901.371 774.919C889.666 776.974 879.947 785.106 875.86 796.265L766.448 1095.04ZM175.064 1658.98C191.555 1678.67 223.155 1673.14 231.94 1649.03L276.004 1528.09C280.081 1516.9 277.878 1504.38 270.226 1495.25L-162.475 978.582C-170.133 969.438 -182.084 965.073 -193.821 967.133L-320.544 989.374C-345.81 993.808 -356.779 1023.93 -340.296 1043.62L175.064 1658.98ZM779.936 152.298C775.859 163.486 778.062 176.006 785.714 185.143L1216.94 700.045C1224.6 709.189 1236.55 713.553 1248.28 711.493L1375.95 689.087C1401.22 684.653 1412.19 654.527 1395.71 634.844L881.205 20.5064C864.714 0.815363 833.115 6.34252 824.33 30.4547L779.936 152.298ZM426.545 1122.22C417.753 1146.35 438.407 1170.97 463.698 1166.51L701.045 1124.64C726.293 1120.19 737.243 1090.08 720.767 1070.4L667.699 1007.04C660.038 997.89 648.08 993.526 636.338 995.592L480.404 1023.03C468.686 1025.09 458.962 1033.25 454.889 1044.43L426.545 1122.22ZM663.234 971.813C659.139 983.01 661.337 995.549 668.998 1004.7L721.759 1067.69C738.234 1087.37 769.8 1081.87 778.616 1057.8L860.987 832.865C869.822 808.739 849.187 784.078 823.881 788.519L742.766 802.755C731.056 804.811 721.334 812.949 717.251 824.115L663.234 971.813ZM246.566 1462.74C263.057 1482.43 294.657 1476.9 303.442 1452.79L339.588 1353.58C343.665 1342.39 341.462 1329.87 333.81 1320.73L20.3836 946.489C12.7257 937.345 0.77454 932.98 -10.9629 935.04L-114.915 953.285C-140.181 957.719 -151.15 987.845 -134.666 1007.53L246.566 1462.74ZM716.682 325.906C712.605 337.095 714.808 349.615 722.46 358.752L1035.03 731.972C1042.68 741.116 1054.64 745.481 1066.37 743.421L1169.38 725.342C1194.64 720.908 1205.61 690.782 1189.13 671.1L809.374 217.654C792.883 197.963 761.284 203.49 752.499 227.602L716.682 325.906ZM309.869 1288.99C326.36 1308.68 357.96 1303.16 366.745 1279.04L396.912 1196.25C400.988 1185.06 398.786 1172.54 391.134 1163.4L185.241 917.556C177.583 908.412 165.632 904.047 153.894 906.107L67.1375 921.333C41.872 925.768 30.9023 955.893 47.3861 975.576L309.869 1288.99ZM659.028 484.143C654.952 495.331 657.154 507.852 664.806 516.989L869.223 761.071C876.881 770.215 888.832 774.58 900.569 772.52L988.274 757.128C1013.54 752.694 1024.51 722.568 1008.03 702.885L746.401 390.493C729.91 370.802 698.31 376.329 689.525 400.441L659.028 484.143ZM481.56 971.226C472.771 995.35 493.413 1019.97 518.7 1015.52L597.958 1001.57C623.215 997.126 634.174 967.007 617.694 947.33L566.005 885.611C549.514 865.92 517.914 871.447 509.129 895.559L481.56 971.226ZM618.993 944.988C635.473 964.666 667.047 959.163 675.855 935.078L703.108 860.562C711.93 836.438 691.297 811.789 665.997 816.229L587.828 829.948C562.562 834.383 551.593 864.509 568.077 884.191L618.993 944.988ZM366.938 1132.36C383.43 1152.05 415.029 1146.52 423.814 1122.41L452.259 1044.34C456.336 1033.15 454.133 1020.63 446.481 1011.49L344.412 889.619C336.755 880.476 324.804 876.111 313.066 878.171L231.262 892.528C205.997 896.962 195.027 927.088 211.511 946.771L366.938 1132.36ZM604.01 635.146C599.934 646.335 602.136 658.855 609.788 667.992L710.998 788.841C718.656 797.985 730.607 802.35 742.345 800.29L823.201 786.099C848.467 781.665 859.436 751.539 842.953 731.856L689.002 548.032C672.511 528.341 640.911 533.868 632.126 557.98L604.01 635.146ZM422.041 981.121C438.532 1000.81 470.132 995.284 478.917 971.172L506.669 895.002C515.456 870.885 494.827 846.271 469.544 850.708L389.732 864.716C364.467 869.15 353.497 899.276 369.981 918.958L422.041 981.121ZM550.057 783.228C541.269 807.346 561.899 831.96 587.181 827.522L665.679 813.745C690.944 809.311 701.914 779.185 685.43 759.503L634.228 698.365C617.737 678.674 586.137 684.201 577.352 708.313L550.057 783.228ZM352.59 817.849C343.768 841.973 364.401 866.622 389.701 862.181L469.478 848.18C494.744 843.745 505.713 813.62 489.23 793.937L437.265 731.889C420.786 712.212 389.211 717.715 380.403 741.8L352.59 817.849ZM490.923 792.066C507.414 811.757 539.013 806.23 547.799 782.118L575.067 707.278C583.856 683.154 563.214 658.537 537.927 662.987L459.535 676.781C434.278 681.226 423.319 711.344 439.798 731.021L490.923 792.066ZM389.794 671.313C397.455 680.461 409.413 684.826 421.155 682.76L576.223 655.472C587.94 653.41 597.664 645.257 601.737 634.078L629.633 557.517C638.425 533.387 617.771 508.766 592.479 513.227L357.291 554.717C332.042 559.171 321.093 589.282 337.569 608.954L389.794 671.313ZM195.06 845.485C186.225 869.611 206.86 894.272 232.166 889.83L312.933 875.655C324.643 873.6 334.365 865.461 338.448 854.296L393.025 705.065C397.12 693.868 394.922 681.329 387.261 672.181L334.728 609.455C318.253 589.783 286.688 595.277 277.871 619.352L195.06 845.485ZM287.12 548.716C294.785 557.868 306.749 562.232 318.495 560.16L631.052 505.021C642.764 502.955 652.482 494.804 656.553 483.629L687.096 399.801C695.885 375.677 675.245 351.06 649.958 355.508L249.476 425.958C224.218 430.401 213.257 460.521 229.737 480.199L287.12 548.716ZM30.1236 874.446C21.3026 898.57 41.9361 923.217 67.2351 918.776L154.677 903.43C166.381 901.375 176.101 893.243 180.187 882.084L290.039 582.114C294.141 570.914 291.944 558.37 284.28 549.218L227.204 481.067C210.724 461.389 179.149 466.893 170.341 490.979L30.1236 874.446ZM178.798 419.374C186.459 428.522 198.416 432.886 210.157 430.821L688.747 346.631C700.465 344.57 710.19 336.416 714.263 325.237L750.194 226.62C758.979 202.509 738.363 177.899 713.086 182.323L130.806 284.222C105.531 288.645 94.5502 318.779 111.039 338.467L178.798 419.374ZM-151.983 906.433C-160.778 930.552 -140.148 955.174 -114.862 950.736L-10.9641 932.501C0.746417 930.446 10.4691 922.307 14.5521 911.14L182.029 453.124C186.123 441.927 183.925 429.39 176.264 420.242L108.195 338.965C91.7067 319.277 60.1128 324.798 51.3224 348.905L-151.983 906.433ZM59.5445 276.981C67.1986 286.12 79.142 290.485 90.8748 288.432L752.084 172.721C763.815 170.668 773.552 162.511 777.629 151.321L821.887 29.8497C830.673 5.73766 810.054 -18.8728 784.776 -14.4469L-3.71068 123.606C-28.9839 128.031 -39.9631 158.164 -23.4754 177.851L59.5445 276.981ZM-357.871 942.565C-366.669 966.685 -346.038 991.309 -320.75 986.871L-193.832 964.596C-182.111 962.538 -172.382 954.387 -168.306 943.207L62.476 310.332C66.5567 299.142 64.3552 286.618 56.7011 277.478L-26.0098 178.718C-42.4975 159.031 -74.0896 164.551 -82.8817 188.655L-357.871 942.565Z" fill="#FCE7F3" fill-opacity="0.3"/>
</svg>
