<svg width="157" height="182" viewBox="0 0 157 182" fill="none" xmlns="http://www.w3.org/2000/svg">
<g filter="url(#filter0_ii_2472_1396)">
<path d="M7.66435 42.1803L68.6145 4.97927C73.6391 1.9125 79.9418 1.85243 85.0239 4.82288L149.016 42.2255C153.925 45.0946 156.942 50.3532 156.942 56.039V125.961C156.942 131.647 153.925 136.905 149.016 139.775L85.024 177.177C79.9418 180.148 73.6391 180.088 68.6145 177.021L7.66436 139.82C2.90398 136.914 0 131.74 0 126.163V55.8374C0 50.2604 2.90398 45.0858 7.66435 42.1803Z" fill="#E94B98"/>
</g>
<path d="M129.709 80.777C130.293 87.7372 127.884 90.4718 123.305 92.7562C122.816 93.0002 122.31 93.2098 121.823 93.3736C121.007 93.6481 120.167 93.2014 119.783 92.4311L119.422 91.7074C118.758 90.377 119.697 88.4658 121.035 87.8158C121.093 87.7873 121.152 87.7585 121.21 87.7293C123.004 86.8343 123.902 85.0893 123.715 82.7063L123.459 79.502C123.414 78.943 123.137 78.4284 122.694 78.0837L103.33 63.0028C102.169 62.0985 102.35 60.2923 103.667 59.6353L105.549 58.6961C106.24 58.3515 107.067 58.4351 107.675 58.9107L122.675 70.6499C122.711 70.6787 122.762 70.6838 122.803 70.6629C122.848 70.6408 122.874 70.5942 122.87 70.5449L121.419 52.1761C121.355 51.3633 121.791 50.593 122.52 50.229L124.509 49.2369C125.779 48.6033 127.286 49.4572 127.396 50.8723L129.709 80.777Z" fill="#FDF2F8"/>
<path d="M90.1214 55.8927C89.6283 54.9043 90.0298 53.7033 91.0181 53.2102L93.2451 52.0991C94.2335 51.606 95.4345 52.0075 95.9276 52.9959L111.475 84.1594C111.968 85.1478 111.567 86.3488 110.579 86.8419L108.352 87.9529C107.363 88.446 106.162 88.0445 105.669 87.0562L90.1214 55.8927Z" fill="#FDF2F8"/>
<path d="M90.6572 66.1253C91.6455 65.6322 92.8465 66.0337 93.3397 67.0221L103.8 87.9893C104.294 88.9777 103.892 90.1787 102.904 90.6718L100.677 91.7829C99.6884 92.276 98.4874 91.8745 97.9942 90.8861L87.5335 69.9189C87.0404 68.9305 87.4419 67.7295 88.4302 67.2364L90.6572 66.1253ZM87.1817 65.0884C86.1933 65.5815 84.9923 65.18 84.4992 64.1916L83.9534 63.0976C83.4603 62.1092 83.8618 60.9082 84.8502 60.4151L87.3603 59.1628C88.3487 58.6697 89.5497 59.0712 90.0428 60.0595L90.5886 61.1536C91.0818 62.1419 90.6803 63.3429 89.6919 63.8361L87.1817 65.0884Z" fill="#FDF2F8"/>
<path d="M74.2699 73.5917C79.7926 70.8363 84.5274 71.4393 87.3504 75.1589C88.0181 76.0387 87.5975 77.2594 86.6091 77.7526L84.3821 78.8636C83.3938 79.3567 82.2342 78.8827 81.375 78.1885C80.1007 77.1589 78.3452 77.1002 76.3892 78.076C73.9346 79.3007 73.06 81.2109 74.0491 83.1935C76.4042 87.914 89.2004 77.403 93.675 86.3719C96.1008 91.234 93.761 95.9976 87.3884 99.177C81.2672 102.231 76.0798 101.564 73.0491 97.4735C72.3915 96.5861 72.8105 95.3666 73.7989 94.8734L76.0258 93.7624C77.0142 93.2693 78.178 93.7288 78.9983 94.4686C80.5089 95.831 82.6908 95.92 85.151 94.6925C87.8889 93.3266 88.8815 91.2985 87.8689 89.2687C85.4195 84.3594 72.8825 95.3896 68.1959 85.9958C65.8408 81.2754 68.086 76.6768 74.2699 73.5917Z" fill="#FDF2F8"/>
<path d="M62.0041 111.843C56.6227 114.528 51.858 113.486 49.6913 109.143C47.6895 105.131 50.2648 100.839 55.789 96.6682C59.1412 94.1703 60.9359 92.2137 59.9232 90.1839C58.8634 88.0597 56.599 87.6567 53.8611 89.0226C51.5711 90.1651 50.3641 91.7547 50.3716 93.4916C50.3763 94.5962 50.0581 95.8132 49.0697 96.3064L46.8427 97.4174C45.8543 97.9105 44.6239 97.5124 44.3379 96.4455C43.1526 92.0233 45.6829 87.8558 51.4818 84.9627C58.0905 81.6656 63.4214 82.6611 65.9178 87.6648L73.5975 103.058C74.0907 104.046 73.6892 105.247 72.7008 105.74L69.6141 107.28C68.8886 107.642 68.0184 107.208 67.8714 106.41L67.5981 104.927C67.588 104.872 67.5282 104.843 67.4783 104.867C67.4522 104.88 67.4348 104.906 67.432 104.935C67.1742 107.632 65.1017 110.298 62.0041 111.843ZM55.262 105.774C56.2511 107.757 58.4683 108.301 60.8286 107.124C64.5105 105.287 65.6461 101.655 63.7149 97.7839C63.1835 96.7187 61.3961 96.713 60.5777 97.5776C59.9832 98.2056 59.2438 98.8718 58.3343 99.643C55.5012 102 54.3435 103.933 55.262 105.774Z" fill="#FDF2F8"/>
<path d="M46.0015 109.216C47.1271 108.654 48.5015 109.265 48.5966 110.519C48.9674 115.412 46.1717 119.743 40.7999 122.423C33.2944 126.167 26.4077 123.59 22.3569 115.47C18.3297 107.398 20.4591 100.441 28.0118 96.6725C35.2814 93.0456 41.8615 95.4814 45.7238 103.223C46.1921 104.161 45.8108 105.302 44.8723 105.77L31.1005 112.641C30.07 113.155 29.6718 114.446 30.3765 115.357C32.8557 118.561 35.9383 119.542 39.058 117.986C41.3396 116.848 42.5927 114.917 42.5706 112.608C42.5616 111.675 42.9593 110.733 43.7944 110.317L46.0015 109.216ZM26.9889 107.725C27.1769 108.918 28.5106 109.453 29.5913 108.913L36.8144 105.31C37.8366 104.8 38.2444 103.517 37.5139 102.638C35.4736 100.185 32.8411 99.5101 30.0607 100.897C27.5504 102.15 26.4918 104.572 26.9889 107.725Z" fill="#FDF2F8"/>
<path d="M95.9457 113.17C93.4354 114.582 91.0223 113.759 89.444 110.953L87.3952 107.309C85.7091 104.311 86.4177 101.572 89.2941 99.9543C90.1309 99.4838 90.7999 98.8781 91.1486 98.3149L92.7325 99.5811C92.4971 100.264 91.6483 101.04 90.4454 101.716C88.9288 102.569 88.4873 103.987 89.2955 105.506L89.7551 106.487L89.79 106.467C89.9481 105.483 90.5594 104.612 91.4834 104.092C93.8019 102.789 96.0636 103.628 97.6026 106.365C99.1809 109.171 98.5781 111.69 95.9457 113.17ZM91.6951 109.733C92.6263 111.389 93.8726 111.973 95.0406 111.316C96.1912 110.669 96.3221 109.311 95.3908 107.654C94.4693 106.016 93.2329 105.449 92.03 106.125C90.9143 106.753 90.7736 108.094 91.6951 109.733ZM100.849 110.115L95.7515 101.05L97.8957 99.8441L99.5034 102.703L101.072 101.821C103.565 100.419 105.56 100.743 106.687 102.748C107.805 104.735 107.107 106.596 104.719 107.939L100.849 110.115ZM102.052 107.236L103.743 106.285C104.702 105.746 104.956 104.892 104.456 104.002C103.946 103.096 103.059 102.906 102.013 103.494L100.444 104.377L102.052 107.236ZM109.304 105.361L104.206 96.2955L106.351 95.0897L111.448 104.155L109.304 105.361ZM115.144 90.1448L116.085 91.8183L113.087 93.5044L117.243 100.896L115.099 102.102L110.943 94.7102L107.909 96.4159L106.968 94.7424L115.144 90.1448Z" fill="#FDF2F8"/>
<defs>
<filter id="filter0_ii_2472_1396" x="-2" y="0.636353" width="160.941" height="180.727" filterUnits="userSpaceOnUse" color-interpolation-filters="sRGB">
<feFlood flood-opacity="0" result="BackgroundImageFix"/>
<feBlend mode="normal" in="SourceGraphic" in2="BackgroundImageFix" result="shape"/>
<feColorMatrix in="SourceAlpha" type="matrix" values="0 0 0 0 0 0 0 0 0 0 0 0 0 0 0 0 0 0 127 0" result="hardAlpha"/>
<feOffset dx="2" dy="2"/>
<feGaussianBlur stdDeviation="10"/>
<feComposite in2="hardAlpha" operator="arithmetic" k2="-1" k3="1"/>
<feColorMatrix type="matrix" values="0 0 0 0 0.992157 0 0 0 0 0.94902 0 0 0 0 0.972549 0 0 0 1 0"/>
<feBlend mode="normal" in2="shape" result="effect1_innerShadow_2472_1396"/>
<feColorMatrix in="SourceAlpha" type="matrix" values="0 0 0 0 0 0 0 0 0 0 0 0 0 0 0 0 0 0 127 0" result="hardAlpha"/>
<feOffset dx="-2" dy="-2"/>
<feGaussianBlur stdDeviation="10"/>
<feComposite in2="hardAlpha" operator="arithmetic" k2="-1" k3="1"/>
<feColorMatrix type="matrix" values="0 0 0 0 0.992157 0 0 0 0 0.94902 0 0 0 0 0.972549 0 0 0 1 0"/>
<feBlend mode="normal" in2="effect1_innerShadow_2472_1396" result="effect2_innerShadow_2472_1396"/>
</filter>
</defs>
</svg>
