<svg width="129" height="129" viewBox="0 0 129 129" fill="none" xmlns="http://www.w3.org/2000/svg">
<circle cx="64.5" cy="64.5" r="64.5" fill="url(#paint0_linear_1085_182)"/>
<path d="M65.9539 13.4202C73.0681 15.3328 77.7969 22.6677 78.4017 31.4379C84.3051 25.2798 92.3448 22.6888 98.9413 25.5566C107.865 29.4367 110.768 41.8383 105.425 53.2567C100.081 64.6752 88.5147 70.7867 79.5904 66.9069C74.3323 64.6207 71.1655 59.3755 70.5433 53.1166C66.2173 57.317 60.6721 59.2573 55.3208 57.8187C45.9236 55.2919 40.6863 43.305 43.6224 31.0449C46.5587 18.7849 56.5565 10.8939 65.9539 13.4202Z" fill="white"/>
<ellipse cx="80.6062" cy="48.5281" rx="6.34897" ry="8.56903" transform="rotate(19.2727 80.6062 48.5281)" fill="#141414"/>
<ellipse cx="6.34897" cy="9.02003" rx="6.34897" ry="9.02003" transform="matrix(-0.943959 -0.330064 -0.330064 0.943959 65.4688 32.8574)" fill="#141414"/>
<path d="M60.7278 68.6504C58.2131 71.0393 53.9383 76.1943 56.9558 77.703C59.9734 79.2118 62.7396 73.3024 63.7455 70.1592" stroke="#6D0DAE" stroke-width="2.63158" stroke-linecap="round"/>
<defs>
<linearGradient id="paint0_linear_1085_182" x1="33.5702" y1="7.16667" x2="98.4474" y2="119.947" gradientUnits="userSpaceOnUse">
<stop stop-color="#C94AFF"/>
<stop offset="1" stop-color="#8E28E1"/>
</linearGradient>
</defs>
</svg>
