<svg width="662" height="760" viewBox="0 0 662 760" fill="none" xmlns="http://www.w3.org/2000/svg">
<path fill-rule="evenodd" clip-rule="evenodd" d="M333.546 35.3059C333.546 39.5703 335.821 43.5106 339.515 45.642L612.87 203.37C616.562 205.501 621.111 205.5 624.803 203.368L657.619 184.418C657.833 184.294 658.106 184.368 658.23 184.582C658.354 184.796 658.28 185.069 658.066 185.193L625.335 204.094C621.643 206.226 619.369 210.166 619.369 214.428V530.059C619.369 534.325 621.647 538.267 625.343 540.397L661.776 561.4C661.99 561.523 662.064 561.797 661.94 562.011C661.817 562.225 661.543 562.299 661.329 562.175L625.194 541.345C621.504 539.217 616.959 539.218 613.269 541.347L339.515 699.306C335.821 701.437 333.546 705.378 333.546 709.642V759.553C333.546 759.8 333.345 760 333.098 760C332.851 760 332.651 759.8 332.651 759.553V709.986C332.651 705.722 330.375 701.782 326.681 699.65L52.7952 541.615C49.1026 539.485 44.5538 539.486 40.862 541.618L0.671341 564.827C0.457322 564.951 0.183629 564.877 0.060041 564.663C-0.0635364 564.449 0.00976311 564.176 0.223764 564.052L40.2646 540.929C43.9563 538.797 46.2304 534.858 46.2304 530.595V214.486C46.2304 210.22 43.9529 206.278 40.2567 204.148L6.3402 184.596C6.12611 184.473 6.0526 184.199 6.17602 183.985C6.29945 183.771 6.57306 183.697 6.78716 183.821L40.7546 203.402C44.4452 205.529 48.99 205.528 52.6797 203.399L326.681 45.2976C330.375 43.1663 332.651 39.2259 332.651 34.9615V0.447507C332.651 0.200356 332.851 0 333.098 0C333.345 0 333.546 0.200355 333.546 0.447506V35.3059ZM65.9975 527.102C58.0415 531.697 58.0435 543.181 66.0012 547.772L314.752 691.304C322.708 695.895 332.651 690.153 332.651 680.968V634.891C332.651 630.627 330.375 626.687 326.682 624.555L117.863 504.041C114.17 501.91 109.621 501.91 105.929 504.042L65.9975 527.102ZM339.514 624.039C335.821 626.17 333.546 630.11 333.546 634.374V680.623C333.546 689.809 343.488 695.55 351.445 690.959L600.041 547.517C608.002 542.923 607.999 531.433 600.036 526.842L559.921 503.717C556.23 501.589 551.684 501.59 547.995 503.72L339.514 624.039ZM130.775 489.694C122.819 494.288 122.821 505.772 130.778 510.364L314.751 616.539C322.707 621.131 332.651 615.389 332.651 606.204V567.985C332.651 563.717 330.371 559.774 326.673 557.644L175.647 470.661C171.955 468.535 167.411 468.538 163.722 470.668L130.775 489.694ZM339.523 557.3C335.825 559.43 333.546 563.373 333.546 567.641V605.687C333.546 614.872 343.489 620.614 351.445 616.022L535.058 510.055C543.018 505.461 543.015 493.971 535.053 489.381L502.226 470.458C498.538 468.332 493.998 468.331 490.309 470.456L339.523 557.3ZM188.326 456.46C180.366 461.056 180.373 472.547 188.338 477.135L314.76 549.947C322.716 554.53 332.651 548.787 332.651 539.606V508.109C332.651 503.839 330.369 499.894 326.668 497.765L227.498 440.712C223.807 438.589 219.265 438.593 215.578 440.722L188.326 456.46ZM339.528 497.25C335.827 499.379 333.546 503.324 333.546 507.593V539.263C333.546 548.444 343.48 554.186 351.436 549.603L477.597 476.942C485.566 472.352 485.568 460.855 477.601 456.262L450.176 440.452C446.49 438.328 441.951 438.326 438.264 440.447L339.528 497.25ZM47.4981 516.079C47.4981 525.267 57.4446 531.008 65.4007 526.413L105.306 503.369C108.998 501.237 111.272 497.298 111.272 493.035V251.98C111.272 247.714 108.994 243.772 105.298 241.642L65.3928 218.638C57.4367 214.051 47.4981 219.793 47.4981 228.976V516.079ZM559.995 241.827C556.304 243.959 554.03 247.898 554.03 252.161V492.393C554.03 496.659 556.307 500.6 560.003 502.731L600.207 525.907C608.163 530.494 618.101 524.752 618.101 515.569V228.944C618.101 219.757 608.155 214.016 600.199 218.61L559.995 241.827ZM239.958 426.643C231.996 431.241 232.005 442.736 239.975 447.321L314.765 490.347C322.721 494.925 332.651 489.182 332.651 480.004V450.44C332.651 446.172 330.371 442.229 326.672 440.099L277.552 411.812C273.861 409.686 269.316 409.689 265.628 411.819L239.958 426.643ZM339.524 439.755C335.825 441.885 333.546 445.828 333.546 450.096V479.489C333.546 488.667 343.475 494.41 351.431 489.832L425.765 447.068C433.738 442.481 433.743 430.979 425.774 426.386L400.231 411.661C396.543 409.535 392.003 409.534 388.314 411.658L339.524 439.755ZM112.251 478.686C112.251 487.873 122.198 493.614 130.154 489.02L162.888 470.116C166.58 467.984 168.854 464.045 168.854 459.782V285.175C168.854 280.908 166.577 276.967 162.88 274.836L130.146 255.966C122.19 251.379 112.251 257.121 112.251 266.304L112.251 478.686ZM502.711 274.907C499.02 277.039 496.746 280.978 496.746 285.241L496.745 459.37C496.745 463.637 499.023 467.578 502.719 469.709L535.156 488.408C543.112 492.994 553.05 487.252 553.05 478.069V266.51C553.05 257.323 543.104 251.581 535.148 256.176L502.711 274.907ZM169.58 445.58C169.58 454.767 179.526 460.508 187.482 455.913L214.802 440.137C218.494 438.005 220.768 434.066 220.768 429.803V315.101C220.768 310.835 218.49 306.893 214.794 304.763L187.474 289.014C179.518 284.427 169.58 290.169 169.58 299.352V445.58ZM450.499 305.059C446.808 307.191 444.534 311.13 444.534 315.393V429.272C444.534 433.538 446.811 437.48 450.507 439.61L478.125 455.532C486.082 460.118 496.02 454.376 496.02 445.193L496.02 299.444C496.02 290.257 486.074 284.515 478.118 289.11L450.499 305.059ZM289.781 397.871C281.821 402.468 281.828 413.959 289.794 418.546L314.761 432.924C322.717 437.506 332.651 431.763 332.651 422.583V393.787C332.651 384.6 322.704 378.858 314.748 383.453L289.781 397.871ZM333.546 422.239C333.546 431.419 343.48 437.162 351.436 432.58L376.051 418.405C384.02 413.816 384.023 402.318 376.056 397.725L351.44 383.535C343.484 378.948 333.546 384.69 333.546 393.873V422.239ZM221.263 415.733C221.263 424.92 231.209 430.662 239.165 426.067L264.925 411.191C268.617 409.059 270.891 405.12 270.891 400.857V343.996C270.891 339.729 268.614 335.788 264.918 333.657L239.157 318.807C231.201 314.221 221.263 319.963 221.263 329.146V415.733ZM400.674 333.832C396.982 335.964 394.708 339.903 394.708 344.166V400.549C394.708 404.816 396.986 408.757 400.682 410.888L426.144 425.566C434.1 430.152 444.039 424.41 444.039 415.227V329.462C444.039 320.275 434.092 314.534 426.136 319.128L400.674 333.832ZM271.165 386.915C271.165 396.103 281.112 401.844 289.068 397.249L314.201 382.735C322.159 378.14 322.154 366.652 314.193 362.063L289.06 347.574C281.104 342.988 271.165 348.73 271.165 357.913V386.915ZM351.813 362.049C343.855 366.644 343.859 378.132 351.821 382.721L376.54 396.971C384.496 401.557 394.434 395.815 394.434 386.632V358.108C394.434 348.921 384.488 343.179 376.532 347.774L351.813 362.049ZM289.639 326.193C281.67 330.782 281.667 342.28 289.634 346.872L314.756 361.354C322.712 365.941 332.651 360.199 332.651 351.016V322.067C332.651 312.886 322.717 307.144 314.761 311.726L289.639 326.193ZM333.546 350.892C333.546 360.079 343.492 365.82 351.448 361.226L376.142 346.965C384.102 342.369 384.096 330.877 376.13 326.29L351.436 312.069C343.48 307.488 333.546 313.23 333.546 322.411V350.892ZM333.546 294.553C333.546 298.821 335.825 302.765 339.524 304.895L388.372 333.024C392.063 335.15 396.607 335.147 400.296 333.017L425.558 318.429C433.52 313.831 433.511 302.336 425.541 297.751L351.431 255.115C343.475 250.538 333.546 256.281 333.546 265.459V294.553ZM240.035 297.593C232.062 302.18 232.057 313.681 240.026 318.275L265.459 332.937C269.147 335.062 273.687 335.063 277.376 332.939L326.672 304.551C330.371 302.421 332.651 298.478 332.651 294.21V264.944C332.651 255.766 322.721 250.023 314.765 254.6L240.035 297.593ZM333.546 237.355C333.546 241.624 335.827 245.569 339.528 247.698L438.018 304.359C441.709 306.483 446.251 306.479 449.938 304.35L477.598 288.376C485.558 283.78 485.551 272.289 477.586 267.701L351.436 195.046C343.48 190.464 333.546 196.206 333.546 205.387V237.355ZM188.093 267.656C180.124 272.245 180.122 283.742 188.089 288.335L215.624 304.208C219.31 306.333 223.849 306.335 227.536 304.214L326.668 247.183C330.369 245.054 332.651 241.11 332.651 236.84V205.043C332.651 195.862 322.716 190.12 314.76 194.702L188.093 267.656ZM333.546 177.009C333.546 181.277 335.825 185.22 339.523 187.35L490.277 274.175C493.968 276.301 498.513 276.299 502.201 274.168L534.741 255.377C542.697 250.783 542.695 239.3 534.738 234.708L351.445 128.925C343.489 124.334 333.546 130.075 333.546 139.261V177.009ZM130.741 234.605C122.781 239.199 122.784 250.689 130.746 255.279L163.464 274.14C167.151 276.265 171.692 276.266 175.381 274.142L326.673 187.006C330.371 184.876 332.651 180.933 332.651 176.665V138.744C332.651 129.559 322.707 123.817 314.751 128.409L130.741 234.605ZM333.546 110.574C333.546 114.838 335.821 118.778 339.514 120.909L547.653 241.031C551.345 243.162 555.895 243.161 559.587 241.029L599.668 217.883C607.624 213.289 607.622 201.805 599.664 197.213L351.445 53.988C343.488 49.3972 333.546 55.1388 333.546 64.324V110.574ZM65.9075 197.229C57.9463 201.823 57.9487 213.313 65.9117 217.904L105.879 240.943C109.569 243.071 114.115 243.07 117.805 240.94L326.682 120.393C330.375 118.261 332.651 114.321 332.651 110.057V63.9796C332.651 54.7945 322.708 49.0528 314.752 53.6436L65.9075 197.229Z" fill="#D4B8F6" fill-opacity="0.2"/>
</svg>
