<svg width="23" height="19" viewBox="0 0 23 19" fill="none" xmlns="http://www.w3.org/2000/svg">
<path fill-rule="evenodd" clip-rule="evenodd" d="M19.8186 0.129212C20.0904 0.0148016 20.3879 -0.0246576 20.6802 0.0149405C20.9725 0.0545386 21.2488 0.171747 21.4803 0.354365C21.7119 0.536984 21.8903 0.778337 21.997 1.0533C22.1036 1.32827 22.1346 1.6268 22.0868 1.91781L19.592 17.0505C19.35 18.5102 17.7484 19.3473 16.4097 18.6202C15.2899 18.0119 13.6267 17.0747 12.1307 16.0968C11.3827 15.6073 9.09138 14.0398 9.37298 12.9244C9.61498 11.9707 13.465 8.38691 15.665 6.25621C16.5285 5.41911 16.1347 4.93621 15.115 5.70621C12.5828 7.61801 8.51718 10.5253 7.17298 11.3437C5.98718 12.0653 5.36898 12.1885 4.62978 12.0653C3.28118 11.8409 2.03048 11.4933 1.00968 11.0698C-0.369723 10.4978 -0.302623 8.60141 1.00858 8.04921L19.8186 0.129212Z" fill="white"/>
</svg>
