<svg width="1296" height="1488" viewBox="0 0 1296 1488" fill="none" xmlns="http://www.w3.org/2000/svg">
<path fill-rule="evenodd" clip-rule="evenodd" d="M652.984 69.1252C652.984 77.4745 657.439 85.1892 664.67 89.3622L1199.82 398.178C1207.05 402.35 1215.95 402.348 1223.18 398.174L1287.42 361.071C1287.84 360.829 1288.38 360.972 1288.62 361.391C1288.86 361.81 1288.72 362.346 1288.3 362.588L1224.22 399.595C1216.99 403.77 1212.54 411.482 1212.54 419.828V1037.8C1212.54 1046.15 1217 1053.87 1224.24 1058.04L1295.56 1099.16C1295.98 1099.4 1296.12 1099.94 1295.88 1100.36C1295.64 1100.78 1295.11 1100.92 1294.69 1100.68L1223.95 1059.9C1216.72 1055.73 1207.82 1055.73 1200.6 1059.9L664.67 1369.17C657.439 1373.34 652.984 1381.06 652.984 1389.4V1487.12C652.984 1487.61 652.591 1488 652.108 1488C651.624 1488 651.232 1487.61 651.232 1487.12V1390.08C651.232 1381.73 646.776 1374.01 639.545 1369.84L103.357 1060.43C96.1284 1056.25 87.2232 1056.26 79.9958 1060.43L1.31429 1105.87C0.895302 1106.11 0.35949 1105.97 0.117542 1105.55C-0.124386 1105.13 0.0191133 1104.6 0.438063 1104.35L78.8263 1059.08C86.0535 1054.91 90.5054 1047.2 90.5054 1038.85V419.941C90.5054 411.589 86.0467 403.871 78.8107 399.699L12.4122 361.419C11.9931 361.178 11.8492 360.642 12.0908 360.223C12.3325 359.804 12.8681 359.66 13.2873 359.901L79.7854 398.239C87.0105 402.404 95.9079 402.403 103.131 398.234L639.545 88.6879C646.776 84.515 651.232 76.8003 651.232 68.451V0.876171C651.232 0.392276 651.624 0 652.108 0C652.591 0 652.984 0.392274 652.984 0.87617V69.1252ZM129.204 1032.01C113.628 1041.01 113.632 1063.49 129.211 1072.48L616.191 1353.5C631.766 1362.49 651.232 1351.25 651.232 1333.26V1243.05C651.232 1234.7 646.777 1226.99 639.547 1222.81L230.74 986.859C223.511 982.686 214.605 982.688 207.377 986.862L129.204 1032.01ZM664.668 1221.8C657.438 1225.98 652.984 1233.69 652.984 1242.04V1332.59C652.984 1350.57 672.449 1361.81 688.024 1352.83L1174.7 1071.98C1190.29 1062.99 1190.28 1040.49 1174.69 1031.5L1096.16 986.225C1088.93 982.059 1080.03 982.061 1072.81 986.231L664.668 1221.8ZM256.019 958.77C240.444 967.765 240.447 990.248 256.024 999.238L616.189 1207.12C631.765 1216.11 651.232 1204.87 651.232 1186.88V1112.05C651.232 1103.7 646.769 1095.98 639.529 1091.81L343.864 921.505C336.638 917.342 327.741 917.348 320.519 921.518L256.019 958.77ZM664.686 1091.13C657.446 1095.3 652.984 1103.02 652.984 1111.38V1185.87C652.984 1203.86 672.45 1215.1 688.026 1206.11L1047.48 998.635C1063.07 989.64 1063.06 967.144 1047.47 958.157L983.21 921.107C975.991 916.945 967.101 916.943 959.88 921.102L664.686 1091.13ZM368.686 893.7C353.103 902.7 353.116 925.198 368.709 934.179L616.207 1076.74C631.783 1085.71 651.232 1074.47 651.232 1056.49V994.823C651.232 986.463 646.765 978.74 639.519 974.571L445.374 862.868C438.149 858.711 429.256 858.718 422.038 862.887L368.686 893.7ZM664.696 973.563C657.45 977.732 652.984 985.454 652.984 993.814V1055.82C652.984 1073.79 672.433 1085.04 688.008 1076.07L934.994 933.801C950.594 924.816 950.598 902.305 935.001 893.313L881.311 862.359C874.095 858.199 865.21 858.195 857.991 862.349L664.696 973.563ZM92.9872 1010.43C92.9872 1028.42 112.459 1039.66 128.035 1030.66L206.158 985.543C213.385 981.369 217.837 973.657 217.837 965.31V493.351C217.837 484.998 213.378 477.281 206.142 473.109L128.02 428.069C112.444 419.09 92.9872 430.332 92.9872 448.311V1010.43ZM1096.31 473.472C1089.08 477.646 1084.63 485.358 1084.63 493.704V964.053C1084.63 972.406 1089.08 980.123 1096.32 984.295L1175.03 1029.67C1190.6 1038.65 1210.06 1027.41 1210.06 1009.43V448.248C1210.06 430.261 1190.59 419.02 1175.01 428.016L1096.31 473.472ZM469.767 835.322C454.18 844.324 454.198 866.83 469.8 875.807L616.217 960.049C631.793 969.01 651.232 957.767 651.232 939.797V881.914C651.232 873.558 646.769 865.838 639.528 861.667L543.364 806.284C536.138 802.122 527.241 802.128 520.02 806.298L469.767 835.322ZM664.688 860.994C657.446 865.164 652.984 872.885 652.984 881.241V938.788C652.984 956.759 672.423 968.002 687.999 959.04L833.522 875.312C849.131 866.331 849.14 843.812 833.54 834.818L783.533 805.988C776.314 801.827 767.425 801.825 760.205 805.983L664.688 860.994ZM219.755 937.216C219.755 955.204 239.227 966.445 254.803 957.449L318.887 920.438C326.114 916.264 330.566 908.551 330.566 900.205V558.342C330.566 549.989 326.108 542.272 318.872 538.1L254.787 501.154C239.211 492.174 219.754 503.416 219.754 521.395L219.755 937.216ZM984.16 538.24C976.933 542.414 972.481 550.126 972.481 558.472L972.48 899.399C972.48 907.752 976.939 915.469 984.175 919.641L1047.68 956.251C1063.25 965.23 1082.71 953.988 1082.71 936.009V521.798C1082.71 503.811 1063.24 492.57 1047.66 501.565L984.16 538.24ZM331.987 872.398C331.987 890.385 351.459 901.626 367.035 892.631L420.519 861.741C427.746 857.567 432.198 849.855 432.198 841.508V616.935C432.198 608.582 427.739 600.865 420.503 596.693L367.019 565.858C351.443 556.879 331.987 568.121 331.987 586.1V872.398ZM881.944 597.273C874.717 601.447 870.265 609.16 870.265 617.506V840.469C870.265 848.822 874.724 856.539 881.96 860.711L936.028 891.883C951.604 900.863 971.061 889.621 971.061 871.641L971.061 586.279C971.061 568.292 951.589 557.051 936.013 566.047L881.944 597.273ZM567.306 778.99C551.722 787.99 551.736 810.488 567.33 819.469L616.208 847.619C631.784 856.59 651.232 845.347 651.232 827.372V770.993C651.232 753.006 631.759 741.765 616.184 750.761L567.306 778.99ZM652.984 826.699C652.984 844.674 672.431 855.917 688.007 846.946L736.197 819.192C751.798 810.207 751.803 787.696 736.206 778.704L688.016 750.921C672.441 741.941 652.984 753.183 652.984 771.163V826.699ZM433.167 813.962C433.167 831.949 452.639 843.19 468.215 834.195L518.646 805.069C525.873 800.895 530.325 793.183 530.325 784.836V673.507C530.325 665.155 525.866 657.437 518.63 653.266L468.2 624.191C452.624 615.211 433.167 626.453 433.167 644.433V813.962ZM784.401 653.608C777.174 657.782 772.722 665.495 772.722 673.841V784.234C772.722 792.586 777.181 800.304 784.417 804.475L834.264 833.213C849.839 842.193 869.296 830.951 869.296 812.971V645.053C869.296 627.065 849.824 615.824 834.248 624.82L784.401 653.608ZM530.861 757.54C530.861 775.527 550.333 786.768 565.909 777.772L615.112 749.355C630.691 740.358 630.682 717.867 615.096 708.881L565.894 680.514C550.318 671.534 530.861 682.776 530.861 700.756V757.54ZM688.745 708.853C673.166 717.851 673.175 740.342 688.761 749.328L737.154 777.227C752.729 786.207 772.186 774.965 772.186 756.985V701.137C772.186 683.15 752.714 671.909 737.138 680.905L688.745 708.853ZM567.027 638.651C551.426 647.636 551.421 670.148 567.018 679.14L616.199 707.494C631.775 716.473 651.232 705.231 651.232 687.252V630.573C651.232 612.598 631.784 601.355 616.208 610.326L567.027 638.651ZM652.984 687.009C652.984 704.996 672.456 716.237 688.032 707.242L736.376 679.321C751.959 670.321 751.945 647.823 736.351 638.842L688.007 610.999C672.432 602.029 652.984 613.271 652.984 631.246V687.009ZM652.984 576.704C652.984 585.061 657.446 592.781 664.688 596.951L760.316 652.027C767.543 656.188 776.439 656.183 783.661 652.013L833.117 623.45C848.704 614.448 848.686 591.942 833.084 582.965L687.998 499.489C672.423 490.527 652.984 501.771 652.984 519.741V576.704ZM469.917 582.655C454.308 591.636 454.299 614.155 469.899 623.149L519.691 651.855C526.91 656.017 535.799 656.019 543.02 651.86L639.528 596.278C646.769 592.108 651.232 584.388 651.232 576.031V518.733C651.232 500.763 631.793 489.519 616.217 498.481L469.917 582.655ZM652.984 464.715C652.984 473.075 657.45 480.798 664.696 484.967L857.51 595.904C864.735 600.061 873.627 600.053 880.845 595.884L934.996 564.61C950.579 555.611 950.566 533.113 934.973 524.131L688.008 381.88C672.433 372.908 652.984 384.151 652.984 402.126V464.715ZM368.23 524.042C352.63 533.027 352.626 555.538 368.222 564.53L422.129 595.608C429.345 599.768 438.229 599.772 445.449 595.618L639.519 483.959C646.765 479.79 651.232 472.067 651.232 463.707V401.453C651.232 383.478 631.783 372.235 616.207 381.207L368.23 524.042ZM652.984 346.565C652.984 354.921 657.446 362.641 664.686 366.811L959.816 536.806C967.043 540.969 975.94 540.964 983.162 536.793L1046.86 500.002C1062.44 491.007 1062.44 468.524 1046.86 459.533L688.026 252.422C672.45 243.432 652.984 254.674 652.984 272.658V346.565ZM255.953 459.332C240.369 468.326 240.374 490.822 255.963 499.809L320.014 536.736C327.233 540.898 336.123 540.9 343.344 536.741L639.529 366.138C646.769 361.967 651.232 354.248 651.232 345.892V271.647C651.232 253.662 631.765 242.421 616.189 251.411L255.953 459.332ZM652.984 216.492C652.984 224.84 657.438 232.555 664.668 236.728L1072.14 471.913C1079.37 476.086 1088.28 476.085 1095.51 471.91L1173.97 426.593C1189.55 417.597 1189.54 395.113 1173.96 386.123L688.024 105.703C672.449 96.7145 652.984 107.956 652.984 125.94V216.492ZM129.027 386.154C113.442 395.148 113.446 417.645 129.036 426.633L207.279 471.742C214.505 475.908 223.403 475.905 230.627 471.736L639.547 235.716C646.777 231.543 651.232 223.829 651.232 215.481V125.265C651.232 107.282 631.766 96.0402 616.191 105.028L129.027 386.154Z" fill="#F5EEFD" fill-opacity="0.04"/>
</svg>
