<svg width="126" height="126" viewBox="0 0 126 126" fill="none" xmlns="http://www.w3.org/2000/svg">
<path d="M102.647 0C115.319 0.00011545 125.592 10.2733 125.592 22.9453V92.8359C125.592 110.927 110.927 125.593 92.8359 125.593H79.7021L79.7021 125.592L40.2539 125.592L40.2539 125.593H23.3467C10.4525 125.593 0.000174218 115.14 0 102.246C0 89.3518 10.4524 78.8986 23.3467 78.8984L40.2539 78.8984V72.2041C40.2541 54.1134 54.92 39.4482 73.0107 39.4482L79.7021 39.4482L79.7021 22.9453C79.7021 10.2732 89.9754 0 102.647 0Z" fill="url(#paint0_linear_1085_170)"/>
<path d="M60.3509 49.512C67.8818 47.2553 76.2909 51.2587 81.7622 58.8798C83.6648 49.9779 89.5074 43.1147 97.1039 42.0155C107.382 40.5287 116.978 50.1563 118.537 63.5199C120.095 76.8833 113.026 88.9218 102.748 90.4089C96.6919 91.2851 90.873 88.3019 86.7954 82.9696C85.2259 89.2099 81.2824 94.0834 75.6178 95.7808C65.6697 98.7617 54.1873 90.82 49.9715 78.0434C45.756 65.2669 50.4029 52.4929 60.3509 49.512Z" fill="white"/>
<ellipse cx="92.241" cy="63.8119" rx="6.77564" ry="9.14488" transform="rotate(-12.4562 92.241 63.8119)" fill="#141414"/>
<ellipse cx="6.77564" cy="9.62619" rx="6.77564" ry="9.62619" transform="matrix(-0.976461 0.215693 0.215693 0.976461 67.0625 58.7344)" fill="#141414"/>
<path d="M94.5983 98.623C97.4161 102.648 94.5983 111.504 85.3398 106.271" stroke="#AD081C" stroke-width="2.80769" stroke-linecap="round"/>
<defs>
<linearGradient id="paint0_linear_1085_170" x1="62.796" y1="0" x2="62.796" y2="125.593" gradientUnits="userSpaceOnUse">
<stop stop-color="#FF094B"/>
<stop offset="1" stop-color="#F65D42"/>
</linearGradient>
</defs>
</svg>
