<svg width="30" height="30" viewBox="0 0 30 30" fill="none" xmlns="http://www.w3.org/2000/svg">
<path d="M26.2538 0.642639C27.1107 -0.21427 28.5004 -0.214151 29.3574 0.642639C30.2143 1.49961 30.2143 2.88919 29.3574 3.74615L18.1035 15.0001L29.3486 26.2452C30.2053 27.102 30.2052 28.4917 29.3486 29.3487C28.4916 30.2057 27.102 30.2056 26.2451 29.3487L14.9999 18.1036L3.7558 29.3487C2.89886 30.2057 1.50922 30.2057 0.652281 29.3487C-0.204498 28.4917 -0.204606 27.1021 0.652281 26.2452L11.8964 15.0001L0.642515 3.74615C-0.214148 2.88922 -0.214196 1.49955 0.642515 0.642639C1.4994 -0.214271 2.88908 -0.214155 3.74603 0.642639L14.9999 11.8965L26.2538 0.642639Z" fill="#9648E7"/>
</svg>
