<svg width="23" height="24" viewBox="0 0 23 24" fill="none" xmlns="http://www.w3.org/2000/svg">
<path fill-rule="evenodd" clip-rule="evenodd" d="M20.4552 13.9813C19.7862 13.5923 18.6892 13.3333 17.8512 12.9843H17.7912C18.0277 11.589 17.956 10.1589 17.5812 8.79431C17.0932 7.26731 16.0552 6.41931 14.4092 6.86831C14.1113 6.9451 13.8434 7.10994 13.6405 7.34132C13.4377 7.5727 13.3094 7.85986 13.2722 8.16531C13.2462 9.14531 13.3642 10.1223 13.6212 11.0683C13.8242 12.0283 13.8242 13.0213 13.6212 13.9813C13.5059 14.4159 13.3019 14.8219 13.0221 15.1738C12.7422 15.5258 12.3926 15.816 11.9952 16.0263C11.5093 16.2705 10.9467 16.3136 10.4292 16.1463C9.84027 15.9928 9.30067 15.6905 8.86223 15.2683C8.43615 14.9397 7.91669 14.7548 7.37877 14.7404C6.84085 14.726 6.31227 14.8829 5.86923 15.1883C5.69898 15.299 5.55413 15.4445 5.44426 15.6153C5.33439 15.7861 5.26199 15.9782 5.23185 16.1791C5.2017 16.3799 5.21449 16.5848 5.26937 16.7803C5.32425 16.9759 5.41998 17.1575 5.55023 17.3133C6.07514 18.1696 6.75109 18.9235 7.54523 19.5383C8.34306 20.0871 9.18766 20.5646 10.0692 20.9653C10.4252 21.1443 10.7232 21.4213 10.9272 21.7633C11.1472 22.3873 11.2772 23.0383 11.3172 23.6983C11.332 23.7883 11.3804 23.8693 11.4526 23.925C11.5248 23.9806 11.6155 24.0069 11.7062 23.9983C11.7955 23.9833 11.8754 23.9343 11.9293 23.8615C11.9832 23.7888 12.0068 23.6981 11.9952 23.6083C11.9737 22.8688 11.8457 22.1363 11.6152 21.4333C11.3648 20.9527 10.9848 20.5519 10.5182 20.2763C9.68252 19.8752 8.8875 19.3943 8.14423 18.8403C7.46978 18.2787 6.89912 17.6032 6.45823 16.8443C6.41005 16.7779 6.37934 16.7004 6.3689 16.619C6.35847 16.5376 6.36865 16.4548 6.39851 16.3784C6.42838 16.3019 6.47696 16.2342 6.53982 16.1814C6.60267 16.1287 6.67777 16.0925 6.75823 16.0763C6.95438 15.9797 7.17214 15.9354 7.39042 15.9477C7.60871 15.96 7.82014 16.0284 8.00423 16.1463C8.5811 16.7313 9.2993 17.1574 10.0892 17.3833C10.5113 17.5144 10.9552 17.5607 11.3952 17.5195C11.8353 17.4783 12.2628 17.3505 12.6532 17.1433C13.5286 16.6669 14.2281 15.9225 14.6492 15.0193C15.1419 13.6837 15.2217 12.2308 14.8782 10.8493C14.6749 10.1253 14.5286 9.39031 14.4392 8.64431C14.4392 8.34431 14.4392 8.06531 14.7492 7.97531C16.0552 7.56631 16.6342 8.68431 16.8632 10.1103C17.1377 12.2259 16.8131 14.3761 15.9262 16.3163C15.8749 16.4039 15.8598 16.5081 15.884 16.6067C15.9083 16.7053 15.9701 16.7905 16.0562 16.8443C16.1454 16.8962 16.2511 16.9116 16.3513 16.8874C16.4516 16.8632 16.5386 16.8012 16.5942 16.7143C17.1205 15.7854 17.4848 14.7736 17.6712 13.7223C18.1912 14.0213 18.7492 14.2903 19.2482 14.5703L18.8382 15.1983C18.7482 15.3463 18.6686 15.4996 18.5992 15.6583C18.5192 15.8173 18.4592 15.9763 18.3892 16.1363C18.2302 16.5363 18.1102 16.9243 17.9412 17.2933C17.9051 17.3347 17.8782 17.3833 17.8622 17.4358C17.8462 17.4884 17.8414 17.5437 17.8483 17.5982C17.8551 17.6527 17.8734 17.7052 17.9019 17.7521C17.9305 17.799 17.9686 17.8394 18.0138 17.8706C18.059 17.9018 18.1103 17.9231 18.1644 17.9331C18.2184 17.943 18.2739 17.9415 18.3273 17.9285C18.3806 17.9156 18.4307 17.8915 18.4741 17.8578C18.5175 17.8242 18.5534 17.7818 18.5792 17.7333C18.9006 17.4226 19.1966 17.09 19.4672 16.7353C19.6943 16.4227 19.8695 16.0756 19.9862 15.7073C20.0362 15.5073 20.0362 15.3183 20.0662 15.1183C20.3211 15.3357 20.5102 15.62 20.6123 15.939C20.7144 16.2581 20.7255 16.5993 20.6442 16.9243C20.418 17.7656 20.0829 18.5738 19.6472 19.3283C18.8477 20.5776 18.3332 21.9877 18.1402 23.4583C18.1375 23.5627 18.1757 23.6641 18.2467 23.7407C18.3177 23.8173 18.4159 23.8631 18.5202 23.8683C18.6217 23.8705 18.72 23.8331 18.7943 23.764C18.8686 23.695 18.9131 23.5996 18.9182 23.4983C19.0182 22.3513 19.9162 21.1443 20.6742 19.9083C21.2657 19.0594 21.7046 18.1139 21.9712 17.1143C22.1037 16.4978 22.0265 15.8548 21.7518 15.2872C21.4772 14.7196 21.0208 14.26 20.4552 13.9813Z" fill="#232323"/>
<path fill-rule="evenodd" clip-rule="evenodd" d="M10.7572 3.81531C10.9959 3.73197 11.2389 3.66531 11.4862 3.61531C11.6862 3.61531 11.8852 3.61531 12.0752 3.54531C12.2699 3.51997 12.4626 3.48364 12.6532 3.43631L13.8012 3.19631L13.5212 3.61631L12.6532 4.92331C12.6205 4.96576 12.597 5.0145 12.5839 5.06647C12.5709 5.11845 12.5687 5.17255 12.5776 5.22541C12.5864 5.27826 12.606 5.32873 12.6352 5.37367C12.6643 5.4186 12.7025 5.45705 12.7472 5.48659C12.7919 5.51614 12.8422 5.53616 12.895 5.5454C12.9477 5.55464 13.0019 5.55291 13.0539 5.54031C13.106 5.52771 13.155 5.50451 13.1977 5.47217C13.2404 5.43982 13.276 5.39902 13.3022 5.35231L14.9882 3.69531C15.2322 3.42331 15.4372 3.11731 15.5962 2.78831C15.6485 2.67214 15.6756 2.5462 15.6756 2.41881C15.6756 2.29141 15.6485 2.16547 15.5962 2.04931C15.4419 1.78144 15.2351 1.54745 14.9882 1.36131C14.6976 1.16597 14.3982 0.986307 14.0902 0.822307L12.9922 0.0943068C12.9274 0.0337091 12.842 0 12.7532 0C12.6645 0 12.5791 0.0337091 12.5142 0.0943068C12.451 0.157993 12.4156 0.244081 12.4156 0.333807C12.4156 0.423532 12.451 0.50962 12.5142 0.573307L13.4112 1.57131L14.0102 2.19931C13.68 2.14513 13.3467 2.11173 13.0122 2.09931C12.7918 2.09634 12.5716 2.11308 12.3542 2.14931C12.1316 2.18464 11.9156 2.24464 11.7062 2.32931C11.2198 2.54701 10.7769 2.85129 10.3992 3.22731C10.3598 3.25052 10.3254 3.28149 10.2983 3.31835C10.2711 3.3552 10.2517 3.39717 10.2412 3.44173C10.2307 3.48629 10.2293 3.53252 10.2372 3.57762C10.245 3.62272 10.2619 3.66576 10.2869 3.70415C10.3118 3.74255 10.3443 3.77549 10.3823 3.80099C10.4203 3.8265 10.4631 3.84404 10.5081 3.85255C10.5531 3.86107 10.5993 3.86039 10.644 3.85055C10.6887 3.84071 10.731 3.82192 10.7682 3.79531L10.7572 3.81531ZM3.77423 7.70631C4.34211 7.45973 4.93391 7.2724 5.54023 7.14731H5.67023L5.73023 7.35731C5.93023 7.93531 6.15923 8.48431 6.37823 9.05331C6.38309 9.10907 6.39993 9.16313 6.42759 9.21179C6.45525 9.26045 6.49309 9.30256 6.53852 9.33526C6.58395 9.36796 6.6359 9.39047 6.69083 9.40125C6.74575 9.41203 6.80236 9.41084 6.85678 9.39774C6.9112 9.38465 6.96215 9.35996 7.00616 9.32537C7.05016 9.29078 7.08619 9.2471 7.11177 9.19731C7.13735 9.14753 7.15188 9.09281 7.15438 9.03689C7.15687 8.98097 7.14728 8.92517 7.12623 8.87331C7.05723 8.22531 7.00723 7.62631 6.91723 6.99931V6.70931C7.57723 6.48931 8.21523 6.23031 8.83323 5.98131C8.88323 5.96852 8.93019 5.94593 8.9714 5.91486C9.01261 5.88378 9.04723 5.84484 9.07328 5.80029C9.09932 5.75573 9.11627 5.70645 9.12312 5.6553C9.12998 5.60415 9.12662 5.55215 9.11323 5.50231C9.08304 5.40438 9.01641 5.32178 8.9271 5.27155C8.83779 5.22131 8.7326 5.20726 8.63323 5.23231C8.00523 5.32231 7.34723 5.36231 6.63823 5.49231H6.55823C6.34923 4.90431 6.08023 4.37531 5.83023 3.80631C5.82092 3.76242 5.80274 3.7209 5.77683 3.68427C5.75092 3.64764 5.71782 3.61668 5.67954 3.59328C5.64126 3.56989 5.59861 3.55454 5.5542 3.54818C5.50978 3.54182 5.46454 3.54459 5.42123 3.55631C5.3734 3.56625 5.32828 3.58638 5.28893 3.61533C5.24958 3.64428 5.21694 3.68137 5.19321 3.72407C5.16949 3.76678 5.15525 3.81409 5.15145 3.86279C5.14766 3.9115 5.15441 3.96045 5.17123 4.00631C5.23123 4.61431 5.25123 5.21331 5.35123 5.82131C4.61717 6.14334 3.94791 6.5964 3.37623 7.15831C3.33785 7.18363 3.30501 7.21647 3.27968 7.25485C3.25436 7.29322 3.23708 7.33634 3.22889 7.38158C3.22071 7.42683 3.22178 7.47326 3.23206 7.51808C3.24233 7.5629 3.26159 7.60517 3.28866 7.64233C3.31574 7.67949 3.35007 7.71078 3.38959 7.73429C3.4291 7.7578 3.47297 7.77306 3.51855 7.77913C3.56412 7.78521 3.61046 7.78197 3.65475 7.76963C3.69904 7.75728 3.74037 7.73608 3.77623 7.70731M5.31123 13.4423C5.2975 13.3933 5.27406 13.3475 5.24229 13.3077C5.21052 13.2679 5.17107 13.2349 5.1263 13.2106C5.08152 13.1864 5.03233 13.1714 4.98164 13.1665C4.93096 13.1617 4.87981 13.167 4.83123 13.1823C4.41323 13.2623 4.01423 13.2923 3.61523 13.3823C3.41768 13.4308 3.22412 13.4943 3.03623 13.5723L2.92623 13.6223C2.93024 13.5824 2.93024 13.5422 2.92623 13.5023C3.07623 13.1333 3.26623 12.7843 3.41623 12.4253C3.6269 11.8473 3.8859 11.292 4.19323 10.7593C4.22413 10.7267 4.24825 10.6883 4.26418 10.6464C4.28012 10.6044 4.28757 10.5597 4.28608 10.5148C4.2846 10.4699 4.27422 10.4258 4.25554 10.385C4.23687 10.3442 4.21027 10.3075 4.17729 10.277C4.14431 10.2465 4.10561 10.2229 4.06343 10.2075C4.02126 10.1922 3.97644 10.1853 3.9316 10.1874C3.88675 10.1895 3.84276 10.2004 3.80219 10.2196C3.76161 10.2388 3.72526 10.2659 3.69523 10.2993C3.21975 10.6473 2.79908 11.0646 2.44723 11.5373C2.30512 11.7489 2.18166 11.9724 2.07823 12.2053C1.98615 12.4432 1.90933 12.6867 1.84823 12.9343V13.0543C1.76923 12.9443 1.70923 12.8243 1.62923 12.7043C1.31023 12.2253 0.961234 11.7663 0.632234 11.3073C0.611378 11.2678 0.582707 11.2329 0.54796 11.2048C0.513213 11.1766 0.473115 11.1559 0.430098 11.1437C0.387082 11.1316 0.342044 11.1283 0.297717 11.134C0.253391 11.1398 0.210699 11.1545 0.172234 11.1773C0.0938619 11.2235 0.0365636 11.2984 0.0124829 11.3862C-0.0115978 11.4739 -0.000568252 11.5676 0.0432339 11.6473L1.09123 14.2403C1.18657 14.5003 1.29957 14.7533 1.43023 14.9993C1.49433 15.1059 1.58494 15.1941 1.69324 15.2552C1.80155 15.3164 1.92385 15.3485 2.04823 15.3483C2.28423 15.3363 2.51323 15.2683 2.71723 15.1483C3.01723 14.9783 3.31523 14.6993 3.53523 14.5503C3.7019 14.4456 3.8749 14.3523 4.05423 14.2703C4.38323 14.1503 4.70223 14.0503 5.05123 13.9213C5.14853 13.8912 5.23021 13.8243 5.27879 13.7348C5.32738 13.6453 5.33902 13.5403 5.31123 13.4423Z" fill="#8F58FA"/>
</svg>
