<svg width="398" height="398" viewBox="0 0 398 398" fill="none" xmlns="http://www.w3.org/2000/svg">
<path d="M324.696 0C364.779 0.00019851 397.274 32.4944 397.274 72.5781V303.362C397.274 355.227 355.229 397.272 303.364 397.272H252.117V397.26H127.333L127.333 218.682C127.333 166.817 169.379 124.772 221.244 124.772H252.117V72.5781C252.117 32.4942 284.612 0 324.696 0ZM127.331 397.263H73.8523C33.065 397.263 0 364.198 0 323.41C0.000154789 282.623 33.0651 249.559 73.8523 249.559H127.331L127.331 397.263Z" fill="url(#paint0_radial_1327_292)"/>
<path d="M190.891 156.629C214.71 149.491 241.308 162.149 258.615 186.25C264.637 158.097 283.118 136.393 307.144 132.917C339.656 128.214 370.008 158.669 374.938 200.94C379.867 243.212 357.507 281.292 324.996 285.995C305.843 288.766 287.44 279.335 274.542 262.475C269.575 282.208 257.097 297.615 239.183 302.983C207.715 312.413 171.395 287.294 158.06 246.88C144.724 206.465 159.424 166.058 190.891 156.629Z" fill="white"/>
<path d="M312.681 197.236C316.127 212.835 309.551 227.551 297.993 230.104C286.434 232.658 274.271 222.081 270.825 206.481C267.379 190.882 273.956 176.166 285.514 173.613C297.072 171.059 309.235 181.636 312.681 197.236Z" fill="#141414"/>
<path d="M176.809 224.765C180.437 241.186 192.747 252.428 204.305 249.875C215.863 247.322 222.293 231.941 218.665 215.52C215.038 199.099 202.728 187.857 191.17 190.41C179.611 192.963 173.182 208.345 176.809 224.765Z" fill="#141414"/>
<path d="M296.933 308.645C298.754 307.37 301.264 307.813 302.538 309.634C307.979 317.407 307.966 329.477 302.171 337.397C299.15 341.526 294.564 344.511 288.553 345.132C282.648 345.742 275.757 344.037 267.975 339.639C266.04 338.545 265.358 336.09 266.451 334.155C267.545 332.22 270 331.538 271.935 332.631C278.796 336.509 284.002 337.51 287.726 337.126C291.345 336.752 293.921 335.041 295.675 332.644C299.429 327.513 299.416 319.21 295.944 314.25C294.67 312.429 295.112 309.919 296.933 308.645Z" fill="#AD081C"/>
<defs>
<radialGradient id="paint0_radial_1327_292" cx="0" cy="0" r="1" gradientTransform="matrix(-223.337 214.007 -214.007 -223.337 269.704 245.234)" gradientUnits="userSpaceOnUse">
<stop stop-color="#FFBEC0"/>
<stop offset="0.6875" stop-color="#F65D42"/>
<stop offset="1" stop-color="#FF094B"/>
</radialGradient>
</defs>
</svg>
