<svg width="70" height="81" viewBox="0 0 70 81" fill="none" xmlns="http://www.w3.org/2000/svg">
<g filter="url(#filter0_ii_2383_2742)">
<path d="M3.83217 18.3229L29.7735 2.48963C32.2858 0.95625 35.4372 0.926216 37.9782 2.41144L65.2398 18.3455C67.6942 19.7801 69.2029 22.4094 69.2029 25.2523V54.9998C69.2029 57.8427 67.6942 60.472 65.2398 61.9066L37.9782 77.8407C35.4372 79.3259 32.2858 79.2959 29.7735 77.7625L3.83218 61.9292C1.45199 60.4764 0 57.8891 0 55.1006V25.1515C0 22.363 1.45199 19.7757 3.83217 18.3229Z" fill="#9648E7"/>
</g>
<path d="M59.0612 39.3685C59.1657 42.4465 58.045 43.598 55.9783 44.5037C55.793 44.585 55.6028 44.6552 55.4175 44.7121C54.9919 44.8427 54.5687 44.5904 54.39 44.1827L54.3256 44.0357C54.0465 43.3989 54.529 42.523 55.1658 42.2439C55.9754 41.8891 56.4091 41.1403 56.3791 40.0867L56.3711 39.8217C56.3416 38.8406 55.9014 37.9171 55.158 37.2762L48.3362 31.3957C47.6117 30.7711 47.787 29.6044 48.6631 29.2204C49.1226 29.0191 49.6569 29.1 50.036 29.4284L56.1851 34.7543C56.2007 34.7678 56.2226 34.7711 56.2415 34.7628C56.2615 34.7541 56.2741 34.7341 56.2735 34.7123L56.0461 26.8968C56.0303 26.3526 56.3464 25.8532 56.8451 25.6347C57.7131 25.2542 58.6902 25.8738 58.7163 26.8213L59.0612 39.3685Z" fill="#F5EEFD"/>
<path d="M42.3945 28.0442C42.0774 27.3205 42.4069 26.4768 43.1306 26.1597C43.8542 25.8425 44.698 26.1721 45.0151 26.8957L50.7387 39.9558C51.0559 40.6795 50.7263 41.5232 50.0027 41.8403C49.2791 42.1575 48.4353 41.8279 48.1182 41.1043L42.3945 28.0442Z" fill="#F5EEFD"/>
<path d="M41.6827 32.2801C42.4064 31.9629 43.2501 32.2925 43.5672 33.0161L47.2741 41.4743C47.5912 42.1979 47.2617 43.0417 46.538 43.3588C45.8144 43.6759 44.9707 43.3464 44.6535 42.6228L40.9467 34.1646C40.6295 33.4409 40.9591 32.5972 41.6827 32.2801ZM40.9243 31.4188C40.3419 31.674 39.6628 31.4088 39.4075 30.8263C39.1522 30.2439 39.4175 29.5648 39.9999 29.3095L40.6391 29.0294C41.2215 28.7742 41.9006 29.0394 42.1559 29.6219C42.4111 30.2043 42.1459 30.8834 41.5635 31.1387L40.9243 31.4188Z" fill="#F5EEFD"/>
<path d="M34.8033 34.9887C37.0691 33.9957 38.9874 34.2105 40.1903 35.5348C40.7215 36.1196 40.3674 36.9947 39.6437 37.3119C38.9201 37.629 38.1012 37.1757 37.3687 36.8796C36.8861 36.6844 36.2927 36.7233 35.6384 37.0101C34.5305 37.4956 34.1034 38.3177 34.4956 39.2125C35.4293 41.343 41.2951 36.9945 43.0692 41.0425C44.0309 43.2369 42.896 45.2835 40.0198 46.544C37.4871 47.654 35.3685 47.4038 34.074 45.9154C33.5556 45.3193 33.9083 44.4478 34.6319 44.1306C35.3555 43.8135 36.1689 44.2423 36.8673 44.6117C37.4709 44.931 38.2545 44.905 39.1328 44.52C40.3685 43.9785 40.8501 43.1071 40.4486 42.191C39.4776 39.9752 33.7145 44.5581 31.8564 40.3183C30.9227 38.1878 32.0123 36.2119 34.8033 34.9887Z" fill="#F5EEFD"/>
<path d="M28.5632 51.5658C26.1344 52.6303 24.0589 52.0668 23.1999 50.1067C22.4062 48.2958 23.6345 46.4623 26.1587 44.7464C27.6898 43.7199 28.5231 42.8975 28.1216 41.9814C27.7014 41.0227 26.713 40.7955 25.4773 41.3371C24.6919 41.6813 24.1763 42.1529 23.9587 42.6952C23.6645 43.4285 23.4286 44.3429 22.7049 44.6601C21.9813 44.9772 21.0951 44.6427 21.0443 43.8543C20.931 42.0995 22.1437 40.5377 24.5185 39.4969C27.5012 38.1897 29.8271 38.745 30.8169 41.0034L33.6783 47.5326C33.975 48.2097 33.6667 48.999 32.9897 49.2958L32.0147 49.723C31.6873 49.8666 31.3136 49.6562 31.2663 49.3018L31.1785 48.6426C31.1752 48.6182 31.1495 48.6038 31.127 48.6136C31.1152 48.6188 31.107 48.6297 31.1051 48.6424C30.9325 49.8245 29.9613 50.9531 28.5632 51.5658ZM25.7271 48.7452C26.1192 49.64 27.0837 49.9285 28.149 49.4616C29.8108 48.7333 30.3905 47.1586 29.6249 45.4116C29.4142 44.9308 28.6272 44.8891 28.2478 45.2519C27.9722 45.5155 27.632 45.7926 27.2145 46.1124C25.9151 47.0882 25.3629 47.9143 25.7271 48.7452Z" fill="#F5EEFD"/>
<path d="M20.9717 50.3214C21.7912 49.9622 22.7564 50.4542 22.661 51.3439C22.4595 53.2223 21.1682 54.8067 18.9925 55.7603C15.6049 57.2449 12.6285 55.9587 11.0225 52.2942C9.4259 48.651 10.5162 45.6335 13.925 44.1395C17.206 42.7016 20.0505 43.9186 21.5818 47.4126C21.7675 47.8362 21.5746 48.3301 21.151 48.5158L17.4814 50.124C15.6354 50.933 14.7661 53.6733 16.7557 53.9951C17.2585 54.0764 17.7853 54.0035 18.3226 53.7681C19.2037 53.3819 19.7659 52.7237 19.9355 51.9045C20.07 51.2544 20.3636 50.5878 20.9717 50.3214ZM13.5019 47.1773C12.8171 48.5281 14.6623 49.4292 16.0495 48.8213C17.3615 48.2463 18.0036 46.4265 16.6594 45.9311C16.0712 45.7143 15.4194 45.745 14.7347 46.0451C14.1678 46.2935 13.7546 46.6789 13.5019 47.1773Z" fill="#F5EEFD"/>
<defs>
<filter id="filter0_ii_2383_2742" x="-2" y="-0.681885" width="73.2031" height="81.6157" filterUnits="userSpaceOnUse" color-interpolation-filters="sRGB">
<feFlood flood-opacity="0" result="BackgroundImageFix"/>
<feBlend mode="normal" in="SourceGraphic" in2="BackgroundImageFix" result="shape"/>
<feColorMatrix in="SourceAlpha" type="matrix" values="0 0 0 0 0 0 0 0 0 0 0 0 0 0 0 0 0 0 127 0" result="hardAlpha"/>
<feOffset dx="2" dy="2"/>
<feGaussianBlur stdDeviation="10"/>
<feComposite in2="hardAlpha" operator="arithmetic" k2="-1" k3="1"/>
<feColorMatrix type="matrix" values="0 0 0 0 0.917647 0 0 0 0 0.866667 0 0 0 0 0.984314 0 0 0 1 0"/>
<feBlend mode="normal" in2="shape" result="effect1_innerShadow_2383_2742"/>
<feColorMatrix in="SourceAlpha" type="matrix" values="0 0 0 0 0 0 0 0 0 0 0 0 0 0 0 0 0 0 127 0" result="hardAlpha"/>
<feOffset dx="-2" dy="-2"/>
<feGaussianBlur stdDeviation="10"/>
<feComposite in2="hardAlpha" operator="arithmetic" k2="-1" k3="1"/>
<feColorMatrix type="matrix" values="0 0 0 0 0.917647 0 0 0 0 0.866667 0 0 0 0 0.984314 0 0 0 1 0"/>
<feBlend mode="normal" in2="effect1_innerShadow_2383_2742" result="effect2_innerShadow_2383_2742"/>
</filter>
</defs>
</svg>
