<svg width="157" height="182" viewBox="0 0 157 182" fill="none" xmlns="http://www.w3.org/2000/svg">
<g filter="url(#filter0_ii_2472_1138)">
<path d="M7.66435 42.1803L68.6145 4.97927C73.6391 1.9125 79.9418 1.85243 85.0239 4.82288L149.016 42.2255C153.925 45.0946 156.942 50.3532 156.942 56.039V125.961C156.942 131.647 153.925 136.905 149.016 139.775L85.024 177.177C79.9418 180.148 73.6391 180.088 68.6145 177.021L7.66436 139.82C2.90398 136.914 0 131.74 0 126.163V55.8374C0 50.2604 2.90398 45.0858 7.66435 42.1803Z" fill="#EA9400"/>
</g>
<path d="M129.682 80.777C130.266 87.7372 127.857 90.4718 123.278 92.7562C122.789 93.0002 122.283 93.2098 121.796 93.3736C120.98 93.6481 120.14 93.2014 119.755 92.4311L119.394 91.7074C118.731 90.377 119.67 88.4658 121.007 87.8158C121.066 87.7873 121.124 87.7585 121.183 87.7293C122.977 86.8343 123.875 85.0893 123.688 82.7063L123.431 79.502C123.387 78.943 123.109 78.4284 122.667 78.0837L103.303 63.0028C102.142 62.0985 102.322 60.2923 103.639 59.6353L105.522 58.6961C106.212 58.3515 107.039 58.4351 107.647 58.9107L122.647 70.6499C122.684 70.6787 122.734 70.6838 122.776 70.6629C122.82 70.6408 122.847 70.5942 122.843 70.5449L121.392 52.1761C121.328 51.3633 121.763 50.593 122.493 50.229L124.481 49.2369C125.751 48.6033 127.259 49.4572 127.368 50.8723L129.682 80.777Z" fill="#FFFDEA"/>
<path d="M90.0921 55.8927C89.599 54.9043 90.0005 53.7033 90.9889 53.2102L93.2158 52.0991C94.2042 51.606 95.4052 52.0075 95.8983 52.9959L111.446 84.1594C111.939 85.1478 111.538 86.3488 110.549 86.8419L108.322 87.9529C107.334 88.446 106.133 88.0445 105.64 87.0562L90.0921 55.8927Z" fill="#FFFDEA"/>
<path d="M90.6279 66.1253C91.6163 65.6322 92.8172 66.0337 93.3104 67.0221L103.771 87.9893C104.264 88.9777 103.863 90.1787 102.874 90.6718L100.647 91.7829C99.6591 92.276 98.4581 91.8745 97.965 90.8861L87.5042 69.9189C87.0111 68.9305 87.4126 67.7295 88.4009 67.2364L90.6279 66.1253ZM87.1524 65.0884C86.164 65.5815 84.963 65.18 84.4699 64.1916L83.9241 63.0976C83.431 62.1092 83.8325 60.9082 84.8209 60.4151L87.331 59.1628C88.3194 58.6697 89.5204 59.0712 90.0135 60.0595L90.5594 61.1536C91.0525 62.1419 90.651 63.3429 89.6626 63.8361L87.1524 65.0884Z" fill="#FFFDEA"/>
<path d="M74.2406 73.5918C79.7633 70.8364 84.4981 71.4395 87.3211 75.159C87.9888 76.0388 87.5682 77.2596 86.5798 77.7527L84.3528 78.8637C83.3645 79.3568 82.2049 78.8828 81.3457 78.1886C80.0714 77.159 78.3159 77.1003 76.3599 78.0761C73.9053 79.3008 73.0307 81.211 74.0199 83.1936C76.375 87.9141 89.1711 77.4031 93.6457 86.3721C96.0715 91.2342 93.7317 95.9977 87.3591 99.1771C81.2379 102.231 76.0506 101.564 73.0198 97.4737C72.3622 96.5862 72.7812 95.3667 73.7696 94.8736L75.9965 93.7625C76.9849 93.2694 78.1487 93.7289 78.969 94.4687C80.4796 95.8312 82.6615 95.9201 85.1217 94.6927C87.8596 93.3267 88.8522 91.2986 87.8396 89.2688C85.3903 84.3595 72.8532 95.3897 68.1666 85.996C65.8115 81.2755 68.0567 76.677 74.2406 73.5918Z" fill="#FFFDEA"/>
<path d="M61.9767 111.843C56.5954 114.528 51.8307 113.486 49.664 109.143C47.6621 105.131 50.2374 100.839 55.7616 96.6682C59.1139 94.1703 60.9086 92.2137 59.8959 90.1839C58.8361 88.0597 56.5716 87.6567 53.8337 89.0226C51.5437 90.1651 50.3368 91.7547 50.3442 93.4916C50.349 94.5962 50.0307 95.8132 49.0423 96.3064L46.8154 97.4174C45.827 97.9105 44.5965 97.5124 44.3106 96.4455C43.1252 92.0233 45.6556 87.8558 51.4545 84.9627C58.0631 81.6656 63.3941 82.6611 65.8905 87.6648L73.5702 103.058C74.0633 104.046 73.6618 105.247 72.6734 105.74L69.5868 107.28C68.8612 107.642 67.9911 107.208 67.8441 106.41L67.5708 104.927C67.5607 104.872 67.5008 104.843 67.4509 104.867C67.4249 104.88 67.4075 104.906 67.4047 104.935C67.1468 107.632 65.0744 110.298 61.9767 111.843ZM55.2347 105.774C56.2238 107.757 58.441 108.301 60.8012 107.124C64.4832 105.287 65.6188 101.655 63.6876 97.7839C63.1561 96.7187 61.3688 96.713 60.5504 97.5776C59.9559 98.2056 59.2165 98.8718 58.307 99.643C55.4739 102 54.3162 103.933 55.2347 105.774Z" fill="#FFFDEA"/>
<path d="M45.9722 109.216C47.0978 108.654 48.4722 109.265 48.5673 110.519C48.9381 115.412 46.1424 119.743 40.7706 122.423C33.2651 126.167 26.3784 123.59 22.3276 115.47C18.3004 107.398 20.4298 100.441 27.9825 96.6725C35.2521 93.0456 41.8322 95.4814 45.6945 103.223C46.1628 104.161 45.7815 105.302 44.843 105.77L31.0712 112.641C30.0407 113.155 29.6425 114.446 30.3472 115.357C32.8264 118.561 35.909 119.542 39.0287 117.986C41.3103 116.848 42.5634 114.917 42.5413 112.608C42.5323 111.675 42.93 110.733 43.7651 110.317L45.9722 109.216ZM26.9596 107.725C27.1476 108.918 28.4813 109.453 29.562 108.913L36.7851 105.31C37.8073 104.8 38.2151 103.517 37.4846 102.638C35.4443 100.185 32.8118 99.5101 30.0314 100.897C27.5211 102.15 26.4626 104.572 26.9596 107.725Z" fill="#FFFDEA"/>
<path d="M55.6046 132.581L53.7496 133.477L53.0277 131.982C50.0964 133.086 47.7008 132.311 46.5005 129.826C45.2829 127.304 46.1737 124.964 48.8615 123.355L48.1396 121.86L49.9946 120.964L50.7165 122.459C53.6298 121.363 56.0073 122.147 57.2163 124.651C58.4079 127.118 57.5524 129.486 54.8827 131.086L55.6046 132.581ZM48.8058 128.712C49.4842 130.117 50.6935 130.644 52.1753 130.217L49.7139 125.12C48.4582 126.015 48.1187 127.29 48.8058 128.712ZM54.0216 129.303C55.2413 128.425 55.5808 127.151 54.9111 125.764C54.2327 124.359 53.0234 123.833 51.5689 124.224L54.0216 129.303ZM62.4881 116.308L64.7033 115.238L69.2261 124.603L67.0109 125.673L64.0537 119.549L64.0356 119.558L62.5805 127.812L60.3653 128.882L55.8425 119.517L58.0577 118.447L61.0149 124.571L61.0509 124.553L62.4881 116.308ZM72.5175 123.013L70.3023 124.083L65.7795 114.718L67.9947 113.648L69.8386 117.466L73.8007 115.553L71.9568 111.735L74.172 110.665L78.6948 120.03L76.4796 121.1L74.6357 117.282L70.6736 119.195L72.5175 123.013ZM83.0648 118.208C81.0117 119.2 79.2105 118.782 78.4103 117.125C77.671 115.594 78.6682 113.98 80.7827 112.425C82.0657 111.495 82.7556 110.762 82.3816 109.987C81.9902 109.177 81.1337 109.013 80.0892 109.518C78.9005 110.092 78.4678 110.989 78.9201 111.926L76.7049 112.995C75.7655 111.05 76.6857 109.185 79.207 107.967C81.7284 106.749 83.7444 107.153 84.6664 109.062L87.8324 115.617L85.4191 116.783L85.2121 115.572L85.158 115.598C85.0545 116.626 84.2534 117.634 83.0648 118.208ZM80.5385 115.875C80.9039 116.631 81.7417 116.848 82.6422 116.414C84.047 115.735 84.4952 114.364 83.7819 112.887L83.2601 111.806C83.0372 112.403 82.5746 112.87 81.7331 113.565C80.6476 114.445 80.1993 115.172 80.5385 115.875ZM91.1252 114.027L88.91 115.097L84.3872 105.732L86.6024 104.662L88.4463 108.48L92.4084 106.566L90.5645 102.748L92.7797 101.679L97.3025 111.044L95.0873 112.113L93.2434 108.295L89.2813 110.209L91.1252 114.027ZM105.155 103.187C105.991 105.471 105.058 107.587 102.753 108.7C100.034 110.013 97.4094 108.949 95.9569 105.941C94.4957 102.915 95.2933 100.198 98.0668 98.8586C100.408 97.7279 102.69 98.3138 103.985 100.398L101.68 101.511C101.049 100.528 99.9806 100.2 98.954 100.696C97.6213 101.339 97.3489 102.937 98.2621 104.828C99.158 106.683 100.587 107.481 101.92 106.837C102.856 106.385 103.219 105.388 102.849 104.3L105.155 103.187ZM107.799 105.974L103.276 96.6092L105.491 95.5394L106.918 98.493L108.539 97.7102C111.114 96.4664 113.085 96.9139 114.085 98.985C115.077 101.038 114.265 102.852 111.797 104.043L107.799 105.974ZM109.179 103.176L110.926 102.332C111.917 101.853 112.223 101.017 111.78 100.098C111.328 99.1619 110.454 98.9173 109.374 99.4391L107.753 100.222L109.179 103.176ZM116.534 101.756L112.011 92.3908L114.226 91.321L118.749 100.686L116.534 101.756Z" fill="#FFFDEA"/>
<defs>
<filter id="filter0_ii_2472_1138" x="-2" y="0.636353" width="160.941" height="180.727" filterUnits="userSpaceOnUse" color-interpolation-filters="sRGB">
<feFlood flood-opacity="0" result="BackgroundImageFix"/>
<feBlend mode="normal" in="SourceGraphic" in2="BackgroundImageFix" result="shape"/>
<feColorMatrix in="SourceAlpha" type="matrix" values="0 0 0 0 0 0 0 0 0 0 0 0 0 0 0 0 0 0 127 0" result="hardAlpha"/>
<feOffset dx="2" dy="2"/>
<feGaussianBlur stdDeviation="10"/>
<feComposite in2="hardAlpha" operator="arithmetic" k2="-1" k3="1"/>
<feColorMatrix type="matrix" values="0 0 0 0 1 0 0 0 0 0.992157 0 0 0 0 0.917647 0 0 0 1 0"/>
<feBlend mode="normal" in2="shape" result="effect1_innerShadow_2472_1138"/>
<feColorMatrix in="SourceAlpha" type="matrix" values="0 0 0 0 0 0 0 0 0 0 0 0 0 0 0 0 0 0 127 0" result="hardAlpha"/>
<feOffset dx="-2" dy="-2"/>
<feGaussianBlur stdDeviation="10"/>
<feComposite in2="hardAlpha" operator="arithmetic" k2="-1" k3="1"/>
<feColorMatrix type="matrix" values="0 0 0 0 1 0 0 0 0 0.992157 0 0 0 0 0.917647 0 0 0 1 0"/>
<feBlend mode="normal" in2="effect1_innerShadow_2472_1138" result="effect2_innerShadow_2472_1138"/>
</filter>
</defs>
</svg>
