<svg width="28" height="17" viewBox="0 0 28 17" fill="none" xmlns="http://www.w3.org/2000/svg">
<path d="M26.0052 16.0946H23.0386C21.9167 16.0946 21.5787 15.1859 19.5676 13.1735C17.81 11.4796 17.0677 11.269 16.6231 11.269C16.0082 11.269 15.8405 11.438 15.8405 12.2843V14.9519C15.8405 15.6734 15.6065 16.0959 13.7215 16.0959C11.8928 15.973 10.1194 15.4175 8.54746 14.475C6.97551 13.5325 5.64996 12.23 4.68 10.6749C2.37772 7.80791 0.775331 4.44379 0 0.849496C0 0.404896 0.169 0.00189577 1.0166 0.00189577H3.9806C4.7424 0.00189577 5.0167 0.341196 5.3157 1.1251C6.7548 5.3605 9.2105 9.0447 10.2076 9.0447C10.5898 9.0447 10.7562 8.8757 10.7562 7.9228V3.56C10.6301 1.5697 9.5732 1.402 9.5732 0.681796C9.58657 0.491789 9.67349 0.314479 9.81549 0.187527C9.95749 0.0605749 10.1434 -0.00601708 10.3337 0.00189577H14.9929C15.6299 0.00189577 15.8405 0.319096 15.8405 1.0809V6.9699C15.8405 7.6056 16.1135 7.8162 16.3059 7.8162C16.6881 7.8162 16.9819 7.6056 17.6826 6.9062C19.184 5.07405 20.411 3.03338 21.3252 0.848196C21.4183 0.585549 21.595 0.360685 21.8282 0.208061C22.0614 0.0554376 22.3381 -0.0165268 22.6161 0.00319568H25.5814C26.4706 0.00319568 26.6591 0.447796 26.4706 1.0822C25.3918 3.49798 24.0573 5.79126 22.49 7.9228C22.1702 8.4103 22.0428 8.6638 22.49 9.2358C22.7838 9.6804 23.8238 10.5488 24.5219 11.3743C25.5385 12.3883 26.3822 13.5609 27.0205 14.8453C27.2753 15.6721 26.8515 16.0946 26.0052 16.0946Z" fill="white"/>
</svg>
