<svg width="18" height="18" viewBox="0 0 18 18" fill="none" xmlns="http://www.w3.org/2000/svg">
<path d="M0.292892 0.29287C0.68342 -0.0976086 1.31645 -0.0976393 1.70695 0.29287L9.0009 7.58681L16.2646 0.323143C16.6551 -0.0673809 17.2891 -0.0673813 17.6796 0.323143C18.0697 0.713632 18.0698 1.34678 17.6796 1.73721L10.415 9.00088L17.2636 15.8495C17.6537 16.24 17.654 16.8732 17.2636 17.2636C16.8732 17.654 16.2401 17.6537 15.8495 17.2636L9.0009 10.4149L2.12297 17.2938C1.73256 17.6842 1.09943 17.684 0.708908 17.2938C0.318384 16.9033 0.318384 16.2693 0.708908 15.8788L7.58684 9.00088L0.292892 1.70693C-0.0976318 1.31641 -0.0976318 0.683394 0.292892 0.29287Z" fill="#232323"/>
</svg>
