<svg width="218" height="218" viewBox="0 0 218 218" fill="none" xmlns="http://www.w3.org/2000/svg">
<path d="M184.837 0C202.928 0.000115018 217.593 14.666 217.593 32.7568V184.836C217.593 202.927 202.928 217.593 184.837 217.593H138.088V217.59L69.7412 217.59V217.594H32.7568C14.666 217.594 0 202.928 0 184.837L0 169.45C0 151.359 14.666 136.693 32.7568 136.693H69.7412L69.7412 101.1C69.7414 83.0089 84.4073 68.3437 102.498 68.3437H138.088V32.7568C138.088 14.666 152.754 0 170.845 0L184.837 0Z" fill="url(#paint0_linear_1027_87)"/>
<path d="M104.56 85.7817C117.607 81.8724 132.174 88.8067 141.653 102.009C144.949 86.5859 155.072 74.6949 168.233 72.7908C186.041 70.2147 202.665 86.8956 205.365 110.048C208.065 133.201 195.818 154.059 178.011 156.635C167.519 158.153 157.44 152.984 150.376 143.747C147.656 154.559 140.824 163.001 131.01 165.942C113.774 171.107 93.8809 157.349 86.577 135.213C79.2733 113.077 87.3247 90.9462 104.56 85.7817Z" fill="white"/>
<ellipse cx="159.81" cy="110.554" rx="11.739" ry="15.8438" transform="rotate(-12.4562 159.81 110.554)" fill="#141414"/>
<ellipse cx="11.739" cy="16.6776" rx="11.739" ry="16.6776" transform="matrix(-0.976461 0.215693 0.215693 0.976461 116.188 101.758)" fill="#141414"/>
<path d="M163.896 170.867C168.778 177.841 163.896 193.184 147.855 184.118" stroke="#AD081C" stroke-width="2.80769" stroke-linecap="round"/>
<defs>
<linearGradient id="paint0_linear_1027_87" x1="108.796" y1="0" x2="108.796" y2="217.594" gradientUnits="userSpaceOnUse">
<stop stop-color="#FF094B"/>
<stop offset="1" stop-color="#F65D42"/>
</linearGradient>
</defs>
</svg>
