<svg width="218" height="218" viewBox="0 0 218 218" fill="none" xmlns="http://www.w3.org/2000/svg">
<circle cx="109" cy="109" r="109" fill="url(#paint0_linear_1027_67)"/>
<path d="M111.454 22.6833C123.477 25.9155 131.468 38.3098 132.49 53.1306C142.466 42.7225 156.053 38.342 167.201 43.1885C182.282 49.7452 187.188 70.7033 178.158 89.9998C169.128 109.296 149.583 119.624 134.501 113.067C125.615 109.204 120.263 100.341 119.212 89.7649C111.901 96.8644 102.529 100.145 93.4854 97.7131C77.6044 93.4435 68.7528 73.1861 73.7147 52.4673C78.6767 31.7484 95.5732 18.4138 111.454 22.6833Z" fill="white"/>
<ellipse cx="136.219" cy="82.0116" rx="10.7293" ry="14.481" transform="rotate(19.2727 136.219 82.0116)" fill="#141414"/>
<ellipse cx="10.7293" cy="15.2432" rx="10.7293" ry="15.2432" transform="matrix(-0.943959 -0.330064 -0.330064 0.943959 110.637 55.5273)" fill="#141414"/>
<path d="M102.624 116.014C98.3748 120.051 91.1506 128.762 96.25 131.312C101.349 133.862 106.024 123.875 107.724 118.563" stroke="#6D0DAE" stroke-width="2.63158" stroke-linecap="round"/>
<defs>
<linearGradient id="paint0_linear_1027_67" x1="56.731" y1="12.1111" x2="166.368" y2="202.702" gradientUnits="userSpaceOnUse">
<stop stop-color="#C94AFF"/>
<stop offset="1" stop-color="#8E28E1"/>
</linearGradient>
</defs>
</svg>
