<svg width="218" height="218" viewBox="0 0 218 218" fill="none" xmlns="http://www.w3.org/2000/svg">
<path d="M108.365 9.58458e-06C83.7224 1.17389e-05 63.7451 19.9773 63.7451 44.6201L63.7451 64.3818L44.6201 64.3819C19.9773 64.3819 2.26337e-05 84.3591 2.4788e-05 109.002C0.000206303 133.645 19.9774 153.621 44.6201 153.621L63.7451 153.621L63.7451 173.38C63.7451 198.023 83.7224 218 108.365 218C133.008 218 152.984 198.023 152.984 173.38L152.984 153.621L173.38 153.621C198.023 153.621 218 133.645 218 109.002C218 84.3591 198.023 64.3818 173.38 64.3818L152.984 64.3818L152.984 44.6201C152.984 19.9774 133.008 0.00021153 108.365 9.58458e-06Z" fill="url(#paint0_linear_1027_76)"/>
<path d="M144.324 43.1985C132.4 39.6257 119.087 45.9632 110.423 58.0283C107.41 43.9332 98.159 33.0663 86.1304 31.326C69.8548 28.9715 54.6605 44.2173 52.1927 65.3787C49.725 86.54 60.9183 105.604 77.1938 107.958C86.7818 109.345 95.9936 104.623 102.45 96.1823C104.936 106.062 111.181 113.777 120.149 116.465C135.902 121.185 154.084 108.61 160.76 88.3783C167.436 68.1465 160.077 47.9188 144.324 43.1985Z" fill="white"/>
<ellipse cx="10.7293" cy="14.481" rx="10.7293" ry="14.481" transform="matrix(-0.976461 -0.215693 -0.215693 0.976461 94.957 77.4375)" fill="#141414"/>
<ellipse cx="124.236" cy="97.39" rx="10.7293" ry="15.2432" transform="rotate(12.4562 124.236 97.39)" fill="#141414"/>
<path d="M107.094 122.387C98.8072 120.474 92.433 119.199 86.6961 117.287C86.6961 132.585 100.72 137.047 107.094 122.387Z" fill="white" stroke="#51B200" stroke-width="6.73835" stroke-linecap="round"/>
<defs>
<linearGradient id="paint0_linear_1027_76" x1="195.053" y1="65.0176" x2="42.7076" y2="187.404" gradientUnits="userSpaceOnUse">
<stop stop-color="#64D910"/>
<stop offset="1" stop-color="#A0DF0D"/>
</linearGradient>
</defs>
</svg>
