<svg width="160" height="179" viewBox="0 0 160 179" fill="none" xmlns="http://www.w3.org/2000/svg">
<path d="M114.193 2.09164C133.387 0.936195 149.884 15.564 151.04 34.7641L155.261 104.89C156.417 124.09 141.794 140.591 122.6 141.747L122.302 141.765C121.092 158.941 107.31 172.974 89.6634 174.036L44.9793 176.726C25.785 177.881 9.28779 163.253 8.13199 144.053L3.91057 73.9275C2.75479 54.7275 17.3781 38.2262 36.5724 37.0708L36.8702 37.0528C38.0802 19.8768 51.8622 5.84382 69.5087 4.78153L114.193 2.09164Z" fill="url(#paint0_radial_1327_291)"/>
<path d="M45.7223 36.5406C55.4434 36.5712 63.9598 44.3236 67.7014 55.3042C73.1459 45.4524 82.5222 39.4264 91.906 40.8503C104.603 42.777 112.505 57.6124 109.556 73.986C106.608 90.3596 93.9248 102.071 81.2282 100.145C73.7477 99.0094 67.9317 93.3933 65.0184 85.6218C60.9229 92.4429 54.5063 96.7935 47.1945 96.7706C34.3526 96.7303 23.6126 83.2147 23.206 66.5827C22.7994 49.9507 32.8803 36.5004 45.7223 36.5406Z" fill="white"/>
<path d="M100.249 78.6428C99.7698 84.8697 95.6409 89.6296 91.0272 89.2743C86.4135 88.919 83.0622 83.5829 83.5418 77.356C84.0214 71.129 88.1503 66.3691 92.764 66.7245C97.3777 67.0798 100.729 72.4158 100.249 78.6428Z" fill="#141414"/>
<path d="M49.6595 73.7183C49.1547 80.273 52.4856 85.8746 57.0993 86.23C61.7129 86.5853 65.8623 81.5598 66.3672 75.0051C66.872 68.4504 63.5411 62.8487 58.9274 62.4933C54.3137 62.138 50.1644 67.1636 49.6595 73.7183Z" fill="#141414"/>
<path d="M67.132 104.303C67.6821 103.693 68.614 103.646 69.2138 104.197C69.8135 104.749 69.8538 105.69 69.3038 106.3C65.2542 110.791 60.8317 112.625 57.5018 112.239C55.8229 112.044 54.3161 111.252 53.5061 109.804C52.6907 108.347 52.771 106.567 53.5633 104.806C53.9009 104.055 54.7749 103.719 55.5153 104.055C56.2558 104.391 56.5824 105.272 56.2448 106.022C55.7237 107.181 55.8461 107.917 56.074 108.324C56.3075 108.741 56.8457 109.162 57.8582 109.28C59.9112 109.518 63.459 108.376 67.132 104.303Z" fill="#0029C0"/>
<defs>
<radialGradient id="paint0_radial_1327_291" cx="0" cy="0" r="1" gradientTransform="matrix(-53.0726 82.6966 -72.5204 -46.5718 79.9389 91.132)" gradientUnits="userSpaceOnUse">
<stop stop-color="#8CB0FF"/>
<stop offset="1" stop-color="#5852FF"/>
</radialGradient>
</defs>
</svg>
