<svg width="253" height="263" viewBox="0 0 253 263" fill="none" xmlns="http://www.w3.org/2000/svg">
<path d="M199.27 186.659C220.167 186.659 237.107 203.6 237.107 224.496C237.107 245.392 220.167 262.332 199.27 262.332H37.8359C16.9396 262.332 0.000185558 245.392 0 224.496C0 203.6 16.9395 186.659 37.8359 186.659H199.27ZM164.798 0C188.016 9.06609e-05 206.838 18.8221 206.838 42.04C206.838 65.2064 188.1 83.9953 164.953 84.0791H201.561C229.551 84.0791 252.241 106.77 252.241 134.76V135.977C252.241 163.967 229.551 186.657 201.561 186.657H65.8144C37.8243 186.657 15.1338 163.967 15.1338 135.977V134.76C15.1338 106.77 37.8244 84.0791 65.8144 84.0791H73.835C50.6883 83.9952 31.9502 65.2064 31.9502 42.04C31.9504 18.8221 50.7723 0.00018378 73.9902 0L164.798 0Z" fill="url(#paint0_radial_1540_2)"/>
<path d="M175.906 42.8933C160.177 38.1802 142.614 46.5418 131.186 62.459C127.212 43.8643 115.008 29.528 99.1401 27.2324C77.6717 24.1267 57.6289 44.2365 54.3736 72.1495C51.1185 100.063 65.8836 125.208 87.352 128.314C100.001 130.144 112.153 123.914 120.67 112.778C123.948 125.812 132.186 135.991 144.018 139.536C164.797 145.763 188.781 129.176 197.586 102.489C206.392 75.8019 196.685 49.1197 175.906 42.8933Z" fill="white"/>
<ellipse cx="14.1526" cy="19.1014" rx="14.1526" ry="19.1014" transform="matrix(-0.976461 -0.215693 -0.215693 0.976461 110.777 88.0596)" fill="#141414"/>
<ellipse cx="149.389" cy="114.38" rx="14.1526" ry="20.1067" transform="rotate(12.4562 149.389 114.38)" fill="#141414"/>
<circle cx="11.7713" cy="11.7713" r="9.59927" transform="matrix(-1 0 0 1 122.023 141.255)" fill="white" stroke="#DC2C00" stroke-width="4.34405"/>
<defs>
<radialGradient id="paint0_radial_1540_2" cx="0" cy="0" r="1" gradientUnits="userSpaceOnUse" gradientTransform="translate(126.121 131.166) rotate(-90) scale(131.166 126.121)">
<stop stop-color="#FFCC5D"/>
<stop offset="1" stop-color="#FF6200"/>
</radialGradient>
</defs>
</svg>
