<svg width="155" height="137" viewBox="0 0 155 137" fill="none" xmlns="http://www.w3.org/2000/svg">
<path d="M66.5635 0.00390625C77.6985 0.238917 86.5348 9.45586 86.2998 20.5908L86.0166 33.9727L88.416 24.3193C90.9514 14.1164 101.278 7.90032 111.481 10.4355C121.685 12.9709 127.9 23.2979 125.365 33.501L119.795 55.915L124.504 50.3906C130.55 43.2962 141.202 42.4456 148.297 48.4912C155.391 54.5368 156.241 65.1888 150.195 72.2832L100.936 130.089C99.4635 131.816 97.7177 133.172 95.8174 134.149C92.8886 135.835 89.4927 136.8 85.8711 136.8H63.832C56.6359 137.736 49.1054 135.366 43.6865 129.736L6.625 91.2354C-2.4504 81.807 -2.1637 66.8059 7.26465 57.7305C16.693 48.6553 31.6932 48.9419 40.7686 58.3701L45.0664 62.835L45.9766 19.7402C46.2116 8.60523 55.4285 -0.231104 66.5635 0.00390625Z" fill="url(#paint0_linear_1158_419)"/>
<path d="M45.9048 35.5496C53.3785 33.3103 61.723 37.2846 67.1519 44.8488C69.0393 36.014 74.8377 29.202 82.3767 28.1113C92.5755 26.6361 102.097 36.19 103.643 49.4505C105.189 62.7109 98.1755 74.657 87.9767 76.1325C81.9661 77.002 76.1912 74.0403 72.1449 68.7474C70.5878 74.9402 66.6751 79.7769 61.0539 81.4614C51.1825 84.4194 39.7882 76.5395 35.605 63.8615C31.4217 51.1834 36.0334 38.5076 45.9048 35.5496Z" fill="white"/>
<ellipse cx="77.0341" cy="56.6449" rx="6.72337" ry="9.07435" transform="rotate(-12.4562 77.0341 56.6449)" fill="#141414"/>
<ellipse cx="6.72337" cy="9.55194" rx="6.72337" ry="9.55194" transform="matrix(-0.976461 0.215693 0.215693 0.976461 54.668 50.9609)" fill="#141414"/>
<path d="M79.5705 99.7719C76.641 101.199 74.1675 95.9563 73.2969 93.1562L80.6388 91.2344C81.5033 93.4854 82.5 98.3444 79.5705 99.7719Z" fill="white"/>
<path d="M73.788 93.4425C74.171 95.9572 75.8644 100.744 79.574 99.7729C83.2836 98.8018 81.5743 93.744 80.256 91.3365" stroke="#C91A50" stroke-width="2.62403" stroke-linecap="round"/>
<path d="M82.2365 86.2745C81.4307 92.6789 73.3159 94.803 69.2961 90.4877" stroke="#C91A50" stroke-width="2.62403" stroke-linecap="round"/>
<defs>
<linearGradient id="paint0_linear_1158_419" x1="103.842" y1="28.7592" x2="58.3061" y2="155.778" gradientUnits="userSpaceOnUse">
<stop stop-color="#FF696C"/>
<stop offset="1" stop-color="#FF2790"/>
</linearGradient>
</defs>
</svg>
