<svg width="189" height="219" viewBox="0 0 189 219" fill="none" xmlns="http://www.w3.org/2000/svg">
<g filter="url(#filter0_ii_2468_1564)">
<path d="M7.66435 51.669L84.1608 4.97927C89.1854 1.9125 95.4882 1.85244 100.57 4.82289L180.797 51.7142C185.705 54.5833 188.723 59.842 188.723 65.5277V153.327C188.723 159.013 185.705 164.272 180.797 167.141L100.57 214.032C95.4882 217.002 89.1854 216.942 84.1609 213.876L7.66435 167.186C2.90398 164.28 0 159.106 0 153.529V65.3261C0 59.7491 2.90398 54.5745 7.66435 51.669Z" fill="#9648E7"/>
</g>
<path d="M161.069 107.361C161.354 115.755 158.297 118.896 152.661 121.366C151.963 121.671 151.24 121.92 150.562 122.094C149.729 122.309 148.913 121.82 148.567 121.032L147.797 119.274C147.2 117.912 148.238 116.085 149.623 115.544C149.893 115.438 150.169 115.324 150.445 115.203C152.653 114.235 153.836 112.193 153.754 109.32L153.632 105.278C153.615 104.718 153.364 104.19 152.939 103.824L129.963 84.0176C128.848 83.0567 129.118 81.2617 130.466 80.6709L133.606 79.2948C134.313 78.985 135.135 79.1095 135.718 79.6148L153.225 94.7779C153.268 94.8147 153.327 94.8238 153.379 94.8012C153.433 94.7774 153.468 94.7229 153.466 94.6635L152.814 72.2425C152.79 71.4276 153.263 70.6798 154.01 70.3526L157.259 68.9289C158.559 68.3592 160.022 69.287 160.061 70.7057L161.069 107.361Z" fill="#F5EEFD"/>
<path d="M114.848 74.7374C114.404 73.7258 114.865 72.5462 115.877 72.1028L119.36 70.5765C120.371 70.1331 121.551 70.5938 121.994 71.6055L139.129 110.705C139.573 111.716 139.112 112.896 138.1 113.339L134.618 114.866C133.606 115.309 132.426 114.848 131.983 113.836L114.848 74.7374Z" fill="#F5EEFD"/>
<path d="M115.412 87.2674C116.423 86.8241 117.603 87.2848 118.046 88.2964L129.682 114.846C130.125 115.857 129.664 117.037 128.653 117.48L125.17 119.007C124.158 119.45 122.978 118.989 122.535 117.978L110.9 91.4284C110.456 90.4167 110.917 89.2372 111.929 88.7938L115.412 87.2674ZM110.558 86.1394C109.546 86.5828 108.367 86.1221 107.923 85.1104L107.008 83.022C106.565 82.0103 107.025 80.8308 108.037 80.3874L111.868 78.7082C112.88 78.2649 114.06 78.7256 114.503 79.7372L115.418 81.8257C115.862 82.8374 115.401 84.0169 114.389 84.4603L110.558 86.1394Z" fill="#F5EEFD"/>
<path d="M94.9161 95.4174C101.876 92.3673 107.633 93.496 110.755 98.4198C111.346 99.3527 110.87 100.546 109.858 100.99L106.375 102.516C105.363 102.96 104.222 102.45 103.465 101.646C101.99 100.08 99.7641 99.8033 97.1934 100.93C94.1721 102.254 93.0076 104.496 94.077 106.936C96.6233 112.746 112.62 100.887 117.458 111.927C120.081 117.911 116.986 123.492 109.142 126.93C101.442 130.304 95.1462 129.069 91.8025 123.685C91.2197 122.747 91.6956 121.555 92.7073 121.112L96.1902 119.585C97.2018 119.142 98.348 119.642 99.0708 120.477C100.795 122.47 103.529 122.81 106.723 121.41C110.093 119.933 111.406 117.557 110.311 115.059C107.663 109.016 91.9468 121.514 86.8796 109.952C84.3333 104.142 87.3048 98.7531 94.9161 95.4174Z" fill="#F5EEFD"/>
<path d="M77.8972 140.625C71.2736 143.528 65.6134 141.991 63.2708 136.646C61.1065 131.707 64.456 126.707 71.3399 122.028C75.5154 119.228 77.7878 116.986 76.6929 114.487C75.547 111.873 72.8514 111.253 69.4816 112.73C66.4819 114.045 64.9252 116.041 65.0232 118.294C65.0712 119.398 64.6742 120.586 63.6625 121.029L60.1797 122.556C59.168 122.999 57.9653 122.54 57.6929 121.47C56.2835 115.931 59.5556 110.916 66.8667 107.712C75.0009 104.147 81.344 105.662 84.0431 111.82L92.5089 131.137C92.9522 132.149 92.4915 133.329 91.4798 133.772L87.3098 135.6C86.4167 135.991 85.3976 135.417 85.2688 134.451L85.0291 132.653C85.0203 132.587 84.9502 132.547 84.8888 132.574C84.8567 132.588 84.8343 132.618 84.8292 132.653C84.3583 135.876 81.7099 138.954 77.8972 140.625ZM70.1627 132.933C71.2321 135.373 73.8625 136.16 76.7675 134.887C81.2994 132.901 82.8804 128.606 80.7924 123.842C80.2178 122.531 78.0715 122.417 77.037 123.406C76.2854 124.125 75.3575 124.881 74.2191 125.753C70.6756 128.414 69.1696 130.667 70.1627 132.933Z" fill="#F5EEFD"/>
<path d="M59.284 136.315C60.4362 135.81 61.775 136.486 61.8514 137.742C62.2232 143.852 58.5918 149.086 51.7973 152.063C42.5592 156.112 34.4423 152.605 30.0626 142.611C25.7084 132.676 28.6817 124.447 37.978 120.373C46.9256 116.451 54.6828 119.77 58.8587 129.299L58.9726 129.558C59.416 130.57 58.9553 131.75 57.9436 132.193L40.3391 139.908C39.2842 140.371 38.8258 141.636 39.4596 142.598C42.2747 146.869 46.0187 148.362 49.9704 146.631C52.8869 145.352 54.5222 142.981 54.5167 140.059C54.5149 139.126 54.9667 138.207 55.8215 137.833L59.284 136.315ZM36.1458 134.043C36.3157 135.239 37.6144 135.839 38.7205 135.354L48.4229 131.102C49.4692 130.643 49.9353 129.388 49.2824 128.45C46.9572 125.111 43.7333 124.015 40.1861 125.569C36.974 126.977 35.5707 129.997 36.1458 134.043Z" fill="#F5EEFD"/>
<defs>
<filter id="filter0_ii_2468_1564" x="-2" y="0.636353" width="192.723" height="217.582" filterUnits="userSpaceOnUse" color-interpolation-filters="sRGB">
<feFlood flood-opacity="0" result="BackgroundImageFix"/>
<feBlend mode="normal" in="SourceGraphic" in2="BackgroundImageFix" result="shape"/>
<feColorMatrix in="SourceAlpha" type="matrix" values="0 0 0 0 0 0 0 0 0 0 0 0 0 0 0 0 0 0 127 0" result="hardAlpha"/>
<feOffset dx="2" dy="2"/>
<feGaussianBlur stdDeviation="10"/>
<feComposite in2="hardAlpha" operator="arithmetic" k2="-1" k3="1"/>
<feColorMatrix type="matrix" values="0 0 0 0 0.917647 0 0 0 0 0.866667 0 0 0 0 0.984314 0 0 0 1 0"/>
<feBlend mode="normal" in2="shape" result="effect1_innerShadow_2468_1564"/>
<feColorMatrix in="SourceAlpha" type="matrix" values="0 0 0 0 0 0 0 0 0 0 0 0 0 0 0 0 0 0 127 0" result="hardAlpha"/>
<feOffset dx="-2" dy="-2"/>
<feGaussianBlur stdDeviation="10"/>
<feComposite in2="hardAlpha" operator="arithmetic" k2="-1" k3="1"/>
<feColorMatrix type="matrix" values="0 0 0 0 0.917647 0 0 0 0 0.866667 0 0 0 0 0.984314 0 0 0 1 0"/>
<feBlend mode="normal" in2="effect1_innerShadow_2468_1564" result="effect2_innerShadow_2468_1564"/>
</filter>
</defs>
</svg>
