<svg width="14" height="17" viewBox="0 0 14 17" fill="none" xmlns="http://www.w3.org/2000/svg">
<path d="M10.6856 0.0570516C10.7229 0.0824143 10.7546 0.115163 10.7788 0.153273C11.4688 0.94179 12.0844 1.79241 12.6178 2.69427C12.9769 3.358 13.2054 4.08446 13.2908 4.83427C13.2918 4.98726 13.2434 5.13649 13.1528 5.25974C13.0622 5.38299 12.9341 5.47367 12.7878 5.51827L12.3758 5.62827L11.6128 5.89927C11.3195 6.02194 11.0415 6.17261 10.7788 6.35127C10.3468 6.64327 9.94479 6.97527 9.50279 7.27527C9.46418 7.30901 9.41899 7.33436 9.37006 7.34971C9.32114 7.36506 9.26956 7.37007 9.2186 7.36443C9.16764 7.35879 9.11841 7.34261 9.07402 7.31694C9.02964 7.29126 8.99108 7.25664 8.96079 7.21527C8.92936 7.17527 8.90621 7.1294 8.8927 7.08035C8.87919 7.0313 8.87559 6.98005 8.88211 6.92959C8.88862 6.87913 8.90513 6.83048 8.93066 6.78647C8.95618 6.74246 8.99022 6.70398 9.03079 6.67327C9.49279 6.24127 9.90479 5.78927 10.3768 5.38727C10.5981 5.19394 10.8361 5.02294 11.0908 4.87427L11.4818 4.67427C10.4986 3.98002 9.3466 3.56343 8.14679 3.46827H7.80479L6.6454 3.48877L6.23679 3.52827C5.63012 3.60961 5.03412 3.74027 4.44879 3.92027C3.0577 4.32562 1.78115 5.05175 0.72179 6.04027C0.65883 6.09952 0.575765 6.13273 0.48931 6.13321C0.402854 6.1337 0.319425 6.10142 0.255809 6.04287C0.192193 5.98432 0.153111 5.90385 0.146429 5.81765C0.139746 5.73146 0.165958 5.64593 0.21979 5.57827C1.24352 4.31927 2.57574 3.34673 4.08679 2.75527C4.73169 2.49776 5.40736 2.32531 6.09679 2.24227C6.09679 2.24227 6.31726 2.22382 6.45879 2.21602C6.90796 2.19127 7.16247 2.17787 7.6107 2.21602C7.8442 2.23589 8.20579 2.29327 8.20579 2.29327C9.46862 2.47979 10.6622 2.98808 11.6718 3.76927C11.5618 3.41827 11.4508 3.08627 11.3098 2.76527C10.9851 2.00194 10.6205 1.25861 10.2158 0.535273C10.1677 0.459973 10.1503 0.369143 10.167 0.281389C10.1837 0.193635 10.2334 0.115601 10.3058 0.0632729C10.3423 0.0367014 10.3838 0.017893 10.4278 0.00801036C10.4719 -0.00187224 10.5175 -0.0026187 10.5618 0.00581643C10.6061 0.0142516 10.6482 0.031689 10.6856 0.0570516Z" fill="#232323"/>
<path d="M2.60524 16.6763C2.56791 16.6509 2.53619 16.6182 2.51202 16.5801C1.82202 15.7915 1.2064 14.9409 0.673018 14.0391C0.313888 13.3753 0.0854254 12.6489 1.81198e-05 11.8991C-0.0010252 11.7461 0.0473757 11.5968 0.138013 11.4736C0.22865 11.3503 0.356673 11.2597 0.503018 11.2151L0.915019 11.1051L1.67802 10.8341C1.97135 10.7114 2.24935 10.5607 2.51202 10.3821C2.94402 10.0901 3.34602 9.75806 3.78802 9.45806C3.82663 9.42432 3.87182 9.39897 3.92075 9.38363C3.96967 9.36828 4.02125 9.36327 4.07221 9.36891C4.12317 9.37455 4.1724 9.39072 4.21679 9.4164C4.26117 9.44208 4.29973 9.4767 4.33002 9.51806C4.36145 9.55807 4.3846 9.60394 4.39811 9.65299C4.41162 9.70204 4.41522 9.75329 4.4087 9.80375C4.40219 9.8542 4.38568 9.90286 4.36015 9.94687C4.33463 9.99088 4.30058 10.0294 4.26002 10.0601C3.79802 10.4921 3.38602 10.9441 2.91402 11.3461C2.69269 11.5394 2.45469 11.7104 2.20002 11.8591L1.80902 12.0591C2.79218 12.7533 3.94421 13.1699 5.14402 13.2651H5.48602L6.6454 13.2446L7.05402 13.2051C7.66069 13.1237 8.25669 12.9931 8.84202 12.8131C10.2331 12.4077 11.5097 11.6816 12.569 10.6931C12.632 10.6338 12.715 10.6006 12.8015 10.6001C12.888 10.5996 12.9714 10.6319 13.035 10.6905C13.0986 10.749 13.1377 10.8295 13.1444 10.9157C13.1511 11.0019 13.1249 11.0874 13.071 11.1551C12.0473 12.4141 10.7151 13.3866 9.20402 13.9781C8.55912 14.2356 7.88344 14.408 7.19402 14.4911C7.19402 14.4911 6.97355 14.5095 6.83202 14.5173C6.38285 14.5421 6.12834 14.5555 5.68011 14.5173C5.44661 14.4974 5.08502 14.4401 5.08502 14.4401C3.82219 14.2536 2.6286 13.7453 1.61902 12.9641C1.72902 13.3151 1.84002 13.6471 1.98102 13.9681C2.30569 14.7314 2.67035 15.4747 3.07502 16.1981C3.12309 16.2734 3.14054 16.3642 3.12381 16.4519C3.10708 16.5397 3.05742 16.6177 2.98502 16.6701C2.94854 16.6966 2.90701 16.7154 2.86298 16.7253C2.81895 16.7352 2.77336 16.736 2.72902 16.7275C2.68469 16.7191 2.64256 16.7016 2.60524 16.6763Z" fill="#232323"/>
</svg>
