<svg width="484" height="484" viewBox="0 0 484 484" fill="none" xmlns="http://www.w3.org/2000/svg">
<path d="M240.273 0C185.632 0.000259767 141.337 44.2954 141.337 98.9365L141.337 142.764L98.9365 142.764C44.2953 142.764 0 187.059 0 241.7C0.000119575 296.341 44.2954 340.637 98.9365 340.637H141.337V384.439C141.337 439.081 185.632 483.377 240.273 483.377C294.915 483.377 339.211 439.081 339.211 384.439V340.637L384.44 340.637C439.081 340.636 483.377 296.341 483.377 241.7C483.377 187.059 439.081 142.764 384.44 142.764H339.211V98.9365C339.211 44.2953 294.915 0 240.273 0Z" fill="url(#paint0_radial_1540_14)"/>
<path d="M320.006 95.78C293.569 87.8583 264.048 101.904 244.838 128.652C238.154 97.4015 217.639 73.3094 190.97 69.4511C154.882 64.2304 121.19 98.0355 115.718 144.957C110.246 191.879 135.066 234.148 171.154 239.369C192.411 242.444 212.836 231.978 227.153 213.268C232.666 235.172 246.517 252.276 266.402 258.234C301.332 268.701 341.647 240.819 356.449 195.959C371.251 151.098 354.935 106.247 320.006 95.78Z" fill="white"/>
<ellipse cx="23.7903" cy="32.1091" rx="23.7903" ry="32.1091" transform="matrix(-0.976461 -0.215693 -0.215693 0.976461 210.561 171.692)" fill="#141414"/>
<ellipse cx="275.462" cy="215.943" rx="23.7903" ry="33.799" transform="rotate(12.4562 275.462 215.943)" fill="#141414"/>
<path d="M237.455 271.375C219.081 267.135 204.947 264.309 192.227 260.068C192.227 293.99 223.321 303.883 237.455 271.375Z" fill="white" stroke="#51B200" stroke-width="8" stroke-linecap="round"/>
<defs>
<radialGradient id="paint0_radial_1540_14" cx="0" cy="0" r="1" gradientUnits="userSpaceOnUse" gradientTransform="translate(244.616 253.954) rotate(-135.671) scale(241.346)">
<stop stop-color="#C8FFA8"/>
<stop offset="1" stop-color="#69D900"/>
</radialGradient>
</defs>
</svg>
