<svg width="855" height="328" viewBox="0 0 855 328" fill="none" xmlns="http://www.w3.org/2000/svg">
<g filter="url(#filter0_ii_2472_1822)">
<g clip-path="url(#clip0_2472_1822)">
<path d="M0 64C0 41.5979 0 30.3968 4.35974 21.8404C8.19467 14.3139 14.3139 8.19467 21.8404 4.35974C30.3968 0 41.5979 0 64 0H791C813.402 0 824.603 0 833.16 4.35974C840.686 8.19467 846.805 14.3139 850.64 21.8404C855 30.3968 855 41.5979 855 64V264C855 286.402 855 297.603 850.64 306.16C846.805 313.686 840.686 319.805 833.16 323.64C824.603 328 813.402 328 791 328H64C41.5979 328 30.3968 328 21.8404 323.64C14.3139 319.805 8.19467 313.686 4.35974 306.16C0 297.603 0 286.402 0 264V64Z" fill="#9648E7"/>
<path fill-rule="evenodd" clip-rule="evenodd" d="M431.58 -388.418C431.58 -381.583 435.227 -375.268 441.147 -371.853L879.258 -119.072C885.176 -115.657 892.466 -115.659 898.383 -119.075L950.978 -149.446C951.321 -149.644 951.76 -149.527 951.958 -149.184C952.156 -148.841 952.038 -148.402 951.695 -148.204L899.236 -117.912C893.32 -114.495 889.675 -108.182 889.675 -101.35V404.489C889.675 411.326 893.325 417.643 899.249 421.058L957.641 454.717C957.984 454.915 958.102 455.354 957.904 455.697C957.706 456.04 957.267 456.158 956.924 455.96L899.011 422.576C893.096 419.167 885.811 419.168 879.898 422.58L441.147 675.73C435.227 679.146 431.58 685.46 431.58 692.295V772.283C431.58 772.679 431.259 773 430.863 773C430.467 773 430.146 772.679 430.146 772.283V692.847C430.146 686.012 426.498 679.698 420.578 676.282L-18.3842 423.01C-24.3023 419.595 -31.5927 419.597 -37.5096 423.013L-101.924 460.21C-102.267 460.408 -102.706 460.29 -102.904 459.947C-103.102 459.604 -102.984 459.166 -102.641 458.968L-38.4671 421.91C-32.5503 418.493 -28.9057 412.18 -28.9057 405.348V-101.258C-28.9057 -108.095 -32.5559 -114.412 -38.4798 -117.827L-92.8384 -149.161C-93.1816 -149.359 -93.2994 -149.797 -93.1016 -150.14C-92.9038 -150.483 -92.4652 -150.601 -92.1221 -150.403L-37.6819 -119.022C-31.7669 -115.613 -24.4828 -115.614 -18.5692 -119.026L420.578 -372.405C426.498 -375.82 430.146 -382.135 430.146 -388.97V-444.283C430.146 -444.679 430.467 -445 430.863 -445C431.259 -445 431.58 -444.679 431.58 -444.283V-388.418ZM2.77544 399.751C-9.97581 407.114 -9.97253 425.518 2.78136 432.877L401.459 662.905C414.21 670.263 430.146 661.061 430.146 646.34V572.496C430.146 565.663 426.499 559.348 420.58 555.932L85.9007 362.792C79.9823 359.376 72.6913 359.377 66.7739 362.794L2.77544 399.751ZM441.146 555.104C435.227 558.52 431.58 564.834 431.58 571.668V645.788C431.58 660.509 447.516 669.711 460.267 662.353L858.697 432.468C871.456 425.106 871.452 406.691 858.69 399.334L794.396 362.273C788.48 358.863 781.195 358.865 775.281 362.277L441.146 555.104ZM106.596 339.799C93.8451 347.162 93.8476 365.566 106.6 372.925L401.457 543.085C414.209 550.444 430.146 541.242 430.146 526.521V465.27C430.146 458.43 426.492 452.111 420.565 448.697L178.512 309.296C172.596 305.889 165.312 305.893 159.4 309.307L106.596 339.799ZM441.161 448.146C435.233 451.56 431.58 457.879 431.58 464.719V525.693C431.58 540.414 447.517 549.616 460.268 542.257L754.547 372.431C767.305 365.068 767.301 346.654 754.539 339.298L701.927 308.971C696.017 305.564 688.739 305.562 682.828 308.967L441.161 448.146ZM198.833 286.537C186.076 293.904 186.087 312.319 198.852 319.671L401.472 436.363C414.223 443.706 430.146 434.504 430.146 419.79V369.311C430.146 362.468 426.489 356.146 420.557 352.734L261.615 261.299C255.7 257.897 248.42 257.902 242.511 261.315L198.833 286.537ZM441.169 351.908C435.237 355.321 431.58 361.642 431.58 368.485V419.239C431.58 433.953 447.502 443.155 460.254 435.812L662.454 319.362C675.225 312.006 675.229 293.58 662.46 286.22L618.505 260.883C612.598 257.478 605.324 257.475 599.414 260.875L441.169 351.908ZM-26.8739 382.085C-26.8739 396.809 -10.9325 406.01 1.81892 398.647L65.7757 361.715C71.6925 358.298 75.3372 351.985 75.3372 345.153V-41.1687C75.3372 -48.0057 71.687 -54.3228 65.7631 -57.7375L1.80627 -94.6045C-10.9452 -101.955 -26.8739 -92.7527 -26.8739 -78.0357V382.085ZM794.515 -57.4406C788.599 -54.024 784.954 -47.7109 784.954 -40.8791V344.124C784.954 350.961 788.604 357.278 794.528 360.693L858.963 397.836C871.714 405.186 887.643 395.984 887.643 381.267V-78.087C887.643 -92.8105 871.702 -102.012 858.95 -94.6485L794.515 -57.4406ZM281.585 238.752C268.824 246.12 268.84 264.542 281.612 271.89L401.48 340.846C414.231 348.182 430.146 338.979 430.146 324.269V276.889C430.146 270.049 426.492 263.73 420.564 260.316L341.838 214.983C335.922 211.576 328.638 211.58 322.726 214.994L281.585 238.752ZM441.162 259.765C435.234 263.179 431.58 269.498 431.58 276.338V323.444C431.58 338.153 447.494 347.356 460.246 340.021L579.382 271.485C592.16 264.134 592.168 245.701 579.396 238.339L538.457 214.741C532.547 211.334 525.27 211.332 519.359 214.736L441.162 259.765ZM76.9071 322.157C76.9071 336.88 92.8485 346.082 105.6 338.718L158.064 308.423C163.981 305.006 167.626 298.693 167.626 291.861V12.0297C167.626 5.19263 163.975 -1.12436 158.051 -4.53912L105.587 -34.7815C92.8354 -42.1319 76.9067 -32.9297 76.9067 -18.2126L76.9071 322.157ZM702.705 -4.4248C696.788 -1.00815 693.144 5.30487 693.144 12.1367L693.143 291.202C693.143 298.039 696.793 304.356 702.717 307.77L754.704 337.737C767.456 345.088 783.384 335.886 783.384 321.169V-17.8829C783.384 -32.6064 767.443 -41.8077 754.692 -34.4444L702.705 -4.4248ZM168.788 269.1C168.788 283.823 184.73 293.025 197.481 285.661L241.267 260.377C247.184 256.96 250.829 250.647 250.829 243.815V59.9911C250.829 53.154 247.178 46.8371 241.255 43.4223L197.469 18.1825C184.717 10.8321 168.788 20.0343 168.788 34.7513V269.1ZM619.024 43.8971C613.107 47.3137 609.462 53.6267 609.462 60.4586V242.965C609.462 249.802 613.113 256.119 619.036 259.534L663.301 285.049C676.052 292.4 691.981 283.197 691.981 268.48L691.981 34.898C691.981 20.1746 676.04 10.9732 663.288 18.3365L619.024 43.8971ZM361.438 192.641C348.68 200.008 348.691 218.424 361.458 225.775L401.473 248.817C414.224 256.16 430.146 246.957 430.146 232.244V186.095C430.146 171.372 414.204 162.17 401.453 169.534L361.438 192.641ZM431.58 231.693C431.58 246.406 447.501 255.609 460.253 248.266L499.705 225.549C512.477 218.194 512.481 199.767 499.712 192.407L460.26 169.665C447.509 162.315 431.58 171.517 431.58 186.234V231.693ZM251.622 221.267C251.622 235.991 267.563 245.192 280.315 237.829L321.601 213.988C327.518 210.571 331.163 204.258 331.163 197.427V106.298C331.163 99.4612 327.512 93.1442 321.588 89.7294L280.302 65.9305C267.551 58.5802 251.622 67.7823 251.622 82.4994V221.267ZM539.168 90.0099C533.251 93.4266 529.607 99.7396 529.607 106.571V196.933C529.607 203.77 533.257 210.087 539.181 213.502L579.989 237.025C592.74 244.376 608.669 235.173 608.669 220.456V83.0067C608.669 68.2832 592.728 59.0818 579.976 66.4451L539.168 90.0099ZM331.602 175.083C331.602 189.806 347.543 199.008 360.294 191.644L400.575 168.384C413.33 161.019 413.323 142.609 400.563 135.253L360.282 112.034C347.53 104.683 331.602 113.886 331.602 128.603V175.083ZM460.857 135.23C448.103 142.595 448.11 161.006 460.87 168.361L500.488 191.198C513.239 198.548 529.168 189.346 529.168 174.629V128.915C529.168 114.191 513.226 104.99 500.475 112.353L460.857 135.23ZM361.209 77.7667C348.437 85.1215 348.433 103.548 361.202 110.909L401.465 134.118C414.217 141.468 430.146 132.266 430.146 117.549V71.1544C430.146 56.4412 414.224 47.2385 401.473 54.5813L361.209 77.7667ZM431.58 117.35C431.58 132.073 447.521 141.275 460.273 133.912L499.851 111.057C512.608 103.691 512.597 85.2742 499.831 77.9227L460.253 55.1322C447.501 47.7895 431.58 56.9921 431.58 71.7053V117.35ZM431.58 27.0605C431.58 33.9006 435.234 40.2199 441.162 43.6336L519.45 88.7153C525.366 92.1219 532.65 92.1176 538.562 88.7038L579.05 65.3239C591.811 57.9552 591.796 39.533 579.023 32.1851L460.246 -36.1441C447.494 -43.4797 431.58 -34.2765 431.58 -19.567V27.0605ZM281.708 31.9316C268.93 39.2826 268.922 57.7154 281.694 65.0776L322.457 88.5748C328.367 91.9815 335.644 91.9832 341.556 88.579L420.564 43.0826C426.492 39.669 430.146 33.3496 430.146 26.5096V-20.3921C430.146 -35.1017 414.231 -44.3047 401.48 -36.9693L281.708 31.9316ZM431.58 -64.6082C431.58 -57.7651 435.237 -51.4435 441.169 -48.0309L599.02 42.7759C604.935 46.1785 612.215 46.1726 618.124 42.7603L662.456 17.1609C675.213 9.79425 675.202 -8.62131 662.437 -15.9732L460.254 -132.413C447.502 -139.757 431.58 -130.554 431.58 -115.84V-64.6082ZM198.46 -16.0467C185.689 -8.6915 185.685 9.73459 198.454 17.0948L242.585 42.5338C248.493 45.939 255.766 45.9422 261.677 42.5422L420.557 -48.856C426.489 -52.2686 430.146 -58.5901 430.146 -65.4332V-116.391C430.146 -131.105 414.223 -140.307 401.472 -132.964L198.46 -16.0467ZM431.58 -161.32C431.58 -154.48 435.233 -148.161 441.161 -144.747L682.776 -5.59805C688.692 -2.19089 695.975 -2.1951 701.888 -5.6091L754.04 -35.7243C766.79 -43.0872 766.788 -61.4905 754.035 -68.85L460.268 -238.38C447.517 -245.739 431.58 -236.537 431.58 -221.816V-161.32ZM106.541 -69.0149C93.7832 -61.6522 93.7878 -43.2383 106.55 -35.8819L158.987 -5.65533C164.897 -2.24844 172.175 -2.24701 178.086 -5.65158L420.565 -145.298C426.492 -148.712 430.146 -155.031 430.146 -161.871V-222.644C430.146 -237.365 414.209 -246.567 401.457 -239.208L106.541 -69.0149ZM431.58 -267.791C431.58 -260.957 435.227 -254.643 441.146 -251.227L774.734 -58.7162C780.652 -55.3008 787.943 -55.3018 793.86 -58.7188L858.099 -95.8133C870.85 -103.177 870.847 -121.581 858.093 -128.94L460.267 -358.477C447.516 -365.835 431.58 -356.633 431.58 -341.912V-267.791ZM2.63119 -128.914C-10.1283 -121.552 -10.1246 -103.137 2.63793 -95.7804L66.6936 -58.8565C72.6091 -55.4466 79.8939 -55.4484 85.8077 -58.8612L420.579 -252.055C426.499 -255.471 430.146 -261.785 430.146 -268.619V-342.464C430.146 -357.185 414.21 -366.386 401.459 -359.029L2.63119 -128.914Z" fill="#F5EEFD" fill-opacity="0.08"/>
<g filter="url(#filter1_ii_2472_1822)">
<path d="M249.849 48.578L428.263 -40.3844C429.671 -41.0867 431.328 -41.0849 432.735 -40.3795L609.241 48.1167C610.932 48.9646 612 50.6945 612 52.5864V254.28C612 258.028 608.029 260.443 604.701 258.72L432.859 169.722C431.384 168.958 429.626 168.976 428.167 169.771L169.198 310.897C165.206 313.073 160.617 309.222 162.067 304.913L247.341 51.4582C247.763 50.2042 248.665 49.1685 249.849 48.578Z" fill="#EADDFB" fill-opacity="0.1"/>
</g>
</g>
</g>
<defs>
<filter id="filter0_ii_2472_1822" x="-10" y="-10" width="875" height="348" filterUnits="userSpaceOnUse" color-interpolation-filters="sRGB">
<feFlood flood-opacity="0" result="BackgroundImageFix"/>
<feBlend mode="normal" in="SourceGraphic" in2="BackgroundImageFix" result="shape"/>
<feColorMatrix in="SourceAlpha" type="matrix" values="0 0 0 0 0 0 0 0 0 0 0 0 0 0 0 0 0 0 127 0" result="hardAlpha"/>
<feOffset dx="-10" dy="-10"/>
<feGaussianBlur stdDeviation="20"/>
<feComposite in2="hardAlpha" operator="arithmetic" k2="-1" k3="1"/>
<feColorMatrix type="matrix" values="0 0 0 0 0.831373 0 0 0 0 0.721569 0 0 0 0 0.964706 0 0 0 0.6 0"/>
<feBlend mode="normal" in2="shape" result="effect1_innerShadow_2472_1822"/>
<feColorMatrix in="SourceAlpha" type="matrix" values="0 0 0 0 0 0 0 0 0 0 0 0 0 0 0 0 0 0 127 0" result="hardAlpha"/>
<feOffset dx="10" dy="10"/>
<feGaussianBlur stdDeviation="20"/>
<feComposite in2="hardAlpha" operator="arithmetic" k2="-1" k3="1"/>
<feColorMatrix type="matrix" values="0 0 0 0 0.831373 0 0 0 0 0.721569 0 0 0 0 0.964706 0 0 0 0.6 0"/>
<feBlend mode="normal" in2="effect1_innerShadow_2472_1822" result="effect2_innerShadow_2472_1822"/>
</filter>
<filter id="filter1_ii_2472_1822" x="151.793" y="-50.9097" width="470.207" height="372.434" filterUnits="userSpaceOnUse" color-interpolation-filters="sRGB">
<feFlood flood-opacity="0" result="BackgroundImageFix"/>
<feBlend mode="normal" in="SourceGraphic" in2="BackgroundImageFix" result="shape"/>
<feColorMatrix in="SourceAlpha" type="matrix" values="0 0 0 0 0 0 0 0 0 0 0 0 0 0 0 0 0 0 127 0" result="hardAlpha"/>
<feOffset dx="10" dy="10"/>
<feGaussianBlur stdDeviation="20"/>
<feComposite in2="hardAlpha" operator="arithmetic" k2="-1" k3="1"/>
<feColorMatrix type="matrix" values="0 0 0 0 0.917647 0 0 0 0 0.866667 0 0 0 0 0.984314 0 0 0 1 0"/>
<feBlend mode="normal" in2="shape" result="effect1_innerShadow_2472_1822"/>
<feColorMatrix in="SourceAlpha" type="matrix" values="0 0 0 0 0 0 0 0 0 0 0 0 0 0 0 0 0 0 127 0" result="hardAlpha"/>
<feOffset dx="-10" dy="-10"/>
<feGaussianBlur stdDeviation="20"/>
<feComposite in2="hardAlpha" operator="arithmetic" k2="-1" k3="1"/>
<feColorMatrix type="matrix" values="0 0 0 0 0.917647 0 0 0 0 0.866667 0 0 0 0 0.984314 0 0 0 1 0"/>
<feBlend mode="normal" in2="effect1_innerShadow_2472_1822" result="effect2_innerShadow_2472_1822"/>
</filter>
<clipPath id="clip0_2472_1822">
<path d="M0 64C0 41.5979 0 30.3968 4.35974 21.8404C8.19467 14.3139 14.3139 8.19467 21.8404 4.35974C30.3968 0 41.5979 0 64 0H791C813.402 0 824.603 0 833.16 4.35974C840.686 8.19467 846.805 14.3139 850.64 21.8404C855 30.3968 855 41.5979 855 64V264C855 286.402 855 297.603 850.64 306.16C846.805 313.686 840.686 319.805 833.16 323.64C824.603 328 813.402 328 791 328H64C41.5979 328 30.3968 328 21.8404 323.64C14.3139 319.805 8.19467 313.686 4.35974 306.16C0 297.603 0 286.402 0 264V64Z" fill="white"/>
</clipPath>
</defs>
</svg>
