<svg width="351" height="416" viewBox="0 0 351 416" fill="none" xmlns="http://www.w3.org/2000/svg">
<g filter="url(#filter0_ii_2483_1106)">
<g clip-path="url(#clip0_2483_1106)">
<path d="M0 38.4C0 24.9587 0 18.2381 2.61584 13.1042C4.9168 8.58834 8.58834 4.9168 13.1042 2.61584C18.2381 0 24.9587 0 38.4 0H312.6C326.041 0 332.762 0 337.896 2.61584C342.412 4.9168 346.083 8.58834 348.384 13.1042C351 18.2381 351 24.9587 351 38.4V377.6C351 391.041 351 397.762 348.384 402.896C346.083 407.412 342.412 411.083 337.896 413.384C332.762 416 326.041 416 312.6 416H38.4C24.9587 416 18.2381 416 13.1042 413.384C8.58834 411.083 4.9168 407.412 2.61584 402.896C0 397.762 0 391.041 0 377.6V38.4Z" fill="#9648E7"/>
<path fill-rule="evenodd" clip-rule="evenodd" d="M177.723 -160.278C177.723 -155.722 180.156 -151.512 184.107 -149.235L476.456 19.2853C480.405 21.5617 485.27 21.5609 489.218 19.2831L524.314 -0.964005C524.543 -1.09604 524.836 -1.01773 524.968 -0.789078C525.1 -0.56044 525.022 -0.268066 524.793 -0.136032L489.787 20.0588C485.839 22.3366 483.407 26.5453 483.407 31.0999V368.326C483.407 372.884 485.843 377.096 489.796 379.372L528.76 401.812C528.989 401.943 529.068 402.236 528.936 402.465C528.804 402.693 528.511 402.772 528.282 402.64L489.637 380.384C485.69 378.111 480.829 378.112 476.883 380.387L184.107 549.153C180.156 551.43 177.723 555.64 177.723 560.196V613.522C177.723 613.786 177.508 614 177.244 614C176.98 614 176.765 613.786 176.765 613.522V560.564C176.765 556.008 174.332 551.798 170.381 549.521L-122.536 380.673C-126.485 378.397 -131.35 378.398 -135.299 380.676L-178.282 405.473C-178.511 405.605 -178.804 405.527 -178.936 405.298C-179.068 405.07 -178.99 404.777 -178.761 404.645L-135.938 379.94C-131.989 377.662 -129.557 373.453 -129.557 368.899V31.1615C-129.557 26.6034 -131.993 22.3921 -135.946 20.1156L-172.219 -0.773849C-172.448 -0.905701 -172.527 -1.19803 -172.395 -1.42676C-172.263 -1.65549 -171.97 -1.73401 -171.741 -1.60214L-135.414 19.3186C-131.467 21.5916 -126.606 21.5906 -122.66 19.3159L170.381 -149.603C174.332 -151.88 176.765 -156.09 176.765 -160.646V-197.522C176.765 -197.786 176.98 -198 177.244 -198C177.508 -198 177.723 -197.786 177.723 -197.522V-160.278ZM-108.417 365.167C-116.925 370.076 -116.923 382.346 -108.413 387.251L157.623 540.604C166.132 545.508 176.765 539.374 176.765 529.56V480.331C176.765 475.775 174.332 471.565 170.382 469.288L-52.9475 340.528C-56.8968 338.251 -61.7621 338.252 -65.7107 340.53L-108.417 365.167ZM184.106 468.736C180.156 471.013 177.723 475.223 177.723 479.779V529.192C177.723 539.006 188.356 545.14 196.865 540.236L462.735 386.978C471.25 382.07 471.247 369.794 462.731 364.889L419.828 340.182C415.88 337.909 411.019 337.91 407.073 340.185L184.106 468.736ZM-39.1378 325.2C-47.6462 330.108 -47.6446 342.377 -39.1348 347.283L157.622 460.723C166.131 465.629 176.765 459.495 176.765 449.681V408.847C176.765 404.287 174.328 400.074 170.372 397.798L8.85184 304.864C4.90405 302.593 0.0435944 302.596 -3.90157 304.872L-39.1378 325.2ZM184.116 397.431C180.16 399.707 177.723 403.919 177.723 408.479V449.128C177.723 458.943 188.357 465.077 196.866 460.171L393.237 346.954C401.75 342.045 401.747 329.769 393.231 324.865L358.124 304.647C354.18 302.376 349.324 302.375 345.379 304.645L184.116 397.431ZM22.4117 289.691C13.8989 294.602 13.906 306.879 22.4245 311.781L157.632 389.575C166.141 394.471 176.765 388.336 176.765 378.527V344.874C176.765 340.312 174.325 336.097 170.367 333.822L64.3059 272.866C60.3589 270.598 55.5011 270.602 51.5578 272.877L22.4117 289.691ZM184.121 333.272C180.163 335.547 177.723 339.761 177.723 344.323V378.159C177.723 387.969 188.347 394.104 196.856 389.208L331.784 311.574C340.306 306.671 340.308 294.387 331.788 289.48L302.457 272.589C298.515 270.318 293.661 270.316 289.717 272.583L184.121 333.272ZM-128.201 353.39C-128.201 363.206 -117.564 369.34 -109.055 364.431L-66.3768 339.81C-62.4286 337.532 -59.9965 333.323 -59.9965 328.769V71.2209C-59.9965 66.6628 -62.4322 62.4515 -66.3852 60.175L-109.063 35.597C-117.572 30.6967 -128.201 36.8315 -128.201 46.6429V353.39ZM419.907 60.3729C415.959 62.6507 413.527 66.8594 413.527 71.4139V328.083C413.527 332.641 415.963 336.852 419.916 339.129L462.913 363.891C471.422 368.791 482.051 362.656 482.051 352.845V46.6087C482.051 36.793 471.414 30.6588 462.905 35.5676L419.907 60.3729ZM77.6317 257.834C69.1166 262.747 69.1267 275.028 77.6499 279.927L157.637 325.898C166.146 330.788 176.765 324.652 176.765 314.846V283.26C176.765 278.7 174.327 274.487 170.372 272.211L117.838 241.988C113.89 239.717 109.03 239.72 105.085 241.996L77.6317 257.834ZM184.116 271.844C180.161 274.119 177.723 278.332 177.723 282.892V314.296C177.723 324.102 188.342 330.237 196.851 325.347L276.35 279.657C284.877 274.756 284.882 262.468 276.36 257.559L249.041 241.827C245.098 239.556 240.242 239.555 236.297 241.824L184.116 271.844ZM-58.9489 313.438C-58.9489 323.254 -48.3113 329.388 -39.8023 324.479L-4.79321 304.282C-0.844955 302.004 1.58713 297.795 1.58713 293.241V106.686C1.58713 102.128 -0.848663 97.9171 -4.80167 95.6406L-39.811 75.479C-48.32 70.5788 -58.9492 76.7136 -58.9491 86.5249L-58.9489 313.438ZM358.643 95.7168C354.695 97.9946 352.263 102.203 352.263 106.758L352.262 292.801C352.262 297.359 354.698 301.57 358.651 303.847L393.342 323.825C401.851 328.725 412.48 322.59 412.48 312.779V86.7448C412.48 76.9291 401.842 70.7948 393.333 75.7037L358.643 95.7168ZM2.36302 278.066C2.36302 287.882 13.0006 294.016 21.5096 289.108L50.7278 272.251C54.676 269.973 57.1081 265.765 57.1081 261.21V138.661C57.1081 134.103 54.6723 129.891 50.7193 127.615L21.5011 110.788C12.9922 105.888 2.36302 112.023 2.36302 121.834V278.066ZM302.803 127.931C298.855 130.209 296.423 134.418 296.423 138.972V260.643C296.423 265.201 298.858 269.413 302.811 271.689L332.349 288.699C340.858 293.6 351.487 287.465 351.487 277.654L351.487 121.932C351.487 112.116 340.849 105.982 332.34 110.891L302.803 127.931ZM130.917 227.094C122.404 232.005 122.411 244.283 130.93 249.184L157.632 264.545C166.141 269.44 176.765 263.305 176.765 253.496V222.73C176.765 212.915 166.128 206.78 157.619 211.689L130.917 227.094ZM177.723 253.129C177.723 262.938 188.347 269.073 196.856 264.178L223.182 249.032C231.704 244.129 231.707 231.845 223.187 226.938L196.861 211.777C188.352 206.876 177.723 213.011 177.723 222.823V253.129ZM57.6375 246.178C57.6375 255.994 68.2751 262.128 76.784 257.219L104.334 241.325C108.282 239.048 110.715 234.839 110.715 230.284V169.532C110.715 164.974 108.279 160.763 104.326 158.486L76.7756 142.62C68.2667 137.72 57.6375 143.855 57.6375 153.666V246.178ZM249.516 158.673C245.567 160.951 243.135 165.16 243.135 169.714V229.955C243.135 234.513 245.571 238.725 249.524 241.001L276.755 256.684C285.264 261.584 295.893 255.449 295.893 245.638V154.004C295.893 144.189 285.256 138.055 276.747 142.963L249.516 158.673ZM111.007 215.389C111.007 225.204 121.645 231.338 130.154 226.43L157.033 210.922C165.544 206.012 165.539 193.739 157.025 188.836L130.146 173.356C121.637 168.456 111.007 174.59 111.007 184.402V215.389ZM197.259 188.82C188.748 193.73 188.753 206.004 197.267 210.907L223.704 226.132C232.213 231.032 242.842 224.897 242.842 215.086V184.61C242.842 174.794 232.205 168.66 223.696 173.569L197.259 188.82ZM130.765 150.511C122.242 155.414 122.239 167.699 130.76 172.606L157.627 188.079C166.136 192.979 176.765 186.844 176.765 177.033V146.103C176.765 136.294 166.141 130.159 157.632 135.054L130.765 150.511ZM177.723 176.9C177.723 186.716 188.36 192.85 196.869 187.941L223.279 172.705C231.792 167.794 231.785 155.516 223.266 150.615L196.856 135.421C188.347 130.526 177.723 136.661 177.723 146.47V176.9ZM177.723 116.707C177.723 121.267 180.161 125.48 184.116 127.756L236.358 157.81C240.306 160.081 245.166 160.078 249.111 157.803L276.129 142.216C284.644 137.303 284.634 125.022 276.111 120.123L196.851 74.5706C188.342 69.6802 177.723 75.8156 177.723 85.622V116.707ZM77.714 119.954C69.187 124.855 69.1816 137.144 77.7043 142.052L104.905 157.717C108.849 159.988 113.705 159.989 117.65 157.719L170.372 127.388C174.327 125.113 176.765 120.9 176.765 116.34V85.0719C176.765 75.2656 166.146 69.1302 157.637 74.0205L77.714 119.954ZM177.723 55.5946C177.723 60.1566 180.163 64.371 184.121 66.646L289.454 127.184C293.401 129.452 298.259 129.448 302.202 127.173L331.785 110.107C340.298 105.196 340.29 92.9191 331.772 88.0179L196.856 10.3914C188.347 5.49561 177.723 11.6307 177.723 21.4398V55.5946ZM22.1629 87.9689C13.6407 92.8723 13.6383 105.156 22.1586 110.063L51.6074 127.023C55.5494 129.293 60.4031 129.295 64.347 127.028L170.367 66.096C174.325 63.821 176.765 59.6066 176.765 55.0445V21.0725C176.765 11.2634 166.141 5.12833 157.632 10.0241L22.1629 87.9689ZM177.723 -8.87997C177.723 -4.32016 180.16 -0.107468 184.116 2.16838L345.344 94.9346C349.292 97.2061 354.152 97.2033 358.098 94.9273L392.898 74.8505C401.407 69.9419 401.405 57.673 392.895 52.7667L196.866 -60.2536C188.357 -65.1594 177.723 -59.0249 177.723 -49.2108V-8.87997ZM-39.174 52.6568C-47.6875 57.5652 -47.6845 69.8411 -39.1686 74.7454L-4.17764 94.8965C-0.233765 97.1677 4.62259 97.1687 8.56737 94.899L170.372 1.80107C174.328 -0.474762 176.765 -4.68747 176.765 -9.24728V-49.7627C176.765 -59.5768 166.131 -65.7113 157.622 -60.8054L-39.174 52.6568ZM177.723 -79.8606C177.723 -75.3048 180.156 -71.0952 184.106 -68.8179L406.707 59.5225C410.656 61.7995 415.522 61.7988 419.47 59.5208L462.336 34.7912C470.845 29.8823 470.843 17.6127 462.332 12.7068L196.865 -140.318C188.356 -145.223 177.723 -139.089 177.723 -129.275V-79.8606ZM-108.513 12.7239C-117.027 17.6319 -117.025 29.9086 -108.508 34.8131L-65.7643 59.429C-61.8169 61.7023 -56.9558 61.701 -53.0096 59.4258L170.382 -69.3698C174.332 -71.6471 176.765 -75.8567 176.765 -80.4125V-129.643C176.765 -139.456 166.132 -145.591 157.623 -140.686L-108.513 12.7239Z" fill="#F5EEFD" fill-opacity="0.08"/>
<g filter="url(#filter1_ii_2483_1106)">
<path d="M3.77404 97.1277L171.609 -0.895499C172.787 -1.58364 174.235 -1.62372 175.449 -1.00182L356.831 91.877C358.637 92.8023 359.465 94.9342 358.755 96.836L294.745 268.343C294.583 268.778 294.346 269.181 294.046 269.534L185.282 397.52C182.904 400.318 178.328 398.702 178.235 395.031L173.555 210.174C173.521 208.818 172.802 207.572 171.646 206.864L3.70203 103.993C1.12305 102.413 1.16248 98.653 3.77404 97.1277Z" fill="#EADDFB" fill-opacity="0.1"/>
</g>
</g>
</g>
<defs>
<filter id="filter0_ii_2483_1106" x="-10" y="-10" width="371" height="436" filterUnits="userSpaceOnUse" color-interpolation-filters="sRGB">
<feFlood flood-opacity="0" result="BackgroundImageFix"/>
<feBlend mode="normal" in="SourceGraphic" in2="BackgroundImageFix" result="shape"/>
<feColorMatrix in="SourceAlpha" type="matrix" values="0 0 0 0 0 0 0 0 0 0 0 0 0 0 0 0 0 0 127 0" result="hardAlpha"/>
<feOffset dx="-10" dy="-10"/>
<feGaussianBlur stdDeviation="20"/>
<feComposite in2="hardAlpha" operator="arithmetic" k2="-1" k3="1"/>
<feColorMatrix type="matrix" values="0 0 0 0 0.831373 0 0 0 0 0.721569 0 0 0 0 0.964706 0 0 0 0.6 0"/>
<feBlend mode="normal" in2="shape" result="effect1_innerShadow_2483_1106"/>
<feColorMatrix in="SourceAlpha" type="matrix" values="0 0 0 0 0 0 0 0 0 0 0 0 0 0 0 0 0 0 127 0" result="hardAlpha"/>
<feOffset dx="10" dy="10"/>
<feGaussianBlur stdDeviation="20"/>
<feComposite in2="hardAlpha" operator="arithmetic" k2="-1" k3="1"/>
<feColorMatrix type="matrix" values="0 0 0 0 0.831373 0 0 0 0 0.721569 0 0 0 0 0.964706 0 0 0 0.6 0"/>
<feBlend mode="normal" in2="effect1_innerShadow_2483_1106" result="effect2_innerShadow_2483_1106"/>
</filter>
<filter id="filter1_ii_2483_1106" x="-8.20898" y="-11.4414" width="377.217" height="420.378" filterUnits="userSpaceOnUse" color-interpolation-filters="sRGB">
<feFlood flood-opacity="0" result="BackgroundImageFix"/>
<feBlend mode="normal" in="SourceGraphic" in2="BackgroundImageFix" result="shape"/>
<feColorMatrix in="SourceAlpha" type="matrix" values="0 0 0 0 0 0 0 0 0 0 0 0 0 0 0 0 0 0 127 0" result="hardAlpha"/>
<feOffset dx="10" dy="10"/>
<feGaussianBlur stdDeviation="20"/>
<feComposite in2="hardAlpha" operator="arithmetic" k2="-1" k3="1"/>
<feColorMatrix type="matrix" values="0 0 0 0 0.917647 0 0 0 0 0.866667 0 0 0 0 0.984314 0 0 0 1 0"/>
<feBlend mode="normal" in2="shape" result="effect1_innerShadow_2483_1106"/>
<feColorMatrix in="SourceAlpha" type="matrix" values="0 0 0 0 0 0 0 0 0 0 0 0 0 0 0 0 0 0 127 0" result="hardAlpha"/>
<feOffset dx="-10" dy="-10"/>
<feGaussianBlur stdDeviation="20"/>
<feComposite in2="hardAlpha" operator="arithmetic" k2="-1" k3="1"/>
<feColorMatrix type="matrix" values="0 0 0 0 0.917647 0 0 0 0 0.866667 0 0 0 0 0.984314 0 0 0 1 0"/>
<feBlend mode="normal" in2="effect1_innerShadow_2483_1106" result="effect2_innerShadow_2483_1106"/>
</filter>
<clipPath id="clip0_2483_1106">
<path d="M0 38.4C0 24.9587 0 18.2381 2.61584 13.1042C4.9168 8.58834 8.58834 4.9168 13.1042 2.61584C18.2381 0 24.9587 0 38.4 0H312.6C326.041 0 332.762 0 337.896 2.61584C342.412 4.9168 346.083 8.58834 348.384 13.1042C351 18.2381 351 24.9587 351 38.4V377.6C351 391.041 351 397.762 348.384 402.896C346.083 407.412 342.412 411.083 337.896 413.384C332.762 416 326.041 416 312.6 416H38.4C24.9587 416 18.2381 416 13.1042 413.384C8.58834 411.083 4.9168 407.412 2.61584 402.896C0 397.762 0 391.041 0 377.6V38.4Z" fill="white"/>
</clipPath>
</defs>
</svg>
