<svg width="189" height="219" viewBox="0 0 189 219" fill="none" xmlns="http://www.w3.org/2000/svg">
<g filter="url(#filter0_ii_2468_1555)">
<path d="M7.66436 51.7064L84.2221 4.97927C89.2467 1.9125 95.5494 1.85243 100.632 4.82288L180.922 51.7516C185.83 54.6207 188.848 59.8793 188.848 65.5651V153.435C188.848 159.121 185.83 164.379 180.922 167.248L100.632 214.177C95.5494 217.148 89.2466 217.087 84.2221 214.021L7.66435 167.294C2.90398 164.388 0 159.214 0 153.636V65.3635C0 59.7865 2.90399 54.6119 7.66436 51.7064Z" fill="#F8F1FF" fill-opacity="0.3"/>
</g>
<path d="M160.1 112.342C159.708 120.737 156.406 123.623 150.585 125.632C149.864 125.881 149.123 126.071 148.432 126.19C147.584 126.336 146.81 125.783 146.529 124.97L145.901 123.151C145.416 121.745 146.598 120.008 148.022 119.581C148.301 119.497 148.586 119.405 148.872 119.306C151.152 118.519 152.497 116.578 152.647 113.706L152.851 109.664C152.88 109.104 152.671 108.557 152.277 108.158L130.956 86.5487C129.922 85.5011 130.336 83.7337 131.727 83.2535L134.973 82.1331C135.702 81.8813 136.512 82.0717 137.052 82.6223L153.292 99.1584C153.331 99.1986 153.39 99.2124 153.443 99.1941C153.5 99.1747 153.538 99.1231 153.541 99.0638L154.699 76.6474C154.741 75.8332 155.273 75.126 156.044 74.86L159.401 73.701C160.743 73.2379 162.126 74.2806 162.051 75.6979L160.1 112.342Z" fill="#9D52F7"/>
<path d="M116.633 76.0739C116.273 75.0298 116.827 73.8912 117.871 73.5308L121.47 72.2883C122.515 71.9279 123.653 72.4822 124.014 73.5263L137.952 113.908C138.313 114.952 137.759 116.091 136.715 116.451L133.115 117.694C132.071 118.054 130.932 117.5 130.572 116.456L116.633 76.0739Z" fill="#9D52F7"/>
<path d="M116.19 88.6175C117.234 88.2571 118.373 88.8114 118.733 89.8555L128.198 117.277C128.559 118.321 128.004 119.459 126.96 119.82L123.361 121.062C122.317 121.423 121.178 120.868 120.818 119.824L111.353 92.4031C110.992 91.359 111.546 90.2204 112.591 89.86L116.19 88.6175ZM111.437 87.1019C110.393 87.4623 109.254 86.9081 108.894 85.864L108.149 83.7046C107.788 82.6605 108.343 81.5219 109.387 81.1615L113.346 79.7948C114.39 79.4344 115.529 79.9887 115.889 81.0328L116.635 83.1921C116.995 84.2362 116.441 85.3748 115.397 85.7352L111.437 87.1019Z" fill="#9D52F7"/>
<path d="M95.0844 95.0959C102.273 92.6147 107.924 94.2052 110.641 99.3689C111.155 100.346 110.583 101.498 109.539 101.858L105.94 103.101C104.896 103.461 103.799 102.861 103.109 101.998C101.765 100.317 99.5667 99.8612 96.9113 100.778C93.7911 101.855 92.4488 103.997 93.3187 106.517C95.3899 112.518 112.301 101.979 116.237 113.38C118.37 119.561 114.833 124.878 106.732 127.674C98.78 130.419 92.5995 128.679 89.6988 123.038C89.1936 122.056 89.7641 120.906 90.8082 120.546L94.4076 119.303C95.4517 118.943 96.5538 119.534 97.2068 120.425C98.7658 122.552 101.466 123.112 104.765 121.974C108.245 120.772 109.747 118.508 108.856 115.928C106.702 109.687 90.0184 120.886 85.8967 108.945C83.8255 102.944 87.2238 97.8092 95.0844 95.0959Z" fill="#9D52F7"/>
<path d="M74.4606 138.814C67.6201 141.175 62.0985 139.186 60.193 133.666C58.4325 128.565 62.1765 123.848 69.4199 119.736C73.8103 117.281 76.2577 115.227 75.367 112.647C74.435 109.947 71.7963 109.111 68.3161 110.313C65.2176 111.382 63.5039 113.248 63.4206 115.504C63.3798 116.608 62.8883 117.76 61.8442 118.12L58.2448 119.363C57.2007 119.723 56.0389 119.169 55.8535 118.08C54.8935 112.442 58.5616 107.703 66.1127 105.097C74.5133 102.197 80.7178 104.219 82.9132 110.579L89.7999 130.53C90.1603 131.574 89.606 132.713 88.5619 133.073L84.254 134.56C83.3317 134.879 82.3615 134.224 82.3109 133.25L82.2169 131.438C82.2134 131.371 82.1467 131.326 82.0833 131.348C82.0501 131.359 82.0254 131.387 82.0175 131.421C81.2879 134.598 78.3981 137.455 74.4606 138.814ZM67.3664 130.518C68.2363 133.038 70.7964 134.035 73.7966 132.999C78.4769 131.384 80.4001 127.228 78.7017 122.307C78.2343 120.953 76.1027 120.667 74.991 121.57C74.1835 122.227 73.1971 122.906 71.9913 123.684C68.2424 126.052 66.5586 128.178 67.3664 130.518Z" fill="#9D52F7"/>
<path d="M56.2503 133.012C57.4394 132.601 58.7194 133.383 58.6945 134.641C58.5733 140.766 54.5292 145.693 47.5116 148.116C37.9709 151.409 30.1579 147.256 26.5954 136.935C23.0536 126.675 26.6828 118.707 36.2835 115.393C45.5241 112.203 52.9936 116.139 56.3904 125.979L56.4834 126.249C56.8438 127.293 56.2896 128.432 55.2454 128.792L37.0618 135.069C35.9732 135.444 35.4142 136.669 35.9684 137.679C38.4318 142.167 42.046 143.958 46.1275 142.55C49.1398 141.51 50.9622 139.276 51.192 136.361C51.2653 135.43 51.7896 134.551 52.6718 134.247L56.2503 133.012ZM33.3538 128.882C33.4269 130.087 34.673 130.79 35.8146 130.396L45.8375 126.936C46.9173 126.563 47.4831 125.349 46.908 124.362C44.858 120.843 41.7306 119.489 38.0669 120.754C34.7491 121.899 33.106 124.799 33.3538 128.882Z" fill="#9D52F7"/>
<defs>
<filter id="filter0_ii_2468_1555" x="-2" y="0.636353" width="192.848" height="217.727" filterUnits="userSpaceOnUse" color-interpolation-filters="sRGB">
<feFlood flood-opacity="0" result="BackgroundImageFix"/>
<feBlend mode="normal" in="SourceGraphic" in2="BackgroundImageFix" result="shape"/>
<feColorMatrix in="SourceAlpha" type="matrix" values="0 0 0 0 0 0 0 0 0 0 0 0 0 0 0 0 0 0 127 0" result="hardAlpha"/>
<feOffset dx="2" dy="2"/>
<feGaussianBlur stdDeviation="10"/>
<feComposite in2="hardAlpha" operator="arithmetic" k2="-1" k3="1"/>
<feColorMatrix type="matrix" values="0 0 0 0 0.501961 0 0 0 0 0.286275 0 0 0 0 0.905882 0 0 0 0.6 0"/>
<feBlend mode="normal" in2="shape" result="effect1_innerShadow_2468_1555"/>
<feColorMatrix in="SourceAlpha" type="matrix" values="0 0 0 0 0 0 0 0 0 0 0 0 0 0 0 0 0 0 127 0" result="hardAlpha"/>
<feOffset dx="-2" dy="-2"/>
<feGaussianBlur stdDeviation="10"/>
<feComposite in2="hardAlpha" operator="arithmetic" k2="-1" k3="1"/>
<feColorMatrix type="matrix" values="0 0 0 0 0.501961 0 0 0 0 0.286275 0 0 0 0 0.905882 0 0 0 0.6 0"/>
<feBlend mode="normal" in2="effect1_innerShadow_2468_1555" result="effect2_innerShadow_2468_1555"/>
</filter>
</defs>
</svg>
